Merriweather-Display.ufo
<glyph name="exclam" format="2">
  <advance width="451.54978424809457"/>
  <unicode hex="0021"/>
  <outline>
    <contour>
      <point x="334.82058313505667" y="1792.9281767955802" type="line"/>
      <point x="111.16304391660282" y="1792.9281767955802" type="line"/>
      <point x="190.96289873775052" y="409.835947896923" type="line"/>
      <point x="260.97431140863813" y="409.835947896923" type="line"/>
    </contour>
    <contour>
      <point x="103.34084768318749" y="92.42690648062266" type="curve" smooth="yes"/>
      <point x="103.34084768318749" y="24.726902447876757"/>
      <point x="155.68044521514702" y="-20.30939226519337"/>
      <point x="215.5580917046417" y="-20.30939226519337" type="curve" smooth="yes"/>
      <point x="288.6417711819978" y="-20.30939226519337"/>
      <point x="348.9349518086865" y="30.078961164657017"/>
      <point x="348.9349518086865" y="108.48461507440416" type="curve" smooth="yes"/>
      <point x="348.9349518086865" y="166.8137677944913"/>
      <point x="312.5134088801065" y="221.29495503488323"/>
      <point x="235.8423196354398" y="221.29495503488323" type="curve" smooth="yes"/>
      <point x="166.25325644231157" y="221.29495503488323"/>
      <point x="103.34084768318749" y="167.04625559543493"/>
    </contour>
  </outline>
</glyph>
<glyph name="quotedbl" format="2">
  <advance width="1063.9364035972094"/>
  <unicode hex="0022"/>
  <outline>
    <contour>
      <point x="413.7600112916885" y="1654.707182320442" type="line"/>
      <point x="226.00693632294227" y="1654.707182320442" type="line"/>
      <point x="285.13106424164215" y="998.6423760938824" type="line"/>
      <point x="352.6358833729887" y="998.6423760938824" type="line"/>
    </contour>
    <contour>
      <point x="840.0821470339154" y="1654.707182320442" type="line"/>
      <point x="652.8585716014036" y="1654.707182320442" type="line"/>
      <point x="711.4531999838691" y="998.6423760938824" type="line"/>
      <point x="779.4875186514498" y="998.6423760938824" type="line"/>
    </contour>
  </outline>
</glyph>
<glyph name="numbersign" format="2">
  <advance width="1329.9372504738476"/>
  <unicode hex="0023"/>
  <outline>
    <contour>
      <point x="346.2387788845424" y="414.58849860870265" type="line"/>
      <point x="282.2387788845424" y="1.5884986087026658" type="line"/>
      <point x="363.37746501592926" y="1.5884986087026658" type="line"/>
      <point x="428.37746501592926" y="414.58849860870265" type="line"/>
      <point x="780.5597854579182" y="414.58849860870265" type="line"/>
      <point x="717.5597854579182" y="1.5884986087026658" type="line"/>
      <point x="798.6984715893051" y="1.5884986087026658" type="line"/>
      <point x="861.6984715893051" y="414.58849860870265" type="line"/>
      <point x="1115.3338307053273" y="414.58849860870265" type="line"/>
      <point x="1136.1515102633384" y="567.3122555147801" type="line"/>
      <point x="886.5161511473161" y="567.3122555147801" type="line"/>
      <point x="951.599024075493" y="958.8647417026253" type="line"/>
      <point x="1190.5161511473164" y="958.8647417026253" type="line"/>
      <point x="1211.3338307053273" y="1109.5884986087028" type="line"/>
      <point x="972.6984715893051" y="1109.5884986087028" type="line"/>
      <point x="1042.6984715893052" y="1540.5884986087028" type="line"/>
      <point x="960.5597854579182" y="1540.5884986087028" type="line"/>
      <point x="890.5597854579182" y="1109.5884986087028" type="line"/>
      <point x="539.3774650159294" y="1109.5884986087028" type="line"/>
      <point x="607.3774650159294" y="1540.5884986087028" type="line"/>
      <point x="526.2387788845425" y="1540.5884986087028" type="line"/>
      <point x="458.2387788845424" y="1109.5884986087028" type="line"/>
      <point x="213.6034197685204" y="1109.5884986087028" type="line"/>
      <point x="192.78574021050937" y="958.8647417026253" type="line"/>
      <point x="434.42109932653136" y="958.8647417026253" type="line"/>
      <point x="370.9017623099568" y="567.3122555147801" type="line"/>
      <point x="139.42109932653145" y="567.3122555147801" type="line"/>
      <point x="118.60341976852038" y="414.58849860870265" type="line"/>
    </contour>
    <contour>
      <point x="805.3774650159293" y="567.3122555147801" type="line"/>
      <point x="451.04044844134364" y="567.3122555147801" type="line"/>
      <point x="516.5597854579183" y="958.8647417026253" type="line"/>
      <point x="869.4603379441061" y="958.8647417026253" type="line"/>
    </contour>
  </outline>
</glyph>
<glyph name="dollar" format="2">
  <advance width="1275.4659434609027"/>
  <unicode hex="0024"/>
  <outline>
    <contour>
      <point x="179.5548251804654" y="67.15469613259668" type="line"/>
      <point x="232.8672420050813" y="46.40545227245232"/>
      <point x="393.83824656208407" y="-10.077267411380408"/>
      <point x="578.0308505061096" y="-21.246360446828245" type="curve"/>
      <point x="576.4463039883856" y="-253.66181392910434" type="line"/>
      <point x="679.1716739928219" y="-253.66181392910434" type="line"/>
      <point x="680.7562205105456" y="-20.119288623623824" type="line"/>
      <point x="952.7174658224784" y="3.2899947574303345"/>
      <point x="1116.3153607291204" y="161.16171311045693"/>
      <point x="1116.3153607291204" y="379.09480985603096" type="curve" smooth="yes"/>
      <point x="1116.3153607291204" y="613.2676936726216"/>
      <point x="927.4412227285559" y="716.6778239303142"/>
      <point x="722.9664475541397" y="826.845707141993" type="curve" smooth="yes"/>
      <point x="539.9230552082914" y="924.4505786990363"/>
      <point x="385.2778561922813" y="1005.8319151510264"/>
      <point x="385.2778561922813" y="1180.2675726902446" type="curve" smooth="yes"/>
      <point x="385.2778561922813" y="1334.2716860910593"/>
      <point x="499.53248376819766" y="1433.9526555631733"/>
      <point x="660.997701334839" y="1433.9526555631733" type="curve" smooth="yes"/>
      <point x="746.9188611525586" y="1434.8596201153366"/>
      <point x="833.0294793725047" y="1410.4257369843128"/>
      <point x="880.7773117715852" y="1375.9250312537808" type="curve"/>
      <point x="920.3689155946284" y="1105.1050530306084" type="line"/>
      <point x="1025.5816429406784" y="1105.1050530306084" type="line"/>
      <point x="1038.222446263661" y="1427.6906077348067" type="line"/>
      <point x="986.1451788522804" y="1445.6409646328184"/>
      <point x="853.9474129935072" y="1495.8551437673912"/>
      <point x="703.7244828003388" y="1502.415453482276" type="curve"/>
      <point x="703.7244828003388" y="1723.7390813404847" type="line"/>
      <point x="599.4145662781789" y="1723.7390813404847" type="line"/>
      <point x="599.4145662781789" y="1500.830906964552" type="line"/>
      <point x="360.11529620518616" y="1474.0465378876477"/>
      <point x="197.19187804976406" y="1341.4618703875467"/>
      <point x="197.19187804976406" y="1131.5117957817479" type="curve" smooth="yes"/>
      <point x="197.19187804976406" y="890.5784973988789"/>
      <point x="387.2559583820623" y="781.3847239585434"/>
      <point x="567.1056579424929" y="684.6301972012743" type="curve" smooth="yes"/>
      <point x="756.5910795660766" y="582.7069000282293"/>
      <point x="920.5047384764285" y="504.3748437310966"/>
      <point x="920.5047384764285" y="323.6662499495907" type="curve" smooth="yes"/>
      <point x="920.5047384764285" y="155.15630923095537"/>
      <point x="799.7736419728193" y="48.847400895269594"/>
      <point x="612.3083840787192" y="48.847400895269594" type="curve" smooth="yes"/>
      <point x="507.0197201274347" y="48.847400895269594"/>
      <point x="398.55950316570556" y="79.6993991208614"/>
      <point x="342.62293825866027" y="125.46618542565632" type="curve"/>
      <point x="304.63112473283053" y="412.8396983506069" type="line"/>
      <point x="195.9478969230149" y="412.8396983506069" type="line"/>
    </contour>
  </outline>
</glyph>
<glyph name="percent" format="2">
  <advance width="1943.7057305319192"/>
  <unicode hex="0025"/>
  <outline>
    <contour>
      <point x="599.8609509214824" y="0.0" type="line"/>
      <point x="716.0615397023834" y="0.0" type="line"/>
      <point x="1337.86377384361" y="1502.0" type="line"/>
      <point x="1221.5111505424043" y="1501.4705004637658" type="line"/>
    </contour>
    <contour>
      <point x="448.30749687462196" y="641.2375690607735" type="curve" smooth="yes"/>
      <point x="651.5959188611527" y="641.2375690607735"/>
      <point x="834.3172561196919" y="789.9812074041215"/>
      <point x="834.3172561196919" y="1061.0530306085413" type="curve" smooth="yes"/>
      <point x="834.3172561196919" y="1290.5423236681859"/>
      <point x="731.7104085171593" y="1472.9425333709723"/>
      <point x="482.01976045489374" y="1472.9425333709723" type="curve" smooth="yes"/>
      <point x="274.315884986087" y="1472.9425333709723"/>
      <point x="96.36581038028795" y="1320.1248538129612"/>
      <point x="96.36581038028795" y="1049.0530306085413" type="curve" smooth="yes"/>
      <point x="96.36581038028795" y="827.2047021817154"/>
      <point x="227.08073557285152" y="641.2375690607735"/>
    </contour>
    <contour>
      <point x="461.26087833205634" y="701.076339879824" type="curve" smooth="yes"/>
      <point x="333.8245755534943" y="701.076339879824"/>
      <point x="269.25583739968533" y="852.7967092793484"/>
      <point x="269.25583739968533" y="1058.3878291728838" type="curve" smooth="yes"/>
      <point x="269.25583739968533" y="1281.9547525910393"/>
      <point x="341.7185143364117" y="1413.3711336048714"/>
      <point x="470.01976045489374" y="1413.3711336048714" type="curve" smooth="yes"/>
      <point x="596.8105819252328" y="1413.3711336048714"/>
      <point x="662.6900028229222" y="1279.9445497439206"/>
      <point x="662.6900028229222" y="1053.0530306085413" type="curve" smooth="yes"/>
      <point x="662.6900028229222" y="831.0562568052587"/>
      <point x="589.2207121829254" y="701.076339879824"/>
    </contour>
    <contour>
      <point x="1461.04839295076" y="40.639996773803276" type="curve" smooth="yes"/>
      <point x="1664.1670766624998" y="40.639996773803276"/>
      <point x="1847.3399201516313" y="189.45767633181433"/>
      <point x="1847.3399201516313" y="460.52949953623425" type="curve" smooth="yes"/>
      <point x="1847.3399201516313" y="689.567286365286"/>
      <point x="1744.2075251038432" y="872.4190022986653"/>
      <point x="1494.8346977456952" y="872.4190022986653" type="curve" smooth="yes"/>
      <point x="1287.0567810622254" y="872.4190022986653"/>
      <point x="1109.106706456426" y="719.6013227406542"/>
      <point x="1109.106706456426" y="448.5294995362342" type="curve" smooth="yes"/>
      <point x="1109.106706456426" y="228.8324797354519"/>
      <point x="1239.5182078477235" y="40.639996773803276"/>
    </contour>
    <contour>
      <point x="1473.550268177602" y="100.62685002218011" type="curve" smooth="yes"/>
      <point x="1346.5654716296324" y="100.62685002218011"/>
      <point x="1281.5452272452312" y="252.2731782070412"/>
      <point x="1281.5452272452312" y="458.3158043311691" type="curve" smooth="yes"/>
      <point x="1281.5452272452312" y="681.4312215187322"/>
      <point x="1354.0819453966205" y="812.8476025325646"/>
      <point x="1482.8346977456952" y="812.8476025325646" type="curve" smooth="yes"/>
      <point x="1609.4774367867083" y="812.8476025325646"/>
      <point x="1675.4308988990604" y="678.969512441021"/>
      <point x="1675.4308988990604" y="452.5294995362342" type="curve" smooth="yes"/>
      <point x="1675.5049401137235" y="230.68080816227774"/>
      <point x="1601.510102028471" y="100.62685002218011"/>
    </contour>
  </outline>
</glyph>
<glyph name="ampersand" format="2">
  <advance width="1454.7131911118279"/>
  <unicode hex="0026"/>
  <outline>
    <contour>
      <point x="1420.3931523974677" y="793.8918417550509" type="line"/>
      <point x="1011.7558172359558" y="793.8918417550509" type="line"/>
      <point x="1011.7558172359558" y="728.8289712465217" type="line"/>
      <point x="1147.4596523773037" y="700.3952494253338" type="line"/>
      <point x="1155.3896439085374" y="554.2804371496552"/>
      <point x="1139.3333467758198" y="378.56272936242283"/>
      <point x="1047.3939186191878" y="276.50929547929184" type="curve"/>
      <point x="907.08626043473" y="423.6782675323627"/>
      <point x="774.9370891640118" y="588.6775416381015"/>
      <point x="645.5339355567206" y="770.7157720692019" type="curve"/>
      <point x="873.3948864782029" y="893.1330402871315"/>
      <point x="1005.2328507480743" y="1012.2112352300683"/>
      <point x="1005.2328507480743" y="1209.7025446626608" type="curve" smooth="yes"/>
      <point x="1005.2328507480743" y="1377.80094366254"/>
      <point x="877.8646207202484" y="1504.2817679558011"/>
      <point x="654.7161350163325" y="1504.2817679558011" type="curve" smooth="yes"/>
      <point x="396.46344315844664" y="1504.2817679558011"/>
      <point x="239.86538694196878" y="1341.2439004718312"/>
      <point x="239.86538694196878" y="1147.1386054764687" type="curve" smooth="yes"/>
      <point x="239.86538694196878" y="992.063112473283"/>
      <point x="323.57313384683636" y="865.4936887526718"/>
      <point x="426.09142234947774" y="724.6659676573779" type="curve"/>
      <point x="233.30660967052464" y="644.9800782352703"/>
      <point x="98.81993789571318" y="523.7444045650683"/>
      <point x="98.81993789571318" y="350.08646207202486" type="curve" smooth="yes"/>
      <point x="98.81993789571318" y="132.73734725974916"/>
      <point x="285.72956406016857" y="-17.69060773480663"/>
      <point x="597.4919143444772" y="-17.69060773480663" type="curve" smooth="yes"/>
      <point x="719.6238657902167" y="-17.69060773480663"/>
      <point x="850.5014316247933" y="16.579787877565835"/>
      <point x="955.584546517724" y="106.89478565955558" type="curve"/>
      <point x="1041.7692462797918" y="32.29249505988628"/>
      <point x="1133.861071903859" y="-13.167076662499497"/>
      <point x="1237.5686574988908" y="-13.167076662499497" type="curve" smooth="yes"/>
      <point x="1289.0808968826877" y="-13.167076662499497"/>
      <point x="1360.3807315401054" y="-2.1461467112957218"/>
      <point x="1381.6847602532564" y="9.662983425414364" type="curve"/>
      <point x="1381.6847602532564" y="64.65911198935355" type="line"/>
      <point x="1292.2706375771265" y="69.23760938823246"/>
      <point x="1173.9658023147963" y="163.2232931402992"/>
      <point x="1096.198128805904" y="238.5072791063435" type="curve"/>
      <point x="1218.4923176190669" y="341.6168891398153"/>
      <point x="1297.1280800096788" y="516.7514215429286"/>
      <point x="1293.555147800137" y="700.3952494253338" type="curve"/>
      <point x="1420.3931523974677" y="728.8289712465217" type="line"/>
    </contour>
    <contour>
      <point x="440.60422631769967" y="1196.844577973142" type="curve" smooth="yes"/>
      <point x="440.60422631769967" y="1342.2875751098923"/>
      <point x="514.267250070573" y="1443.345122393838"/>
      <point x="638.580957373876" y="1443.345122393838" type="curve" smooth="yes"/>
      <point x="776.1190466588702" y="1443.345122393838"/>
      <point x="823.8525628100173" y="1326.5180062104287"/>
      <point x="823.8525628100173" y="1203.9193450820665" type="curve" smooth="yes"/>
      <point x="823.8525628100173" y="1033.2751542525302"/>
      <point x="771.5015929346293" y="919.6193491148124"/>
      <point x="611.6614913094326" y="813.1550187522685" type="curve"/>
      <point x="525.1751018268338" y="929.5079646731459"/>
      <point x="440.60422631769967" y="1047.827600112917"/>
    </contour>
    <contour>
      <point x="647.3871436060814" y="67.24027100052426" type="curve" smooth="yes"/>
      <point x="429.8594184780417" y="71.47626729039804"/>
      <point x="301.44505383715773" y="210.62592249062385"/>
      <point x="301.44505383715773" y="380.83235875307497" type="curve" smooth="yes"/>
      <point x="301.44505383715773" y="500.76114046053965"/>
      <point x="352.27212969310807" y="613.0285115134894"/>
      <point x="459.9802798725653" y="680.5525265153043" type="curve"/>
      <point x="590.4420292777353" y="501.0756543130218"/>
      <point x="773.0216155180062" y="276.34334798564345"/>
      <point x="909.2962051861114" y="148.0568617171432" type="curve"/>
      <point x="839.9255151832883" y="92.06609670524661"/>
      <point x="738.0913416945598" y="65.12227285558737"/>
    </contour>
  </outline>
</glyph>
<glyph name="quotesingle" format="2">
  <advance width="617.8739766907287"/>
  <unicode hex="0027"/>
  <outline>
    <contour>
      <point x="402.81352582973744" y="1654.707182320442" type="line"/>
      <point x="215.06045086099127" y="1654.707182320442" type="line"/>
      <point x="274.18457877969115" y="998.6423760938824" type="line"/>
      <point x="341.68939791103764" y="998.6423760938824" type="line"/>
    </contour>
  </outline>
</glyph>
<glyph name="parenleft" format="2">
  <advance width="800.6989151913538"/>
  <unicode hex="0028"/>
  <outline>
    <contour>
      <point x="115.29854417873129" y="668.0" type="curve" smooth="yes"/>
      <point x="115.29854417873129" y="-7.005686171714322"/>
      <point x="533.3309271282817" y="-314.2409162398677"/>
      <point x="625.9499132959633" y="-369.0718232044199" type="curve"/>
      <point x="681.1959107956607" y="-329.0551679638666" type="line"/>
      <point x="575.5893858128001" y="-253.90079445094165"/>
      <point x="286.86413679074076" y="90.12723313304028"/>
      <point x="301.219945961205" y="701.4640883977901" type="curve"/>
      <point x="312.2729765697463" y="1249.8451425575674"/>
      <point x="582.559099891116" y="1559.0771464290035"/>
      <point x="676.0135903536719" y="1621.386216074525" type="curve"/>
      <point x="626.7808202605154" y="1657.0718232044198" type="line"/>
      <point x="518.1618340928338" y="1594.7692059523329"/>
      <point x="115.29854417873129" y="1250.4973988788968"/>
    </contour>
  </outline>
</glyph>
<glyph name="parenright" format="2">
  <advance width="800.6989151913538"/>
  <unicode hex="0029"/>
  <outline>
    <contour>
      <point x="685.4003710126225" y="620.5255474452555" type="curve" smooth="yes"/>
      <point x="685.4003710126225" y="1295.5312336169698"/>
      <point x="267.3679880630722" y="1602.766463685123"/>
      <point x="174.74900189539056" y="1657.5973706496752" type="curve"/>
      <point x="119.50300439569303" y="1617.5807154091221" type="line"/>
      <point x="225.10952937855384" y="1542.426341896197"/>
      <point x="513.834778400613" y="1198.398314312215"/>
      <point x="499.5530104448119" y="587.0614590474654" type="curve"/>
      <point x="488.4999798362706" y="38.68040488768803"/>
      <point x="218.13981530023796" y="-270.551598983748"/>
      <point x="124.68532483768197" y="-332.86066862926964" type="curve"/>
      <point x="173.9180949308384" y="-368.5462757591644" type="line"/>
      <point x="282.53708109852" y="-306.24365850707744"/>
      <point x="685.4003710126225" y="38.02814856635884"/>
    </contour>
  </outline>
</glyph>
<glyph name="asterisk" format="2">
  <advance width="1018.9545912812034"/>
  <unicode hex="002A"/>
  <outline>
    <contour>
      <point x="313.375448642981" y="1163.8477638424004" type="line"/>
      <point x="101.9091019074888" y="1063.7391619954026" type="line"/>
      <point x="177.6875831753841" y="933.9421300963827" type="line"/>
      <point x="367.7461789732629" y="1072.083679477356" type="line"/>
      <point x="492.7817074646126" y="1188.8550631124733" type="line"/>
      <point x="458.63927087954187" y="1021.3127394442876" type="line"/>
      <point x="439.5009073678267" y="787.3103197967496" type="line"/>
      <point x="590.2393434689681" y="787.687784812679" type="line"/>
      <point x="564.7615034076703" y="1022.465419203936" type="line"/>
      <point x="525.651288462314" y="1188.6329394684842" type="line"/>
      <point x="654.5432108722829" y="1075.0443198774046" type="line"/>
      <point x="845.0088317135138" y="941.0548050167359" type="line"/>
      <point x="921.0834778400613" y="1072.1990966649191" type="line"/>
      <point x="706.2947130701294" y="1167.4243255232486" type="line"/>
      <point x="542.0932774125902" y="1217.250312537807" type="line"/>
      <point x="705.3497600516191" y="1270.674517078679" type="line"/>
      <point x="916.2165181271928" y="1370.4796951244105" type="line"/>
      <point x="840.7414606605637" y="1499.8252207928379" type="line"/>
      <point x="650.0092349881033" y="1361.7577126265273" type="line"/>
      <point x="525.1217889260798" y="1245.5859176513286" type="line"/>
      <point x="559.715731741743" y="1412.9061176755251" type="line"/>
      <point x="579.3796426987136" y="1646.0055248618785" type="line"/>
      <point x="428.1156591523168" y="1646.0055248618785" type="line"/>
      <point x="453.21603419768525" y="1411.005766826632" type="line"/>
      <point x="492.62967294430774" y="1244.8382465620841" type="line"/>
      <point x="364.18199782231727" y="1358.5749485824897" type="line"/>
      <point x="172.6725410331895" y="1492.6385046578216" type="line"/>
      <point x="97.87111344114209" y="1362.7674315441384" type="line"/>
      <point x="312.43049562447067" y="1266.713231439287" type="line"/>
      <point x="476.18768399403143" y="1217.0425857966688" type="line"/>
    </contour>
  </outline>
</glyph>
<glyph name="plus" format="2">
  <advance width="1237.568455861596"/>
  <unicode hex="002B"/>
  <outline>
    <contour>
      <point x="346.00395209097877" y="636.279670927935" type="line"/>
      <point x="160.83211678832117" y="636.279670927935" type="line"/>
      <point x="160.83211678832117" y="532.6462475299433" type="line"/>
      <point x="346.00395209097877" y="532.6462475299433" type="line"/>
      <point x="568.2125660362142" y="534.3709722950357" type="line"/>
      <point x="566.6359237004477" y="342.47223454450136" type="line"/>
      <point x="566.6359237004477" y="112.68508287292819" type="line"/>
      <point x="670.1212646691132" y="112.68508287292819" type="line"/>
      <point x="670.1212646691132" y="342.47223454450136" type="line"/>
      <point x="667.9450336734284" y="534.3709722950357" type="line"/>
      <point x="862.3194338024762" y="532.6462475299433" type="line"/>
      <point x="1076.736339073275" y="532.6462475299433" type="line"/>
      <point x="1076.736339073275" y="636.279670927935" type="line"/>
      <point x="862.3194338024762" y="636.279670927935" type="line"/>
      <point x="667.9450336734284" y="633.5038512723314" type="line"/>
      <point x="670.1212646691132" y="832.2034117030287" type="line"/>
      <point x="670.1212646691132" y="1055.6850828729282" type="line"/>
      <point x="566.6359237004477" y="1055.6850828729282" type="line"/>
      <point x="566.6359237004477" y="832.2034117030287" type="line"/>
      <point x="568.2125660362142" y="633.5038512723314" type="line"/>
    </contour>
  </outline>
</glyph>
<glyph name="comma" format="2">
  <advance width="521.9674960680728"/>
  <unicode hex="002C"/>
  <outline>
    <contour>
      <point x="255.80574263015689" y="261.72912045811995" type="curve"/>
      <point x="247.94539662055897" y="261.72912045811995" type="line" smooth="yes"/>
      <point x="189.73315320401665" y="261.72912045811995"/>
      <point x="144.85211920796868" y="223.01258216719765"/>
      <point x="144.85211920796868" y="158.57535185707948" type="curve" smooth="yes"/>
      <point x="144.85211920796868" y="44.983627051659475"/>
      <point x="263.8253821026737" y="42.91865951526395"/>
      <point x="263.8253821026737" y="-50.47283945638585" type="curve" smooth="yes"/>
      <point x="263.8253821026737" y="-171.5043755292979"/>
      <point x="197.50735976126145" y="-287.97890873896034"/>
      <point x="132.16683469774568" y="-346.871153768601" type="curve"/>
      <point x="132.16683469774568" y="-358.60950921482436" type="line"/>
      <point x="171.76856071298945" y="-385.39424123885954" type="line"/>
      <point x="173.23906117675526" y="-385.1865144977215" type="line"/>
      <point x="285.56115659152323" y="-322.4788885752308"/>
      <point x="395.0032665241763" y="-147.04282776142276"/>
      <point x="395.0032665241763" y="47.78844215026012" type="curve" smooth="yes"/>
      <point x="395.0032665241763" y="181.21538895834172"/>
      <point x="333.944146469331" y="261.72912045811995"/>
    </contour>
  </outline>
</glyph>
<glyph name="hyphen" format="2">
  <advance width="1073.987700125015"/>
  <unicode hex="002D"/>
  <outline>
    <contour>
      <point x="913.155583336694" y="634.7062144614268" type="line"/>
      <point x="160.83211678832117" y="634.7062144614268" type="line"/>
      <point x="160.83211678832117" y="532.9601161430818" type="line"/>
      <point x="913.155583336694" y="532.9601161430818" type="line"/>
    </contour>
  </outline>
</glyph>
<glyph name="period" format="2">
  <advance width="420.09876194700973"/>
  <unicode hex="002E"/>
  <outline>
    <contour>
      <point x="199.9580997701335" y="-20.30939226519337" type="curve" smooth="yes"/>
      <point x="272.21280800096787" y="-20.30939226519337"/>
      <point x="332.1285236117272" y="30.53046739524942"/>
      <point x="332.1285236117272" y="108.93612130499658" type="curve" smooth="yes"/>
      <point x="332.1285236117272" y="167.33931523974675"/>
      <point x="296.0844456990765" y="222.27200871073114"/>
      <point x="220.24232770093155" y="222.27200871073114" type="curve" smooth="yes"/>
      <point x="150.27579949187404" y="222.27200871073114"/>
      <point x="88.04427954994557" y="167.94926805661973"/>
      <point x="88.04427954994557" y="92.95245392587813" type="curve" smooth="yes"/>
      <point x="88.04427954994557" y="25.252449893132233"/>
      <point x="139.55490583538332" y="-20.30939226519337"/>
    </contour>
  </outline>
</glyph>
<glyph name="slash" format="2">
  <advance width="714.699883050369"/>
  <unicode hex="002F"/>
  <outline>
    <contour>
      <point x="666.7720692019195" y="1562.0" type="line"/>
      <point x="556.7540428277615" y="1562.0" type="line"/>
      <point x="47.92781384844941" y="-354.0" type="line"/>
      <point x="158.5093761342098" y="-354.0" type="line"/>
    </contour>
  </outline>
</glyph>
<glyph name="zero" format="2">
  <advance width="1239.8722426099932"/>
  <unicode hex="0030"/>
  <outline>
    <contour>
      <point x="605.6225349840706" y="-18.845303867403317" type="curve" smooth="yes"/>
      <point x="944.6215267975965" y="-18.845303867403317"/>
      <point x="1158.4199701576804" y="274.7345646650804"/>
      <point x="1159.8564342460782" y="757.6726620155664" type="curve" smooth="yes"/>
      <point x="1161.292898334476" y="1211.1234826793564"/>
      <point x="1010.0733556478606" y="1504.2817679558011"/>
      <point x="640.0696051941767" y="1504.2817679558011" type="curve" smooth="yes"/>
      <point x="314.9145461144493" y="1504.2817679558011"/>
      <point x="81.73404040811388" y="1231.5240150018146"/>
      <point x="80.01580836391501" y="743.4312215187321" type="curve" smooth="yes"/>
      <point x="78.29757631971609" y="301.1803443964995"/>
      <point x="236.81751824817513" y="-18.845303867403317"/>
    </contour>
    <contour>
      <point x="618.6267290398032" y="46.6069282574505" type="curve" smooth="yes"/>
      <point x="410.48562326087836" y="46.6069282574505"/>
      <point x="313.54998588538933" y="326.89466467717864"/>
      <point x="313.54998588538933" y="756.8156631850627" type="curve" smooth="yes"/>
      <point x="313.54998588538933" y="1207.500423438319"/>
      <point x="409.0286728233254" y="1437.9389845545832"/>
      <point x="623.319554784853" y="1437.9389845545832" type="curve" smooth="yes"/>
      <point x="833.132475702706" y="1437.9389845545832"/>
      <point x="925.7560592007098" y="1193.933016090656"/>
      <point x="925.7560592007098" y="739.082711618341" type="curve" smooth="yes"/>
      <point x="925.7560592007098" y="292.6664515868855"/>
      <point x="840.612614429165" y="46.6069282574505"/>
    </contour>
  </outline>
</glyph>
<glyph name="one" format="2">
  <advance width="857.8454651772392"/>
  <unicode hex="0031"/>
  <outline>
    <contour>
      <point x="357.9898374803404" y="80.93777473081423" type="line"/>
      <point x="115.90361737306931" y="52.81195305883775" type="line"/>
      <point x="115.90361737306931" y="0.0" type="line"/>
      <point x="808.1091664314233" y="0.0" type="line"/>
      <point x="808.1091664314233" y="52.81195305883775" type="line"/>
      <point x="574.98556276969" y="81.08585716014036" type="line"/>
      <point x="574.98556276969" y="1484.5635359116022" type="line"/>
      <point x="452.7888050973908" y="1504.5635359116022" type="line"/>
      <point x="447.88063072145826" y="1504.5635359116022" type="line"/>
      <point x="371.19933862967287" y="1410.535871274751"/>
      <point x="212.33854901802636" y="1316.2202685808766"/>
      <point x="60.7730370609348" y="1284.143001169496" type="curve"/>
      <point x="73.81941363874662" y="1221.1301770375446" type="line"/>
      <point x="185.69714078315923" y="1237.190748880913"/>
      <point x="295.8413517764245" y="1266.9764890914223"/>
      <point x="355.55006654030734" y="1291.2217606968586" type="curve"/>
    </contour>
  </outline>
</glyph>
<glyph name="two" format="2">
  <advance width="1118.0645239343469"/>
  <unicode hex="0032"/>
  <outline>
    <contour>
      <point x="22.693551639311206" y="73.12646691131992" type="curve"/>
      <point x="51.671976448763964" y="0.0" type="line"/>
      <point x="991.8232850748074" y="0.0" type="line"/>
      <point x="1057.557728757511" y="340.94108158244956" type="line"/>
      <point x="982.4900996088236" y="357.2213574222688" type="line"/>
      <point x="892.0633141105778" y="186.28777674718717" type="line"/>
      <point x="221.11448965600673" y="129.1205387748518" type="line"/>
      <point x="582.6980683147156" y="364.73049159172484"/>
      <point x="959.1865548251805" y="746.8242932612816"/>
      <point x="959.1865548251805" y="1098.7467435576884" type="curve" smooth="yes"/>
      <point x="959.1865548251805" y="1354.4805016735895"/>
      <point x="767.6848409081744" y="1502.5635359116022"/>
      <point x="526.0111303786748" y="1502.5635359116022" type="curve" smooth="yes"/>
      <point x="314.75815622857607" y="1502.5635359116022"/>
      <point x="145.74625962818084" y="1385.2562810017341"/>
      <point x="51.2526112029681" y="1232.6866153163687" type="curve"/>
      <point x="103.57861838125581" y="1182.8963584304552" type="line"/>
      <point x="194.2354720329072" y="1299.5190547243621"/>
      <point x="327.2097027866274" y="1373.8827680767833"/>
      <point x="460.16050328668786" y="1373.8827680767833" type="curve" smooth="yes"/>
      <point x="622.0088720409726" y="1373.8827680767833"/>
      <point x="730.064362624511" y="1268.5209097874745"/>
      <point x="730.064362624511" y="1056.99491874017" type="curve" smooth="yes"/>
      <point x="730.064362624511" y="703.6083397185142"/>
      <point x="380.69972174053316" y="283.728918820825"/>
    </contour>
  </outline>
</glyph>
<glyph name="three" format="2">
  <advance width="1046.321006573376"/>
  <unicode hex="0033"/>
  <outline>
    <contour>
      <point x="280.5156268903496" y="-27.571319111182802" type="curve" smooth="yes"/>
      <point x="651.5893051578819" y="-30.74831632858814"/>
      <point x="972.2889059160383" y="152.4250514175102"/>
      <point x="971.4599346695165" y="465.20143565753926" type="curve" smooth="yes"/>
      <point x="971.0084284389243" y="686.667096826229"/>
      <point x="764.2814050086704" y="842.4488849457597"/>
      <point x="466.4054925999114" y="780.8503447997742" type="curve"/>
      <point x="678.642779368472" y="849.0214542081702"/>
      <point x="893.5136911723192" y="977.9601967979999"/>
      <point x="893.5136911723192" y="1200.8193329838286" type="curve" smooth="yes"/>
      <point x="893.5136911723192" y="1410.3093922651933"/>
      <point x="702.8997862644675" y="1502.4894946969391"/>
      <point x="489.1078759527362" y="1502.4894946969391" type="curve" smooth="yes"/>
      <point x="292.982941484857" y="1502.4894946969391"/>
      <point x="129.60999314433198" y="1409.123805299028"/>
      <point x="45.64374722748719" y="1325.6070492398273" type="curve"/>
      <point x="83.11965157075456" y="1267.34504173892" type="line"/>
      <point x="167.8086865346615" y="1334.3466548372787"/>
      <point x="282.63939186191874" y="1383.2390208492961"/>
      <point x="406.3829092228899" y="1384.2980199217648" type="curve" smooth="yes"/>
      <point x="541.9242650320604" y="1385.8865185304671"/>
      <point x="660.0970681937331" y="1324.0501673589547"/>
      <point x="659.7196031778037" y="1172.6646771786911" type="curve" smooth="yes"/>
      <point x="659.3421381618745" y="1021.6406420131468"/>
      <point x="550.0807759003105" y="900.8258660321812"/>
      <point x="374.94688873654076" y="831.8355042948743" type="curve" smooth="yes"/>
      <point x="331.01242085736186" y="814.2208734927611"/>
      <point x="276.3952090978748" y="797.5296205186111"/>
      <point x="231.58535306690328" y="785.4856635883374" type="curve"/>
      <point x="251.2424890107674" y="707.2214784046456" type="line"/>
      <point x="279.60152437794903" y="715.1297334354962"/>
      <point x="358.33254022664033" y="739.0885590998911"/>
      <point x="391.49239827398475" y="748.7150461749404" type="curve"/>
      <point x="635.6288260676696" y="769.0032261967173"/>
      <point x="729.17135137315" y="625.6760495221197"/>
      <point x="729.7008509093841" y="458.15316368915603" type="curve" smooth="yes"/>
      <point x="730.7598499818525" y="224.69032544259386"/>
      <point x="551.4732024035166" y="54.06327378311892"/>
      <point x="246.34613058031212" y="56.71077146429004" type="curve" smooth="yes"/>
      <point x="184.36943985159496" y="57.24027100052425"/>
      <point x="113.18002177682781" y="67.28092107916281"/>
      <point x="59.09319675767231" y="86.41315481711497" type="curve"/>
      <point x="56.18502238173974" y="9.956567326692744" type="line"/>
      <point x="106.73662136548776" y="-10.175021171915958"/>
      <point x="205.8552647497681" y="-27.04181957494858"/>
    </contour>
  </outline>
</glyph>
<glyph name="four" format="2">
  <advance width="1163.5580110497237"/>
  <unicode hex="0034"/>
  <outline>
    <contour>
      <point x="692.2038956325362" y="0.0" type="line"/>
      <point x="893.5867242005082" y="0.0" type="line"/>
      <point x="893.5867242005082" y="313.1212243416542" type="line"/>
      <point x="1128.0862201072712" y="313.1212243416542" type="line"/>
      <point x="1127.5567205710367" y="451.69218050570635" type="line"/>
      <point x="892.8494979231358" y="436.9345888615558" type="line"/>
      <point x="893.3789974593701" y="856.4783239908053" type="line"/>
      <point x="699.8260273420173" y="839.4640883977901" type="line"/>
      <point x="692.2379320079043" y="422.90934387224263" type="line"/>
      <point x="164.5518006210429" y="386.1938540952534" type="line"/>
      <point x="327.4111787716256" y="618.4935274428359" type="line"/>
      <point x="779.1937734403355" y="1402.4904222284956" type="line"/>
      <point x="622.253942009114" y="1490.2265193370165" type="line"/>
      <point x="540.8681695366375" y="1490.2265193370165" type="line"/>
      <point x="398.57728757510984" y="1168.0936806871798"/>
      <point x="234.8704682017986" y="760.8509093841997"/>
      <point x="36.24438440133887" y="412.4644916723797" type="curve"/>
      <point x="85.21700205670042" y="313.1212243416542" type="line"/>
      <point x="692.2038956325362" y="313.1212243416542" type="line"/>
    </contour>
  </outline>
</glyph>
<glyph name="six" format="2">
  <advance width="1198.0006855668025"/>
  <unicode hex="0036"/>
  <outline>
    <contour>
      <point x="597.14207363794" y="-28.46187038754688" type="curve" smooth="yes"/>
      <point x="921.8155422026857" y="-28.9913699237811"/>
      <point x="1116.7066983909344" y="217.37923942412388"/>
      <point x="1116.7066983909344" y="512.1733274186394" type="curve" smooth="yes"/>
      <point x="1116.7066983909344" y="803.7342420454088"/>
      <point x="942.2912852361173" y="968.0437149655199"/>
      <point x="695.5308706698391" y="968.0437149655199" type="curve" smooth="yes"/>
      <point x="558.3519780618623" y="968.0437149655199"/>
      <point x="423.58874057345645" y="904.6307214582409"/>
      <point x="339.6349961688914" y="776.4110981167076" type="curve"/>
      <point x="389.4029519699963" y="1082.845666814534"/>
      <point x="562.2627737226279" y="1381.41295317982"/>
      <point x="926.1015848691374" y="1494.705770859378" type="curve"/>
      <point x="894.7814654998589" y="1556.8729685042545" type="line"/>
      <point x="432.2486187845304" y="1480.7777150461748"/>
      <point x="93.46102351090857" y="1064.4818324797354"/>
      <point x="93.46102351090857" y="600.6825422430134" type="curve" smooth="yes"/>
      <point x="93.46102351090857" y="280.9080937210146"/>
      <point x="256.9216840746865" y="-27.93237085131266"/>
    </contour>
    <contour>
      <point x="628.1903456063233" y="867.827398475622" type="curve" smooth="yes"/>
      <point x="809.7392426503206" y="867.2978989393878"/>
      <point x="885.5004637657782" y="690.427672702343"/>
      <point x="885.5004637657782" y="465.0567810622253" type="curve" smooth="yes"/>
      <point x="885.5004637657782" y="244.77670685970077"/>
      <point x="805.9134169455983" y="35.775295398636935"/>
      <point x="606.8570794854217" y="35.775295398636935" type="curve" smooth="yes"/>
      <point x="393.28338105415975" y="35.775295398636935"/>
      <point x="326.3979916925435" y="320.5703512521677"/>
      <point x="326.3979916925435" y="544.0594426745172" type="curve" smooth="yes"/>
      <point x="326.3979916925435" y="621.6814534016211"/>
      <point x="328.4320280679114" y="682.342783401218"/>
      <point x="330.9955639795137" y="707.7283945638585" type="curve"/>
      <point x="380.61317901359035" y="778.8647013751663"/>
      <point x="490.0013711336049" y="868.3568980118561"/>
    </contour>
  </outline>
</glyph>
<glyph name="seven" format="2">
  <advance width="1093.3346372545068"/>
  <unicode hex="0037"/>
  <outline>
    <contour>
      <point x="564.4880429084163" y="-1.43646408839779" type="line"/>
      <point x="1052.2636205992662" y="1438.1765939428155" type="line"/>
      <point x="1013.2226479009558" y="1486.0" type="line"/>
      <point x="107.62362382546276" y="1486.0" type="line"/>
      <point x="60.97842480945277" y="1087.170020567004" type="line"/>
      <point x="133.16336653627457" y="1073.399645118361" type="line"/>
      <point x="214.57910231076343" y="1311.2649917328708" type="line"/>
      <point x="924.4759043432674" y="1316.610961003347" type="line"/>
      <point x="736.0884784449732" y="889.2414404968343"/>
      <point x="529.8605476468928" y="441.9294672742671"/>
      <point x="312.3318949872969" y="0.0" type="curve"/>
    </contour>
  </outline>
</glyph>
<glyph name="eight" format="2">
  <advance width="1182.3053998467556"/>
  <unicode hex="0038"/>
  <outline>
    <contour>
      <point x="80.15280074202525" y="354.19522522885836" type="curve" smooth="yes"/>
      <point x="80.15280074202525" y="111.145824091624"/>
      <point x="304.76864136790743" y="-19.12707182320442"/>
      <point x="580.6563293946848" y="-19.12707182320442" type="curve" smooth="yes"/>
      <point x="865.7917086744364" y="-19.12707182320442"/>
      <point x="1102.1525991047306" y="136.05557123845625"/>
      <point x="1102.1525991047306" y="396.7167399282172" type="curve" smooth="yes"/>
      <point x="1102.1525991047306" y="600.7538008630074"/>
      <point x="943.0293583901279" y="708.7505343388314"/>
      <point x="741.8741783280236" y="806.0975521232409" type="curve"/>
      <point x="946.4913094325926" y="891.4917933621002"/>
      <point x="1049.646529822156" y="1032.175182481752"/>
      <point x="1049.646529822156" y="1182.9719724160182" type="curve" smooth="yes"/>
      <point x="1049.646529822156" y="1371.1760293583902"/>
      <point x="884.1692946727427" y="1504.5635359116022"/>
      <point x="618.4153324998993" y="1504.5635359116022" type="curve" smooth="yes"/>
      <point x="376.68407468645404" y="1504.5635359116022"/>
      <point x="150.16933500020167" y="1374.7236762511593"/>
      <point x="150.16933500020167" y="1124.670806952454" type="curve" smooth="yes"/>
      <point x="150.16933500020167" y="939.6454409807639"/>
      <point x="277.0696455216356" y="817.7952978182846"/>
      <point x="422.91934508206634" y="732.1401782473686" type="curve"/>
      <point x="194.3780296003549" y="660.7656974634028"/>
      <point x="80.15280074202525" y="511.27390410130255"/>
    </contour>
    <contour>
      <point x="338.3602451909505" y="1195.1891761100132" type="curve" smooth="yes"/>
      <point x="338.3602451909505" y="1351.147033915393"/>
      <point x="451.5492599911279" y="1442.9376940758964"/>
      <point x="608.5475259103924" y="1442.9376940758964" type="curve" smooth="yes"/>
      <point x="782.2105899907247" y="1442.9376940758964"/>
      <point x="874.1776424567487" y="1313.2321248538128"/>
      <point x="874.1776424567487" y="1151.347300076622" type="curve" smooth="yes"/>
      <point x="874.1776424567487" y="1020.0322216397144"/>
      <point x="808.9229342259143" y="897.4027100052426"/>
      <point x="683.1571157801347" y="834.3953704077106" type="curve"/>
      <point x="481.06589506795183" y="939.3787151671573"/>
      <point x="338.3602451909505" y="1024.3029398717586"/>
    </contour>
    <contour>
      <point x="892.6080170988425" y="312.69960075815624" type="curve" smooth="yes"/>
      <point x="892.6080170988425" y="149.6145904746542"/>
      <point x="758.216316489898" y="46.663265717627134"/>
      <point x="598.566157196435" y="46.663265717627134" type="curve" smooth="yes"/>
      <point x="401.3436302778562" y="46.663265717627134"/>
      <point x="271.6045086099125" y="193.3508488930113"/>
      <point x="271.6045086099125" y="386.376577811832" type="curve" smooth="yes"/>
      <point x="271.6045086099125" y="522.334274307376"/>
      <point x="343.331733677461" y="647.7473081421139"/>
      <point x="483.1155784973988" y="703.0114529983466" type="curve"/>
      <point x="703.4245271605436" y="589.175021171916"/>
      <point x="892.6080170988425" y="507.36306811307816"/>
    </contour>
  </outline>
</glyph>
<glyph name="nine" format="2">
  <advance width="1202.6409243053595"/>
  <unicode hex="0039"/>
  <outline>
    <contour>
      <point x="600.9070452070815" y="1504.5635359116022" type="curve" smooth="yes"/>
      <point x="292.80671048917213" y="1504.355809170464"/>
      <point x="81.29398717586805" y="1292.8054603379442"/>
      <point x="81.29398717586805" y="968.3814171069082" type="curve" smooth="yes"/>
      <point x="81.29398717586805" y="672.8135258297375"/>
      <point x="281.603903698028" y="498.60761382425295"/>
      <point x="514.0429890712586" y="498.60761382425295" type="curve" smooth="yes"/>
      <point x="648.3956123724643" y="498.60761382425295"/>
      <point x="781.7283542363996" y="560.5684558615961"/>
      <point x="859.5099407186354" y="691.2048231640924" type="curve"/>
      <point x="812.2216397144819" y="386.4288018711941"/>
      <point x="641.6717748114692" y="110.94047667056498"/>
      <point x="289.93333871032786" y="-1.6609267250070587" type="curve"/>
      <point x="320.6899221680042" y="-63.41267088760739" type="line"/>
      <point x="768.5415977739242" y="9.523974674355763"/>
      <point x="1109.179900794451" y="404.7400895269589"/>
      <point x="1109.179900794451" y="885.8606686292696" type="curve" smooth="yes"/>
      <point x="1109.179900794451" y="1202.1314675162316"/>
      <point x="956.0247610598058" y="1504.7712626527402"/>
    </contour>
    <contour>
      <point x="575.4369883453644" y="599.5951929668912" type="curve" smooth="yes"/>
      <point x="402.0776706859701" y="600.1246925031255"/>
      <point x="314.9996370528693" y="781.1901842964876"/>
      <point x="314.9996370528693" y="1011.3093922651933" type="curve" smooth="yes"/>
      <point x="314.9996370528693" y="1230.786143485099"/>
      <point x="402.4361414687261" y="1440.7418236076944"/>
      <point x="590.1246118482076" y="1440.5340968665564" type="curve" smooth="yes"/>
      <point x="821.4003710126225" y="1440.3263701254184"/>
      <point x="873.2508367947735" y="1147.0781142880187"/>
      <point x="873.2508367947736" y="917.0804129531798" type="curve" smooth="yes"/>
      <point x="873.2508367947736" y="847.8629269669718"/>
      <point x="871.0687179900794" y="787.4729604387629"/>
      <point x="868.2974553373392" y="760.5703512521676" type="curve"/>
      <point x="815.0508529257571" y="682.4853006412065"/>
      <point x="703.121546961326" y="599.065693430657"/>
    </contour>
  </outline>
</glyph>
<glyph name="colon" format="2">
  <advance width="540.8655885792637"/>
  <unicode hex="003A"/>
  <outline>
    <contour>
      <point x="260.16360850102836" y="764.630640803323" type="curve" smooth="yes"/>
      <point x="332.4923579465257" y="764.630640803323"/>
      <point x="392.3340323426221" y="815.4705004637657"/>
      <point x="392.3340323426221" y="893.8761543735129" type="curve" smooth="yes"/>
      <point x="392.3340323426221" y="952.2793483082631"/>
      <point x="356.3639956446345" y="1007.2120417792476"/>
      <point x="280.4478364318264" y="1007.2120417792476" type="curve" smooth="yes"/>
      <point x="210.4813082227689" y="1007.2120417792476"/>
      <point x="148.24978828084045" y="952.8893011251362"/>
      <point x="148.24978828084045" y="877.8184457797314" type="curve" smooth="yes"/>
      <point x="148.24978828084045" y="810.1924829616486"/>
      <point x="199.76041456627817" y="764.630640803323"/>
    </contour>
    <contour>
      <point x="260.37133524216637" y="-20.30939226519337" type="curve" smooth="yes"/>
      <point x="332.7000846876638" y="-20.30939226519337"/>
      <point x="392.54175908376016" y="30.53046739524942"/>
      <point x="392.54175908376016" y="108.93612130499658" type="curve" smooth="yes"/>
      <point x="392.54175908376016" y="167.33931523974675"/>
      <point x="356.57172238577255" y="222.27200871073114"/>
      <point x="280.65556317296443" y="222.27200871073114" type="curve" smooth="yes"/>
      <point x="210.68903496390695" y="222.27200871073114"/>
      <point x="148.45751502197848" y="167.94926805661973"/>
      <point x="148.45751502197848" y="92.95245392587813" type="curve" smooth="yes"/>
      <point x="148.45751502197848" y="25.252449893132233"/>
      <point x="199.9681413074162" y="-20.30939226519337"/>
    </contour>
  </outline>
</glyph>
<glyph name="semicolon" format="2">
  <advance width="499.90248820421823"/>
  <unicode hex="003B"/>
  <outline>
    <contour>
      <point x="256.750937613421" y="764.630640803323" type="curve" smooth="yes"/>
      <point x="329.00564584425535" y="764.630640803323"/>
      <point x="388.92136145501473" y="815.4705004637657"/>
      <point x="388.92136145501473" y="893.8761543735129" type="curve" smooth="yes"/>
      <point x="388.92136145501473" y="952.2793483082631"/>
      <point x="352.95132475702707" y="1007.2120417792476"/>
      <point x="277.035165544219" y="1007.2120417792476" type="curve" smooth="yes"/>
      <point x="207.06863733516153" y="1007.2120417792476"/>
      <point x="144.83711739323306" y="952.8893011251362"/>
      <point x="144.83711739323306" y="877.8184457797314" type="curve" smooth="yes"/>
      <point x="144.83711739323306" y="810.1924829616486"/>
      <point x="196.3477436786708" y="764.630640803323"/>
    </contour>
    <contour>
      <point x="259.54482397064163" y="261.72912045811995" type="curve"/>
      <point x="251.68447796104368" y="261.72912045811995" type="line" smooth="yes"/>
      <point x="193.4722345445014" y="261.72912045811995"/>
      <point x="148.59120054845343" y="223.01258216719765"/>
      <point x="148.59120054845343" y="158.57535185707948" type="curve" smooth="yes"/>
      <point x="148.59120054845343" y="44.983627051659475"/>
      <point x="267.56446344315844" y="42.91865951526395"/>
      <point x="267.56446344315844" y="-50.47283945638585" type="curve" smooth="yes"/>
      <point x="267.56446344315844" y="-171.5043755292979"/>
      <point x="201.24644110174617" y="-287.97890873896034"/>
      <point x="135.90591603823043" y="-346.871153768601" type="curve"/>
      <point x="135.90591603823043" y="-358.60950921482436" type="line"/>
      <point x="175.5076420534742" y="-385.39424123885954" type="line"/>
      <point x="176.97814251724" y="-385.1865144977215" type="line"/>
      <point x="289.3002379320079" y="-322.4788885752308"/>
      <point x="398.742347864661" y="-147.04282776142276"/>
      <point x="398.742347864661" y="47.78844215026012" type="curve" smooth="yes"/>
      <point x="398.742347864661" y="181.21538895834172"/>
      <point x="337.6832278098157" y="261.72912045811995"/>
    </contour>
  </outline>
</glyph>
<glyph name="less" format="2">
  <advance width="1323.2554744525548"/>
  <unicode hex="003C"/>
  <outline>
    <contour>
      <point x="1102.6277372262773" y="1067.029197080292" type="line"/>
      <point x="156.62773722627736" y="602.6590716618946" type="line"/>
      <point x="156.62773722627736" y="521.1292495059887" type="line"/>
      <point x="1102.6277372262773" y="60.97080291970803" type="line"/>
      <point x="1102.6277372262773" y="175.24966729846352" type="line"/>
      <point x="285.79336210025406" y="562.5255474452554" type="line"/>
      <point x="1102.6277372262773" y="954.158002984232" type="line"/>
    </contour>
  </outline>
</glyph>
<glyph name="equal" format="2">
  <advance width="1196.1388877686816"/>
  <unicode hex="003D"/>
  <outline>
    <contour>
      <point x="1035.3067709803604" y="894.4867121022705" type="line"/>
      <point x="160.83211678832117" y="894.4867121022705" type="line"/>
      <point x="160.83211678832117" y="794.0812598298181" type="line"/>
      <point x="1035.3067709803604" y="794.0812598298181" type="line"/>
    </contour>
    <contour>
      <point x="1035.3067709803604" y="373.0759366052345" type="line"/>
      <point x="160.83211678832117" y="373.0759366052345" type="line"/>
      <point x="160.83211678832117" y="272.67048433278217" type="line"/>
      <point x="1035.3067709803604" y="272.67048433278217" type="line"/>
    </contour>
  </outline>
</glyph>
<glyph name="greater" format="2">
  <advance width="1323.2554744525548"/>
  <unicode hex="003E"/>
  <outline>
    <contour>
      <point x="1166.6277372262773" y="530.3774246884703" type="line"/>
      <point x="1166.6277372262773" y="611.9072468443762" type="line"/>
      <point x="220.62773722627736" y="1076.2773722627737" type="line"/>
      <point x="220.62773722627736" y="963.4061781667136" type="line"/>
      <point x="1037.4621123523007" y="571.7737226277372" type="line"/>
      <point x="220.62773722627736" y="184.49784248094525" type="line"/>
      <point x="220.62773722627736" y="70.21897810218978" type="line"/>
    </contour>
  </outline>
</glyph>
<glyph name="question" format="2">
  <advance width="839.1686897608582"/>
  <unicode hex="003F"/>
  <outline>
    <contour>
      <point x="270.4147679154736" y="411.86409646328184" type="curve"/>
      <point x="360.6433842803565" y="411.86409646328184" type="line"/>
      <point x="348.11920796870584" y="506.67943702867274"/>
      <point x="339.8098963584305" y="588.3002379320078"/>
      <point x="339.8098963584305" y="674.4891720772674" type="curve" smooth="yes"/>
      <point x="339.66181392910437" y="697.1167479937089"/>
      <point x="341.78227204903817" y="729.6397548090495"/>
      <point x="346.852925757148" y="747.1390894059765" type="curve"/>
      <point x="424.94213009638264" y="909.1480017744083"/>
      <point x="787.1205387748518" y="987.6410452877362"/>
      <point x="787.1205387748518" y="1328.759366052345" type="curve" smooth="yes"/>
      <point x="787.1205387748518" y="1582.0779126507239"/>
      <point x="633.5233697624714" y="1782.2015566399161"/>
      <point x="263.11670766624997" y="1782.2015566399161" type="curve" smooth="yes"/>
      <point x="170.03407670282695" y="1782.2015566399161"/>
      <point x="67.98306246723394" y="1759.5595838206234"/>
      <point x="26.603782715651093" y="1734.7142799532203" type="curve"/>
      <point x="49.54720329072065" y="1636.3465741823609" type="line"/>
      <point x="87.590514981651" y="1654.1388474412227"/>
      <point x="160.8737750534339" y="1664.2737024640078"/>
      <point x="216.2606363673025" y="1664.2737024640078" type="curve" smooth="yes"/>
      <point x="471.82743880308095" y="1664.2737024640078"/>
      <point x="612.0325039319272" y="1508.7050449651167"/>
      <point x="612.0325039319272" y="1296.4429971367504" type="curve" smooth="yes"/>
      <point x="612.0325039319272" y="1147.9203935959997"/>
      <point x="549.8415937411784" y="1051.4526353994436"/>
      <point x="467.70371415897085" y="995.1468726055571" type="curve" smooth="yes"/>
      <point x="311.2659192644271" y="889.7273460499255"/>
      <point x="202.82824535226038" y="828.295317982014"/>
      <point x="203.0359720933984" y="716.0458119933863" type="curve"/>
      <point x="206.56087429931037" y="637.4446908900269"/>
      <point x="237.70968262289793" y="506.05746662902766"/>
    </contour>
    <contour>
      <point x="301.1910715005847" y="-20.30939226519337" type="curve" smooth="yes"/>
      <point x="374.2747509779408" y="-20.30939226519337"/>
      <point x="434.56793160462956" y="30.078961164657017"/>
      <point x="434.56793160462956" y="108.48461507440416" type="curve" smooth="yes"/>
      <point x="434.56793160462956" y="166.8137677944913"/>
      <point x="398.1463886760495" y="221.29495503488323"/>
      <point x="321.4752994313828" y="221.29495503488323" type="curve" smooth="yes"/>
      <point x="251.88623623825458" y="221.29495503488323"/>
      <point x="188.97382747913056" y="167.04625559543493"/>
      <point x="188.97382747913056" y="92.42690648062266" type="curve" smooth="yes"/>
      <point x="188.97382747913056" y="24.726902447876757"/>
      <point x="241.23938379642695" y="-20.30939226519337"/>
    </contour>
  </outline>
</glyph>
<glyph name="at" format="2">
  <advance width="2042.5497842480945"/>
  <unicode hex="0040"/>
  <outline>
    <contour>
      <point x="141.6080170988426" y="355.29927007299267" type="curve" smooth="yes"/>
      <point x="141.6080170988426" y="-188.86099124894142"/>
      <point x="447.3797636810905" y="-506.1988950276243"/>
      <point x="893.7527523490744" y="-506.1988950276243" type="curve" smooth="yes"/>
      <point x="1086.275718836956" y="-506.1988950276243"/>
      <point x="1269.047425091745" y="-446.5670847279913"/>
      <point x="1369.9935476065652" y="-362.22651933701655" type="curve"/>
      <point x="1346.8514739686254" y="-304.11073920232286" type="line"/>
      <point x="1248.4963100375046" y="-378.5513166915352"/>
      <point x="1078.2011936927852" y="-427.6092269226116"/>
      <point x="926.3537121425979" y="-427.6092269226116" type="curve" smooth="yes"/>
      <point x="548.8712344235189" y="-427.6092269226116"/>
      <point x="276.8895430898899" y="-118.18603056821388"/>
      <point x="276.8895430898899" y="384.424123885954" type="curve" smooth="yes"/>
      <point x="276.8895430898899" y="988.5845868451829"/>
      <point x="661.8333266120902" y="1430.7310158486914"/>
      <point x="1143.177400491995" y="1430.7310158486914" type="curve" smooth="yes"/>
      <point x="1483.5264749768119" y="1430.7310158486914"/>
      <point x="1801.5005444206963" y="1217.6762914868732"/>
      <point x="1801.5005444206963" y="746.210065733758" type="curve" smooth="yes"/>
      <point x="1801.5005444206963" y="332.29539863693185"/>
      <point x="1548.5753921845387" y="92.7505343388313"/>
      <point x="1424.4659837883617" y="92.7505343388313" type="curve" smooth="yes"/>
      <point x="1380.9880630721457" y="92.7505343388313"/>
      <point x="1356.3510505303059" y="142.6312860426665"/>
      <point x="1367.532080493608" y="312.02584990119766" type="curve" smooth="yes"/>
      <point x="1378.9312820099206" y="514.6933096745573"/>
      <point x="1434.184659434609" y="807.0329072065169"/>
      <point x="1469.0601685687786" y="959.3872645884583" type="curve"/>
      <point x="1383.844376335847" y="988.6138645803928"/>
      <point x="1367.3690365770053" y="994.5048997862644"/>
      <point x="1350.0430293987176" y="997.5474452554745" type="curve" smooth="yes"/>
      <point x="1329.4153728273582" y="1000.7866274146066"/>
      <point x="1317.084002097028" y="987.5343791587692"/>
      <point x="1304.3592370044762" y="950.814171069081" type="curve"/>
      <point x="1234.3205226438681" y="983.2577731177159"/>
      <point x="1146.6387466225754" y="1000.6902851151348"/>
      <point x="1079.3058837762633" y="1000.6902851151348" type="curve" smooth="yes"/>
      <point x="763.891841755051" y="1000.6902851151348"/>
      <point x="569.8909142234946" y="647.5658345767635"/>
      <point x="569.8909142234946" y="365.43045529701163" type="curve" smooth="yes"/>
      <point x="569.8909142234946" y="130.1889341452595"/>
      <point x="704.3967818687746" y="-9.090777110134294"/>
      <point x="838.4810259305561" y="-9.090777110134294" type="curve" smooth="yes"/>
      <point x="1002.8785740210508" y="-9.090777110134294"/>
      <point x="1134.3033431463484" y="212.94051699802395"/>
      <point x="1218.8892607976773" y="454.27051659474944" type="curve"/>
      <point x="1199.1252570875508" y="303.6699600758156"/>
      <point x="1192.681735693834" y="193.73504859458808"/>
      <point x="1195.340968665564" y="147.22668064685246" type="curve" smooth="yes"/>
      <point x="1201.0002016372948" y="45.81667137153688"/>
      <point x="1272.789934266242" y="-5.043190708553456"/>
      <point x="1349.3474613864578" y="-5.043190708553456" type="curve" smooth="yes"/>
      <point x="1542.3750050409324" y="-5.043190708553456"/>
      <point x="1917.9376134209786" y="265.5023188288906"/>
      <point x="1917.9376134209786" y="787.8463927087954" type="curve" smooth="yes"/>
      <point x="1917.9376134209786" y="1253.5164737669877"/>
      <point x="1625.1926039440254" y="1514.3184659434608"/>
      <point x="1202.5588579263622" y="1514.3184659434608" type="curve" smooth="yes"/>
      <point x="640.8355042948745" y="1514.3184659434608"/>
      <point x="141.6080170988426" y="1057.5315562366418"/>
    </contour>
    <contour>
      <point x="757.9651167479938" y="422.7214985683751" type="curve" smooth="yes"/>
      <point x="757.9651167479938" y="693.0778319958059"/>
      <point x="879.5265556317297" y="925.5022785014316"/>
      <point x="1046.2510787595274" y="925.5022785014316" type="curve" smooth="yes"/>
      <point x="1113.2835826914547" y="925.5022785014316"/>
      <point x="1214.3723837560995" y="883.0827922732587"/>
      <point x="1266.9231358632094" y="838.3324192442635" type="curve"/>
      <point x="1257.182522079284" y="768.0935597048029"/>
      <point x="1231.3346372545066" y="668.3089083356858"/>
      <point x="1205.5147396862521" y="590.38016695568" type="curve" smooth="yes"/>
      <point x="1117.5843448804292" y="323.78207041174335"/>
      <point x="987.2568455861596" y="125.86873412106301"/>
      <point x="891.6130983586723" y="125.86873412106301" type="curve" smooth="yes"/>
      <point x="807.0965439367666" y="125.86873412106301"/>
      <point x="757.9651167479938" y="260.00096785901513"/>
    </contour>
  </outline>
</glyph>
<glyph name="A" format="2">
  <advance width="1311.43287494455"/>
  <unicode hex="0041"/>
  <anchor x="632.4490865830544" y="0.0" name="bottom"/>
  <anchor x="1172.1972819292657" y="20.0" name="ogonek"/>
  <anchor x="661.0759366052343" y="1486.0" name="top"/>
  <outline>
    <contour>
      <point x="82.76686695971286" y="82.29422914062185" type="line"/>
      <point x="-47.21208210670645" y="52.960035488163896" type="line"/>
      <point x="-47.06399967738032" y="0.0" type="line"/>
      <point x="354.74662257531156" y="0.0" type="line"/>
      <point x="354.74662257531156" y="52.960035488163896" type="line"/>
      <point x="209.88889785054644" y="82.60362140581522" type="line"/>
      <point x="314.931927249264" y="442.600193571803" type="line"/>
      <point x="865.4046860507319" y="442.600193571803" type="line"/>
      <point x="975.3042303504456" y="82.44828003387506" type="line"/>
      <point x="831.19671734484" y="52.960035488163896" type="line"/>
      <point x="831.19671734484" y="0.0" type="line"/>
      <point x="1343.6078961164658" y="0.0" type="line"/>
      <point x="1343.6078961164658" y="52.960035488163896" type="line"/>
      <point x="1218.3383070532725" y="81.82509981046094" type="line"/>
      <point x="764.788321167883" y="1496.781263862564" type="line"/>
      <point x="569.1814332378916" y="1496.781263862564" type="line"/>
    </contour>
    <contour>
      <point x="839.792111949026" y="521.798161067871" type="line"/>
      <point x="339.4704601363068" y="521.798161067871" type="line"/>
      <point x="557.5019962092189" y="1197.0101625196596" type="line"/>
      <point x="600.6673387909826" y="1335.902931806267" type="line"/>
      <point x="638.3031818365124" y="1198.216598782111" type="line"/>
    </contour>
  </outline>
</glyph>
<glyph name="B" format="2">
  <advance width="1247.5797072226478"/>
  <unicode hex="0042"/>
  <anchor x="631.1840948501834" y="0.0" name="bottom"/>
  <anchor x="631.1840948501834" y="1486.0" name="top"/>
  <outline>
    <contour>
      <point x="188.3308464733637" y="81.67104891720776" type="line"/>
      <point x="37.20619429769731" y="52.75230874702586" type="line"/>
      <point x="37.20619429769731" y="0.0" type="line"/>
      <point x="293.5351050530307" y="0.0" type="line" smooth="yes"/>
      <point x="430.18268338911963" y="0.0"/>
      <point x="478.0435536556841" y="-12.0"/>
      <point x="590.6954873573417" y="-12.0" type="curve" smooth="yes"/>
      <point x="1063.9662055893857" y="-12.0"/>
      <point x="1208.7997741662296" y="201.7511795781748"/>
      <point x="1208.7997741662298" y="440.9251119086986" type="curve" smooth="yes"/>
      <point x="1208.7997741662296" y="647.8002984231963"/>
      <point x="1043.026656450377" y="785.6014033955721"/>
      <point x="799.4397709400331" y="779.8555470419809" type="curve"/>
      <point x="991.1856272936244" y="814.4743315723676"/>
      <point x="1111.2801951849017" y="974.8654272694278"/>
      <point x="1111.2801951849017" y="1162.1913941202563" type="curve" smooth="yes"/>
      <point x="1111.2801951849015" y="1369.7990482719683"/>
      <point x="946.625801508247" y="1501.4364640883978"/>
      <point x="597.3405653909747" y="1501.4364640883978" type="curve" smooth="yes"/>
      <point x="491.7915876920596" y="1501.4364640883978"/>
      <point x="419.844497318224" y="1486.0"/>
      <point x="298.1538895834173" y="1486.0" type="curve" smooth="yes"/>
      <point x="38.99451546558051" y="1486.0" type="line"/>
      <point x="38.99451546558051" y="1432.8630882768075" type="line"/>
      <point x="188.3308464733637" y="1402.8592168407472" type="line"/>
    </contour>
    <contour>
      <point x="406.4905432108723" y="807.6353591160221" type="curve"/>
      <point x="407.0200427471065" y="1423.073315320402" type="line"/>
      <point x="443.7188369560834" y="1426.3183852885431"/>
      <point x="498.11953058837764" y="1436.3060047586403"/>
      <point x="579.7208533290318" y="1436.3060047586403" type="curve" smooth="yes"/>
      <point x="793.9394281566318" y="1436.3060047586403"/>
      <point x="888.9414042021214" y="1341.2980602492237"/>
      <point x="888.9414042021212" y="1144.433399201516" type="curve" smooth="yes"/>
      <point x="888.9414042021214" y="934.0021776827841"/>
      <point x="803.4309795539783" y="805.07182320442"/>
      <point x="619.401016251966" y="805.07182320442" type="curve" smooth="yes"/>
      <point x="569.0168568778482" y="805.07182320442"/>
      <point x="462.65939428156634" y="803.635359116022"/>
    </contour>
    <contour>
      <point x="405.96104367463806" y="76.87099245876517" type="curve"/>
      <point x="406.4905432108723" y="727.6340283098763" type="line"/>
      <point x="461.75242972940276" y="731.5999919345084"/>
      <point x="574.1006976650401" y="731.464290035085"/>
      <point x="643.2897124652175" y="731.464290035085" type="curve" smooth="yes"/>
      <point x="866.1188450215753" y="731.464290035085"/>
      <point x="968.5144977214985" y="627.6263257652136"/>
      <point x="968.5144977214985" y="417.16824615880955" type="curve" smooth="yes"/>
      <point x="968.5144977214984" y="207.7585998306247"/>
      <point x="887.8353833124974" y="54.952816873008835"/>
      <point x="596.8099366858895" y="54.952816873008835" type="curve" smooth="yes"/>
      <point x="530.4085978142517" y="54.952816873008835"/>
      <point x="453.46469330967454" y="61.260838004597346"/>
    </contour>
  </outline>
</glyph>
<glyph name="C" format="2">
  <advance width="1257.2153889583417"/>
  <unicode hex="0043"/>
  <anchor x="690.5419607210548" y="0.0" name="bottom"/>
  <anchor x="698.9949993950883" y="1486.0" name="top"/>
  <outline>
    <contour>
      <point x="705.439690285115" y="-20.941000927531555" type="curve" smooth="yes"/>
      <point x="965.951526394322" y="-20.941000927531555"/>
      <point x="1024.988063072146" y="50.312618461910716"/>
      <point x="1131.283340726701" y="54.0" type="curve"/>
      <point x="1172.8692583780296" y="362.72988667984026" type="line"/>
      <point x="1067.242126063637" y="378.3131427188773" type="line"/>
      <point x="987.3989595515587" y="158.06960519417672" type="line"/>
      <point x="943.7944106141873" y="107.90962616445539"/>
      <point x="868.6558857926362" y="45.75884179537848"/>
      <point x="738.6193087873532" y="45.75884179537848" type="curve" smooth="yes"/>
      <point x="399.34403355244586" y="45.75884179537848"/>
      <point x="280.8075170383514" y="389.3237891680445"/>
      <point x="280.8075170383514" y="753.533330644836" type="curve" smooth="yes"/>
      <point x="280.8075170383514" y="1190.8070734363027"/>
      <point x="455.78440940436343" y="1434.4088801064645"/>
      <point x="748.81771988547" y="1434.4088801064645" type="curve" smooth="yes"/>
      <point x="872.6928660725088" y="1434.4088801064645"/>
      <point x="951.2327297656975" y="1395.2569665685367"/>
      <point x="980.8692987054886" y="1357.068355042949" type="curve"/>
      <point x="1021.8800661370328" y="1080.0145985401462" type="line"/>
      <point x="1152.4146872605556" y="1080.0145985401462" type="line"/>
      <point x="1176.974674355769" y="1439.5692624107755" type="line"/>
      <point x="1076.1503004395695" y="1442.3189498729687"/>
      <point x="972.675525265153" y="1503.0386337056902"/>
      <point x="746.1269911682865" y="1503.0386337056902" type="curve" smooth="yes"/>
      <point x="334.41565511957094" y="1503.0386337056902"/>
      <point x="37.40847683187482" y="1189.983183449611"/>
      <point x="37.40847683187482" y="729.0196394725169" type="curve" smooth="yes"/>
      <point x="37.40847683187482" y="296.71133604871557"/>
      <point x="264.9405976529419" y="-20.941000927531555"/>
    </contour>
  </outline>
</glyph>
<glyph name="D" format="2">
  <advance width="1396.5258700649274"/>
  <unicode hex="0044"/>
  <anchor x="715.5623664152921" y="0.0" name="bottom"/>
  <anchor x="722.3717385167561" y="764.0" name="center"/>
  <anchor x="290.87458160261326" y="763.0" name="lstem"/>
  <anchor x="715.5623664152921" y="1486.0" name="top"/>
  <outline>
    <contour>
      <point x="183.49130943259266" y="82.70968262289794" type="line"/>
      <point x="37.20619429769731" y="52.75230874702586" type="line"/>
      <point x="37.20619429769731" y="0.0" type="line"/>
      <point x="283.7556962535791" y="0.0" type="line" smooth="yes"/>
      <point x="358.33754083155225" y="0.0"/>
      <point x="511.1284429568094" y="-15.514457394039601"/>
      <point x="621.6758478848249" y="-16.529499536234226" type="curve" smooth="yes"/>
      <point x="1058.7381941363878" y="-21.234504173892002"/>
      <point x="1349.9182562406743" y="304.8568375206678"/>
      <point x="1349.9182562406743" y="787.9684235996291" type="curve" smooth="yes"/>
      <point x="1349.9182562406743" y="1198.1129168851069"/>
      <point x="1151.5047788038873" y="1498.5071984514257"/>
      <point x="633.59406379804" y="1498.5071984514257" type="curve" smooth="yes"/>
      <point x="518.2167197644877" y="1498.5071984514257"/>
      <point x="383.2276888333266" y="1486.0"/>
      <point x="280.43529459208787" y="1486.0" type="curve" smooth="yes"/>
      <point x="41.18195749485824" y="1486.0" type="line"/>
      <point x="41.18195749485824" y="1432.9371294914708" type="line"/>
      <point x="183.49130943259266" y="1402.9332580554096" type="line"/>
    </contour>
    <contour>
      <point x="400.7997338387708" y="78.22486591119895" type="curve"/>
      <point x="400.7997338387709" y="1415.665766020083" type="line"/>
      <point x="425.56454409807634" y="1417.665766020083"/>
      <point x="510.0594426745172" y="1431.1585675686576"/>
      <point x="588.8751058595799" y="1431.1585675686576" type="curve" smooth="yes"/>
      <point x="945.6499979836271" y="1431.1585675686576"/>
      <point x="1118.1974432391016" y="1195.2097431140865"/>
      <point x="1118.1974432391016" y="756.964794128322" type="curve" smooth="yes"/>
      <point x="1118.1974432391016" y="316.7881195305884"/>
      <point x="926.295317982014" y="54.07198451425577"/>
      <point x="604.4394886478203" y="51.848570391579635" type="curve" smooth="yes"/>
      <point x="540.3021736500382" y="51.26337863451224"/>
      <point x="452.57059321692134" y="61.07016977860224"/>
    </contour>
  </outline>
</glyph>
<glyph name="E" format="2">
  <advance width="1210.5945477275475"/>
  <unicode hex="0045"/>
  <anchor x="613.8684115013913" y="0.0" name="bottom"/>
  <anchor x="1021.2082509981047" y="20.0" name="ogonek"/>
  <anchor x="626.297656974634" y="1486.0" name="top"/>
  <anchor x="27.696253579061985" y="1486.0" name="topleft"/>
  <outline>
    <contour>
      <point x="183.71343307658188" y="82.63564140823487" type="line"/>
      <point x="37.4283179416865" y="52.752308747025864" type="line"/>
      <point x="37.4283179416865" y="0.0" type="line"/>
      <point x="1117.8137677944915" y="0.0" type="line"/>
      <point x="1185.5581320321007" y="361.5862402710005" type="line"/>
      <point x="1080.999838690164" y="387.2492640238739" type="line"/>
      <point x="953.0853732306327" y="98.0679114409001" type="line"/>
      <point x="402.0296406823406" y="67.14025890228656" type="line"/>
      <point x="402.0296406823406" y="731.7107311368311" type="line"/>
      <point x="735.8017502117191" y="718.6935516393113" type="line"/>
      <point x="780.0786385449852" y="523.0865830544018" type="line"/>
      <point x="847.8074767108924" y="523.0865830544018" type="line"/>
      <point x="847.8074767108924" y="998.3290317377102" type="line"/>
      <point x="780.0786385449852" y="998.3290317377102" type="line"/>
      <point x="735.6536677823929" y="810.0148405048997" type="line"/>
      <point x="402.0296406823406" y="795.3351211840142" type="line"/>
      <point x="402.0296406823406" y="1419.6028148566359" type="line"/>
      <point x="882.428761543735" y="1401.4575553494374" type="line"/>
      <point x="974.2981409041419" y="1170.182522079284" type="line"/>
      <point x="1067.5945477275477" y="1170.182522079284" type="line"/>
      <point x="1038.4222284953826" y="1486.0" type="line"/>
      <point x="38.69835060692825" y="1486.0" type="line"/>
      <point x="38.69835060692825" y="1432.9371294914706" type="line"/>
      <point x="183.71343307658188" y="1402.93325805541" type="line"/>
    </contour>
  </outline>
</glyph>
<glyph name="F" format="2">
  <advance width="1119.5288139694317"/>
  <unicode hex="0046"/>
  <anchor x="359.3328628463121" y="0.0" name="bottom"/>
  <anchor x="635.3903698027988" y="1486.0" name="top"/>
  <outline>
    <contour>
      <point x="184.76452796709282" y="81.4633221760697" type="line"/>
      <point x="40.13735532524095" y="52.960035488163896" type="line"/>
      <point x="40.13735532524095" y="0.0" type="line"/>
      <point x="639.386296729443" y="0.0" type="line"/>
      <point x="639.386296729443" y="52.960035488163896" type="line"/>
      <point x="402.85861192886233" y="81.4633221760697" type="line"/>
      <point x="402.85861192886233" y="717.8776061620357" type="line"/>
      <point x="745.229624551357" y="707.4378352220026" type="line"/>
      <point x="790.4560229059966" y="511.1644957051256" type="line"/>
      <point x="856.6750010081864" y="511.1644957051256" type="line"/>
      <point x="856.6750010081864" y="988.7762632576522" type="line"/>
      <point x="790.5897084324716" y="988.7762632576522" type="line"/>
      <point x="745.229624551357" y="800.0323426220914" type="line"/>
      <point x="402.85861192886233" y="788.5296205186112" type="line"/>
      <point x="402.85861192886233" y="1418.3360890430297" type="line"/>
      <point x="883.9365649070452" y="1401.087349276122" type="line"/>
      <point x="974.5188127596078" y="1158.0562164777996" type="line"/>
      <point x="1072.9022462394646" y="1158.0562164777996" type="line"/>
      <point x="1047.2521676009196" y="1486.0" type="line"/>
      <point x="37.94342057506955" y="1486.0" type="line"/>
      <point x="37.94342057506955" y="1432.9371294914708" type="line"/>
      <point x="184.76452796709282" y="1402.9332580554099" type="line"/>
    </contour>
  </outline>
</glyph>
<glyph name="G" format="2">
  <advance width="1370.9068838972457"/>
  <unicode hex="0047"/>
  <anchor x="698.9658023147962" y="0.0" name="bottom"/>
  <anchor x="1147.1317772311168" y="348.1690930354478" name="rstem"/>
  <anchor x="758.9658023147962" y="1486.0" name="top"/>
  <outline>
    <contour>
      <point x="701.0628705085294" y="-20.941000927531555" type="curve" smooth="yes"/>
      <point x="1002.04879622535" y="-20.941000927531555"/>
      <point x="1115.463281848611" y="76.83090696455217"/>
      <point x="1240.7537605355487" y="80.0" type="curve"/>
      <point x="1240.7537605355487" y="624.3141105778924" type="line"/>
      <point x="1353.231237649716" y="644.6214864701376" type="line"/>
      <point x="1353.231237649716" y="722.3045529701174" type="line"/>
      <point x="801.1747792071623" y="722.3045529701174" type="line"/>
      <point x="801.1747792071623" y="644.6214864701376" type="line"/>
      <point x="1033.1718756301163" y="623.9439045045773" type="line"/>
      <point x="1033.1718756301163" y="147.2443440738799" type="line"/>
      <point x="967.6627414606606" y="88.95947090373835"/>
      <point x="855.2632173246764" y="45.955478485300645"/>
      <point x="734.9449933459694" y="45.955478485300645" type="curve" smooth="yes"/>
      <point x="393.29931040045165" y="45.955478485300645"/>
      <point x="285.4042021212244" y="398.64116627011333"/>
      <point x="285.81965560350045" y="756.5582933419365" type="curve" smooth="yes"/>
      <point x="286.2351090857765" y="1193.1531636891564"/>
      <point x="452.4879622534984" y="1436.2823325402267"/>
      <point x="765.6401580836391" y="1436.2823325402267" type="curve" smooth="yes"/>
      <point x="912.7127071823204" y="1436.2823325402267"/>
      <point x="993.8063878695002" y="1392.9108763156835"/>
      <point x="1022.4698552244225" y="1356.4542484978022" type="curve"/>
      <point x="1069.0201637294836" y="1082.9617292414405" type="line"/>
      <point x="1201.6229785861194" y="1082.9617292414403" type="line"/>
      <point x="1225.505383715772" y="1438.5399443481065" type="line"/>
      <point x="1130.8815985804733" y="1442.7443239101501"/>
      <point x="1008.682945517603" y="1503.2607573496794"/>
      <point x="760.848126789531" y="1503.2607573496794" type="curve" smooth="yes"/>
      <point x="328.82393031415086" y="1503.2607573496794"/>
      <point x="41.11666733879098" y="1198.7839254748556"/>
      <point x="41.11666733879098" y="725.3891196515707" type="curve" smooth="yes"/>
      <point x="41.11666733879098" y="309.50877122232527"/>
      <point x="260.7717869097068" y="-20.941000927531555"/>
    </contour>
  </outline>
</glyph>
<glyph name="H" format="2">
  <advance width="1468.2509981046094"/>
  <unicode hex="0048"/>
  <anchor x="750.4680404887688" y="0.0" name="bottom"/>
  <anchor x="1433.1588498608703" y="0.0" name="bottomright"/>
  <anchor x="734.2195426866152" y="747.3622615638989" name="center"/>
  <anchor x="733.8107029076099" y="1486.0" name="top"/>
  <anchor x="1.1373149977819899" y="1486.0" name="topleft"/>
  <outline>
    <contour>
      <point x="181.69254345283704" y="81.38928096140663" type="line"/>
      <point x="37.20619429769731" y="52.960035488163896" type="line"/>
      <point x="37.20619429769731" y="0.0" type="line"/>
      <point x="552.0297213372586" y="0.0" type="line"/>
      <point x="552.0297213372586" y="52.960035488163896" type="line"/>
      <point x="400.12803968221965" y="81.38928096140663" type="line"/>
      <point x="400.12803968221965" y="723.4054119449933" type="line"/>
      <point x="1068.1969996370526" y="723.4054119449933" type="line"/>
      <point x="1068.1969996370526" y="81.46332217606971" type="line"/>
      <point x="917.8692987054885" y="52.9600354881639" type="line"/>
      <point x="917.8692987054885" y="0.0" type="line"/>
      <point x="1431.0448038069121" y="0.0" type="line"/>
      <point x="1431.0448038069121" y="52.9600354881639" type="line"/>
      <point x="1286.5584546517723" y="81.38928096140663" type="line"/>
      <point x="1286.5584546517723" y="1403.0072992700727" type="line"/>
      <point x="1429.0081058192525" y="1432.9371294914706" type="line"/>
      <point x="1429.0081058192525" y="1486.0" type="line"/>
      <point x="918.2467637214179" y="1486.0" type="line"/>
      <point x="918.2467637214179" y="1432.9371294914706" type="line"/>
      <point x="1068.1969996370526" y="1402.9332580554099" type="line"/>
      <point x="1068.1969996370526" y="802.462959228939" type="line"/>
      <point x="400.12803968221965" y="802.462959228939" type="line"/>
      <point x="400.12803968221965" y="1403.0072992700727" type="line"/>
      <point x="551.3704883655281" y="1432.9371294914706" type="line"/>
      <point x="551.3704883655281" y="1486.0" type="line"/>
      <point x="38.961124329555986" y="1486.0" type="line"/>
      <point x="38.961124329555986" y="1432.9371294914706" type="line"/>
      <point x="181.69254345283704" y="1403.0072992700727" type="line"/>
    </contour>
  </outline>
</glyph>
<glyph name="I" format="2">
  <advance width="612.9797152881397"/>
  <unicode hex="0049"/>
  <anchor x="305.7913457273057" y="0.0" name="bottom"/>
  <anchor x="358.05327257329515" y="20.0" name="ogonek"/>
  <anchor x="305.7913457273058" y="1486.0" name="top"/>
  <anchor x="23.360124208573616" y="1486.0" name="topleft"/>
  <outline>
    <contour>
      <point x="197.6460055651894" y="81.46332217606971" type="line"/>
      <point x="46.65717627132315" y="52.9600354881639" type="line"/>
      <point x="46.65717627132315" y="0.0" type="line"/>
      <point x="566.4706214461426" y="0.0" type="line"/>
      <point x="566.4706214461426" y="52.43448804290842" type="line"/>
      <point x="415.49300318586927" y="81.38928096140663" type="line"/>
      <point x="415.49300318586927" y="1402.93325805541" type="line"/>
      <point x="566.2628947050046" y="1432.9371294914706" type="line"/>
      <point x="566.2628947050046" y="1486.0" type="line"/>
      <point x="46.71682058313505" y="1486.0" type="line"/>
      <point x="46.71682058313505" y="1432.9371294914706" type="line"/>
      <point x="197.6460055651894" y="1402.93325805541" type="line"/>
    </contour>
  </outline>
</glyph>
<glyph name="J" format="2">
  <advance width="612.9797152881397"/>
  <unicode hex="004A"/>
  <anchor x="292.78662741460664" y="1486.0" name="top"/>
  <outline>
    <contour>
      <point x="-83.8893011251361" y="-299.7070613380651" type="curve"/>
      <point x="-39.93866193491148" y="-357.5524861878453" type="line"/>
      <point x="162.22490623865787" y="-325.00540387950156"/>
      <point x="338.62172843489134" y="-179.62693067709802"/>
      <point x="386.42811630439166" y="36.21901842964874" type="curve" smooth="yes"/>
      <point x="411.38811146509653" y="151.4842117998145"/>
      <point x="408.4345283703674" y="322.194459007138"/>
      <point x="408.4345283703674" y="510.8170343186676" type="curve" smooth="yes"/>
      <point x="408.4345283703674" y="1402.6298342541436" type="line"/>
      <point x="555.6271323143928" y="1432.9371294914708" type="line"/>
      <point x="555.6271323143928" y="1486.0" type="line"/>
      <point x="32.80570230269792" y="1486.0" type="line"/>
      <point x="32.80570230269792" y="1432.9371294914708" type="line"/>
      <point x="190.07307335564784" y="1402.4817518248176" type="line"/>
      <point x="190.07307335564784" y="457.7662620478284" type="line" smooth="yes"/>
      <point x="190.07307335564784" y="184.2800742025245"/>
      <point x="182.9736258418357" y="70.0382707585595"/>
      <point x="152.68653466145096" y="-34.381618744202925" type="curve" smooth="yes"/>
      <point x="111.11392507158122" y="-177.27152478122355"/>
      <point x="28.312860426664503" y="-265.2143404444086"/>
    </contour>
  </outline>
</glyph>
<glyph name="K" format="2">
  <advance width="1336.2236964148888"/>
  <unicode hex="004B"/>
  <anchor x="730.3333871032787" y="0.0" name="bottom"/>
  <anchor x="767.4236399564462" y="1485.1546961325967" name="top"/>
  <outline>
    <contour>
      <point x="1033.2812840262936" y="0.0" type="curve"/>
      <point x="1333.2948743799652" y="0.20772674113804088" type="line"/>
      <point x="1333.2948743799652" y="52.71625599870953" type="line"/>
      <point x="1252.9593095939026" y="81.04988506674195" type="line"/>
      <point x="1158.081461467113" y="127.36250352865267"/>
      <point x="838.6476993184658" y="792.4741299350728"/>
      <point x="687.0755333306448" y="908.041254990523" type="curve"/>
      <point x="652.040166149131" y="812.8968423599629" type="line"/>
      <point x="1129.3323789168046" y="1403.4431181191273" type="line"/>
      <point x="1273.1017461789731" y="1432.3879904827197" type="line"/>
      <point x="1273.1017461789731" y="1486.207726741138" type="line"/>
      <point x="835.5968060652499" y="1486.0" type="line"/>
      <point x="835.5968060652499" y="1432.7294027503328" type="line"/>
      <point x="998.4557002863249" y="1402.9332580554099" type="line"/>
      <point x="356.65568415534136" y="563.6575795459128" type="line"/>
      <point x="401.9268056619752" y="571.385167560592" type="line"/>
      <point x="401.9268056619752" y="1402.9332580554099" type="line"/>
      <point x="554.4767512199057" y="1432.9371294914708" type="line"/>
      <point x="554.4767512199057" y="1486.0" type="line"/>
      <point x="38.77239182159133" y="1486.0" type="line"/>
      <point x="38.77239182159133" y="1432.9371294914708" type="line"/>
      <point x="183.56535064725568" y="1402.9332580554099" type="line"/>
      <point x="183.56535064725568" y="81.25559543493165" type="line"/>
      <point x="37.20619429769731" y="53.489535024398116" type="line"/>
      <point x="37.20619429769731" y="0.0" type="line"/>
      <point x="561.4767108924466" y="0.0" type="line"/>
      <point x="561.4767108924466" y="52.50852925757148" type="line"/>
      <point x="401.9268056619752" y="81.18155422026858" type="line"/>
      <point x="401.9268056619752" y="560.4100899302335" type="line"/>
      <point x="356.3058434488043" y="448.97023833528243" type="line"/>
      <point x="627.4720329072065" y="781.5155059079727" type="line"/>
      <point x="554.4913900875107" y="751.0106061217083" type="line"/>
      <point x="688.7604548937372" y="615.3532282130905"/>
      <point x="953.5704319070858" y="0.0"/>
    </contour>
  </outline>
</glyph>
<glyph name="L" format="2">
  <advance width="1132.090777110134"/>
  <unicode hex="004C"/>
  <anchor x="642.6953260475058" y="0.0" name="bottom"/>
  <anchor x="629.6170101221923" y="744.0" name="center"/>
  <anchor x="370.0424244868331" y="1486.0" name="top"/>
  <anchor x="864.304915917248" y="1110.3558091704642" name="topright"/>
  <outline>
    <contour>
      <point x="183.4172682179296" y="82.63564140823486" type="line"/>
      <point x="37.20619429769731" y="52.75230874702586" type="line"/>
      <point x="37.20619429769731" y="0.0" type="line"/>
      <point x="1043.8756301165465" y="0.0" type="line"/>
      <point x="1115.2368834939714" y="429.7202484171473" type="line"/>
      <point x="1010.2908013066095" y="446.52030487558983" type="line"/>
      <point x="876.1887325079647" y="108.79082147033915" type="line"/>
      <point x="401.5113521796992" y="76.7929588256644" type="line"/>
      <point x="402.0408517159334" y="1402.9332580554099" type="line"/>
      <point x="572.0191152155503" y="1432.9371294914708" type="line"/>
      <point x="572.0191152155503" y="1486.0" type="line"/>
      <point x="38.84643303625438" y="1486.0" type="line"/>
      <point x="38.84643303625438" y="1432.9371294914708" type="line"/>
      <point x="183.4172682179296" y="1402.9332580554099" type="line"/>
    </contour>
  </outline>
</glyph>
<glyph name="M" format="2">
  <advance width="1828.0175827721096"/>
  <unicode hex="004D"/>
  <anchor x="909.2256724603784" y="0.0" name="bottom"/>
  <anchor x="1848.2652336976248" y="0.0" name="bottomright"/>
  <anchor x="913.5838206234625" y="1486.0" name="top"/>
  <outline>
    <contour>
      <point x="137.26934709843934" y="77.47505746662902" type="line"/>
      <point x="-19.26930677098036" y="52.54458200588782" type="line"/>
      <point x="-19.26930677098036" y="0.0" type="line"/>
      <point x="434.3000362947131" y="0.0" type="line"/>
      <point x="434.3000362947131" y="52.54458200588782" type="line"/>
      <point x="254.76602008307455" y="77.5490986812921" type="line"/>
      <point x="357.0565390974715" y="1022.2318022341412" type="line"/>
      <point x="397.46098318344957" y="1402.5499052304715" type="line"/>
      <point x="504.21905875710775" y="1025.0745251441706" type="line"/>
      <point x="772.9672137758599" y="67.77348066298343" type="line"/>
      <point x="948.0970278662742" y="67.77348066298343" type="line"/>
      <point x="1234.9593095939026" y="1060.7119409606" type="line"/>
      <point x="1323.8463927087955" y="1402.4758640158084" type="line"/>
      <point x="1361.4722345445011" y="1021.8163487518651" type="line"/>
      <point x="1458.3315320401664" y="77.75682542243014" type="line"/>
      <point x="1288.3869822962456" y="52.960035488163896" type="line"/>
      <point x="1288.3869822962456" y="0.0" type="line"/>
      <point x="1847.2868895430897" y="0.0" type="line"/>
      <point x="1847.2868895430897" y="52.54458200588782" type="line"/>
      <point x="1687.8476025325647" y="79.26733072549098" type="line"/>
      <point x="1525.081380812195" y="1401.022986651611" type="line"/>
      <point x="1695.7179497519862" y="1433.674355768843" type="line"/>
      <point x="1695.7179497519862" y="1486.0" type="line"/>
      <point x="1243.7281525991048" y="1486.0" type="line"/>
      <point x="994.2756381820382" y="559.7170625478889" type="line"/>
      <point x="922.1603419768521" y="249.53784732024036" type="line"/>
      <point x="847.3497600516191" y="558.8861555833369" type="line"/>
      <point x="599.6332217606969" y="1486.0" type="line"/>
      <point x="132.5416784288422" y="1486.0" type="line"/>
      <point x="132.5416784288422" y="1433.674355768843" type="line"/>
      <point x="312.1293704883655" y="1401.022986651611" type="line"/>
    </contour>
  </outline>
</glyph>
<glyph name="N" format="2">
  <advance width="1415.0054442069609"/>
  <unicode hex="004E"/>
  <anchor x="716.9568092914466" y="0.0" name="bottom"/>
  <anchor x="717.9580997701333" y="1486.0" name="top"/>
  <outline>
    <contour>
      <point x="183.47308142113965" y="86.54446102351092" type="line"/>
      <point x="26.26938742589829" y="52.54458200588782" type="line"/>
      <point x="26.26938742589829" y="0.0" type="line"/>
      <point x="454.791103762552" y="0.0" type="line"/>
      <point x="454.791103762552" y="52.54458200588782" type="line"/>
      <point x="288.00334717909425" y="86.24103722224464" type="line"/>
      <point x="276.2403113279832" y="1289.401500181474" type="line"/>
      <point x="398.27592047425094" y="1074.274912287777" type="line"/>
      <point x="1075.1749001895391" y="0.0" type="line"/>
      <point x="1239.5909585836994" y="0.0" type="line"/>
      <point x="1249.6514497721498" y="1398.3232649110782" type="line"/>
      <point x="1402.4199701576802" y="1432.9371294914706" type="line"/>
      <point x="1402.4199701576802" y="1486.0" type="line"/>
      <point x="985.6981489696335" y="1486.0" type="line"/>
      <point x="985.6981489696335" y="1432.9371294914706" type="line"/>
      <point x="1145.5766423357663" y="1398.3232649110782" type="line"/>
      <point x="1155.8448602653546" y="232.17227890470627" type="line"/>
      <point x="1029.5123200387143" y="471.0462152679761" type="line"/>
      <point x="390.42803564947366" y="1486.0" type="line"/>
      <point x="36.953058837762626" y="1486.0" type="line"/>
      <point x="36.953058837762626" y="1429.1980481509859" type="line"/>
      <point x="92.80755736581038" y="1421.9155543009235"/>
      <point x="174.4059765294189" y="1373.558817598903"/>
      <point x="191.83102794692905" y="1346.8355446223336" type="curve"/>
    </contour>
  </outline>
</glyph>
<glyph name="O" format="2">
  <advance width="1391.4643706900026"/>
  <unicode hex="004F"/>
  <anchor x="702.4534822760818" y="1.7763568394002505e-15" name="bottom"/>
  <anchor x="696.4654595313949" y="741.0" name="center"/>
  <anchor x="791.3029398717586" y="14.70500463765778" name="ogonek"/>
  <anchor x="840.1708234463846" y="0.0" name="qq"/>
  <anchor x="700.3264507803362" y="1486.0" name="top"/>
  <anchor x="19.072266806468523" y="1486.0" name="topleft"/>
  <anchor x="1243.9083356857684" y="1486.0" name="topright"/>
  <outline>
    <contour>
      <point x="682.7255716417308" y="-22.830906964552163" type="curve" smooth="yes"/>
      <point x="1078.7343227003266" y="-21.28765576481026"/>
      <point x="1348.3089889906037" y="281.29293866193495"/>
      <point x="1348.3089889906037" y="764.5621647779973" type="curve" smooth="yes"/>
      <point x="1348.3089889906037" y="1209.8781304190024"/>
      <point x="1137.944267451708" y="1502.9049481792151"/>
      <point x="714.5166754042828" y="1503.0530306085416" type="curve" smooth="yes"/>
      <point x="315.2222042989072" y="1503.1270718232045"/>
      <point x="43.15538169939913" y="1209.4926805661976"/>
      <point x="43.15538169939913" y="725.7299270072991" type="curve" smooth="yes"/>
      <point x="43.15538169939913" y="285.1317498084446"/>
      <point x="255.42771302980202" y="-24.44819937895713"/>
    </contour>
    <contour>
      <point x="697.8658708714764" y="1437.4310602088963" type="curve" smooth="yes"/>
      <point x="969.0163729483405" y="1437.4310602088963"/>
      <point x="1108.7879178932935" y="1163.182239787071"/>
      <point x="1108.7879178932935" y="764.4140823486712" type="curve" smooth="yes"/>
      <point x="1108.7879178932935" y="285.7046013630681"/>
      <point x="945.793281445336" y="42.93914586441908"/>
      <point x="692.9189014800178" y="42.93914586441908" type="curve" smooth="yes"/>
      <point x="420.8038069121264" y="42.93914586441908"/>
      <point x="281.84748155018747" y="304.92656369722147"/>
      <point x="281.84748155018747" y="725.8039682219622" type="curve" smooth="yes"/>
      <point x="281.84748155018747" y="1203.70218171553"/>
      <point x="443.74513045932974" y="1437.4310602088963"/>
    </contour>
  </outline>
</glyph>
<glyph name="P" format="2">
  <advance width="1184.8496189055127"/>
  <unicode hex="0050"/>
  <anchor x="350.0889220470218" y="0.0" name="bottom"/>
  <anchor x="623.5470823083436" y="1486.0" name="top"/>
  <outline>
    <contour>
      <point x="182.88776868169535" y="82.12650723877888" type="line"/>
      <point x="37.20619429769731" y="52.75230874702586" type="line"/>
      <point x="37.20619429769731" y="0.0" type="line"/>
      <point x="614.4575553494374" y="0.0" type="line"/>
      <point x="614.4575553494374" y="52.960035488163896" type="line"/>
      <point x="400.35867242005077" y="82.2962455135702" type="line"/>
      <point x="400.5663991611888" y="593.12997540025" type="line"/>
      <point x="428.8746219300722" y="588.1050127031497"/>
      <point x="537.8434084768318" y="581.7792878170748"/>
      <point x="588.7462999556398" y="582.308787353309" type="curve" smooth="yes"/>
      <point x="952.6299552365206" y="587.6037827156512"/>
      <point x="1147.0456103560914" y="758.2293422591443"/>
      <point x="1147.0456103560914" y="1066.8236480219382" type="curve" smooth="yes"/>
      <point x="1147.0456103560914" y="1332.2155905956365"/>
      <point x="1012.638907932411" y="1500.7628342138162"/>
      <point x="620.9998790176231" y="1500.2136952050653" type="curve" smooth="yes"/>
      <point x="490.22970520627496" y="1500.1540508932535"/>
      <point x="409.6560471024721" y="1486.0"/>
      <point x="296.0920272613623" y="1486.0" type="curve" smooth="yes"/>
      <point x="40.652457958624026" y="1486.0" type="line"/>
      <point x="40.652457958624026" y="1432.9371294914708" type="line"/>
      <point x="182.88776868169535" y="1402.9332580554099" type="line"/>
    </contour>
    <contour>
      <point x="400.2846312053877" y="667.946566116869" type="curve"/>
      <point x="400.2846312053877" y="1418.6414485623263" type="line"/>
      <point x="441.29793926684687" y="1420.0502883413317"/>
      <point x="520.9136992378111" y="1434.3479453159657"/>
      <point x="589.8640158083641" y="1434.3479453159657" type="curve" smooth="yes"/>
      <point x="846.5138524821551" y="1434.3479453159657"/>
      <point x="915.8880106464491" y="1295.2000241964752"/>
      <point x="915.8880106464491" y="1064.8512723313306" type="curve" smooth="yes"/>
      <point x="915.8880106464491" y="778.3700044360204"/>
      <point x="803.0419405573253" y="655.9583014074284"/>
      <point x="577.3087873533087" y="650.6633060450861" type="curve" smooth="yes"/>
      <point x="513.0543210872282" y="649.6043069726177"/>
      <point x="440.94160583941607" y="657.7105698269953"/>
    </contour>
  </outline>
</glyph>
<glyph name="R" format="2">
  <advance width="1296.6996410856152"/>
  <unicode hex="0052"/>
  <anchor x="717.4106141871999" y="0.0" name="bottom"/>
  <anchor x="650.6481832479736" y="1486.0" name="top"/>
  <outline>
    <contour>
      <point x="37.20619429769731" y="0.0" type="line"/>
      <point x="593.2742670484333" y="0.0" type="line"/>
      <point x="593.2742670484333" y="52.960035488163896" type="line"/>
      <point x="402.6222930193168" y="81.91878049764085" type="line"/>
      <point x="402.6222930193168" y="663.6074525144171" type="line"/>
      <point x="442.5946687099245" y="662.1709884260192"/>
      <point x="574.320724281163" y="660.0529902810823"/>
      <point x="633.503044723152" y="660.0529902810823" type="curve"/>
      <point x="791.5752712021615" y="634.2960438762753"/>
      <point x="937.2063556075333" y="0.0"/>
      <point x="1027.3935959995158" y="0.0" type="curve" smooth="yes"/>
      <point x="1300.219986288664" y="0.0" type="line"/>
      <point x="1300.219986288664" y="52.50852925757148" type="line"/>
      <point x="1223.5052224059361" y="84.2532161148526" type="line"/>
      <point x="1139.6002338992619" y="120.77110134290439"/>
      <point x="1003.5792232931401" y="637.9835060692826"/>
      <point x="811.3124974795337" y="690.8952292616042" type="curve"/>
      <point x="1011.7909021252569" y="742.4795741420332"/>
      <point x="1127.9434609025288" y="919.6247933217728"/>
      <point x="1127.9434609025288" y="1110.1115860789614" type="curve" smooth="yes"/>
      <point x="1127.9434609025288" y="1351.3639149897165"/>
      <point x="996.5100617010123" y="1501.1546961325967"/>
      <point x="599.6469734242047" y="1501.1546961325967" type="curve" smooth="yes"/>
      <point x="482.28233254022666" y="1501.1546961325967"/>
      <point x="386.3493164495705" y="1486.0"/>
      <point x="280.25011090051214" y="1486.0" type="curve" smooth="yes"/>
      <point x="40.430334314634834" y="1486.0" type="line"/>
      <point x="40.430334314634834" y="1433.7661007379922" type="line"/>
      <point x="187.66447554139614" y="1403.3107230713395" type="line"/>
      <point x="187.66447554139614" y="82.12650723877888" type="line"/>
      <point x="37.20619429769731" y="52.75230874702586" type="line"/>
    </contour>
    <contour>
      <point x="592.9535830947292" y="727.5281687300883" type="curve" smooth="yes"/>
      <point x="550.2331330402872" y="727.5281687300883"/>
      <point x="459.02584990119783" y="730.2936645561963"/>
      <point x="402.6222930193168" y="738.3159656410048" type="curve"/>
      <point x="402.6222930193168" y="1417.9526555631733" type="line"/>
      <point x="435.16433439528987" y="1421.4231560269388"/>
      <point x="482.535790619833" y="1434.496027745292"/>
      <point x="577.168891398153" y="1434.496027745292" type="curve" smooth="yes"/>
      <point x="816.0141549380972" y="1434.496027745292"/>
      <point x="898.6671774811468" y="1313.2095818042505"/>
      <point x="898.6671774811468" y="1100.9111182804372" type="curve" smooth="yes"/>
      <point x="898.6671774811468" y="859.9894342057506"/>
      <point x="800.9701576803644" y="727.5281687300883"/>
    </contour>
  </outline>
</glyph>
<glyph name="S" format="2">
  <advance width="1099.0934790498848"/>
  <unicode hex="0053"/>
  <anchor x="533.1869984272291" y="0.0" name="bottom"/>
  <anchor x="586.1371133604872" y="1486.0" name="top"/>
  <outline>
    <contour>
      <point x="527.7880792031294" y="-22.0" type="curve" smooth="yes"/>
      <point x="901.1313062063961" y="-22.0"/>
      <point x="1044.900633141106" y="199.30850506109613"/>
      <point x="1045.108359882244" y="393.5780537968302" type="curve" smooth="yes"/>
      <point x="1045.316086623382" y="654.8668387304916"/>
      <point x="810.0373835544622" y="758.9102310763399"/>
      <point x="621.5742630156874" y="849.9522926160423" type="curve" smooth="yes"/>
      <point x="421.41920393596" y="946.8442150260112"/>
      <point x="281.5353066903255" y="1015.8388918014275"/>
      <point x="281.5353066903255" y="1188.819937895713" type="curve" smooth="yes"/>
      <point x="281.5353066903255" y="1336.0960196797998"/>
      <point x="387.5243779489454" y="1434.9572528934955"/>
      <point x="578.1665120780739" y="1435.3727063757715" type="curve" smooth="yes"/>
      <point x="695.9729806024923" y="1435.5804331169095"/>
      <point x="769.3872242609991" y="1393.0239141831673"/>
      <point x="794.0060087913861" y="1367.9996773803282" type="curve"/>
      <point x="840.4844134371091" y="1118.5355486550793" type="line"/>
      <point x="953.5288946243498" y="1118.5355486550793" type="line"/>
      <point x="972.1761503407671" y="1431.1270718232045" type="line"/>
      <point x="923.5590595636569" y="1434.4232366818567"/>
      <point x="800.4618703875469" y="1505.4724361817964"/>
      <point x="587.4071863531879" y="1503.8839375730936" type="curve" smooth="yes"/>
      <point x="280.5886599185386" y="1501.7659394281568"/>
      <point x="96.7687623502843" y="1325.947977577933"/>
      <point x="96.7687623502843" y="1121.6892769286608" type="curve" smooth="yes"/>
      <point x="96.7687623502843" y="852.0020567004073"/>
      <point x="323.97721498568376" y="750.1256200346817"/>
      <point x="488.5802314796145" y="674.819050691616" type="curve" smooth="yes"/>
      <point x="689.4419486228172" y="582.996209218857"/>
      <point x="852.8123563334275" y="498.89724563455263"/>
      <point x="852.8123563334275" y="324.3966608863976" type="curve" smooth="yes"/>
      <point x="852.8123563334275" y="171.3788361495342"/>
      <point x="756.6781868774448" y="46.65737790861797"/>
      <point x="529.3210469008347" y="47.07283139089405" type="curve" smooth="yes"/>
      <point x="396.89603581078353" y="47.28055813203209"/>
      <point x="317.3245553897649" y="92.70585151429607"/>
      <point x="256.02766463685117" y="141.11235230068158" type="curve"/>
      <point x="210.08408275194574" y="404.2470056861717" type="line"/>
      <point x="91.49110779529781" y="404.2470056861717" type="line"/>
      <point x="69.39299108763159" y="68.87292817679558" type="line"/>
      <point x="132.8902689841513" y="63.15469613259669"/>
      <point x="285.4079525749083" y="-22.0"/>
    </contour>
  </outline>
</glyph>
<glyph name="T" format="2">
  <advance width="1357.1345727305722"/>
  <unicode hex="0054"/>
  <anchor x="683.4008549421301" y="0.0" name="bottom"/>
  <anchor x="1053.0360930757754" y="0.0" name="bottomright"/>
  <anchor x="681.0220994475139" y="696.9233375005041" name="center"/>
  <anchor x="682.345162721297" y="1486.0" name="top"/>
  <outline>
    <contour>
      <point x="568.0208896237448" y="82.20054845344197" type="line"/>
      <point x="309.17784409404356" y="52.960035488163896" type="line"/>
      <point x="309.17784409404356" y="0.0" type="line"/>
      <point x="1051.2071218292538" y="0.0" type="line"/>
      <point x="1051.2071218292538" y="52.960035488163896" type="line"/>
      <point x="788.054684034359" y="82.20054845344197" type="line"/>
      <point x="788.054684034359" y="1419.8138887768682" type="line"/>
      <point x="1095.7358148163084" y="1401.9501149332582" type="line"/>
      <point x="1204.1415897084325" y="975.5597854579182" type="line"/>
      <point x="1313.034197685204" y="975.5597854579182" type="line"/>
      <point x="1279.597733596806" y="1486.0" type="line"/>
      <point x="78.63253619389444" y="1486.0" type="line"/>
      <point x="44.1003750453684" y="975.5597854579182" type="line"/>
      <point x="152.57752953986366" y="975.5597854579182" type="line"/>
      <point x="262.8502641448563" y="1401.9501149332582" type="line"/>
      <point x="568.0208896237448" y="1419.8138887768682" type="line"/>
    </contour>
  </outline>
</glyph>
<glyph name="U" format="2">
  <advance width="1380.7606162035731"/>
  <unicode hex="0055"/>
  <anchor x="749.9546316086625" y="0.0" name="bottom"/>
  <anchor x="839.5699479775778" y="20.0" name="ogonek"/>
  <anchor x="747.9022059120053" y="1486.0" name="top"/>
  <anchor x="1422.718998265919" y="1486.0" name="topright"/>
  <outline>
    <contour>
      <point x="742.032947533976" y="-18.117998144936887" type="curve" smooth="yes"/>
      <point x="1025.8567971932086" y="-18.117998144936887"/>
      <point x="1215.184861071904" y="163.05420010485136"/>
      <point x="1217.832358753075" y="596.9605194176714" type="curve" smooth="yes"/>
      <point x="1223.1273541154171" y="1403.4627575916443" type="line"/>
      <point x="1359.149735855144" y="1432.9371294914708" type="line"/>
      <point x="1359.149735855144" y="1486.0" type="line"/>
      <point x="968.251522361576" y="1486.0" type="line"/>
      <point x="968.251522361576" y="1432.9371294914708" type="line"/>
      <point x="1122.7468242126063" y="1401.9522522885834" type="line"/>
      <point x="1125.3943218937773" y="589.8078799854821" type="line" smooth="yes"/>
      <point x="1126.4533209662459" y="230.26749203532685"/>
      <point x="981.4332378916805" y="48.79755615598661"/>
      <point x="750.7505343388314" y="48.79755615598661" type="curve" smooth="yes"/>
      <point x="534.7014154938096" y="48.79755615598661"/>
      <point x="396.12388595394606" y="155.8369560833972"/>
      <point x="396.12388595394606" y="551.098519982256" type="curve" smooth="yes"/>
      <point x="396.12388595394606" y="1403.2406339476552" type="line"/>
      <point x="561.9373311287657" y="1432.9371294914708" type="line"/>
      <point x="561.9373311287657" y="1486.0" type="line"/>
      <point x="28.3643989192241" y="1486.0" type="line"/>
      <point x="28.3643989192241" y="1432.9371294914708" type="line"/>
      <point x="172.98201395330076" y="1403.4627575916443" type="line"/>
      <point x="172.98201395330076" y="578.5756744767514" type="line" smooth="yes"/>
      <point x="172.98201395330076" y="148.4048876880268"/>
      <point x="363.1244908658305" y="-18.117998144936887"/>
    </contour>
  </outline>
</glyph>
<glyph name="V" format="2">
  <advance width="1298.562568052587"/>
  <unicode hex="0056"/>
  <outline>
    <contour>
      <point x="-30.62168810743235" y="1434.4115820462152" type="line"/>
      <point x="94.9257974755011" y="1402.3833931523977" type="line"/>
      <point x="582.2192603944026" y="-12.602330927128282" type="line"/>
      <point x="746.0626285437754" y="-12.602330927128282" type="line"/>
      <point x="1205.8739766907286" y="1402.3833931523977" type="line"/>
      <point x="1339.8661934911481" y="1434.4115820462152" type="line"/>
      <point x="1339.8661934911481" y="1486.0" type="line"/>
      <point x="942.8972456345525" y="1486.0" type="line"/>
      <point x="942.8972456345525" y="1434.4115820462152" type="line"/>
      <point x="1088.9895955155864" y="1402.3833931523977" type="line"/>
      <point x="760.6715328467153" y="292.4396096301972" type="line"/>
      <point x="724.2587006492721" y="135.14380771867562" type="line"/>
      <point x="685.1741742952776" y="292.4415453482276" type="line"/>
      <point x="332.6604831229584" y="1402.4574343670604" type="line"/>
      <point x="487.56014840504895" y="1434.4115820462152" type="line"/>
      <point x="487.56014840504895" y="1486.0" type="line"/>
      <point x="-30.62168810743235" y="1486.0" type="line"/>
    </contour>
  </outline>
</glyph>
<glyph name="W" format="2">
  <advance width="1881.913578255434"/>
  <unicode hex="0057"/>
  <anchor x="967.4127918699842" y="0.0" name="bottom"/>
  <anchor x="963.7367826753235" y="1486.0" name="top"/>
  <outline>
    <contour>
      <point x="-37.52474089607614" y="1434.9410815824494" type="line"/>
      <point x="95.5995080050006" y="1402.4613864580392" type="line"/>
      <point x="499.60047586401583" y="-11.099729806024923" type="line"/>
      <point x="675.684115013913" y="-11.099729806024923" type="line"/>
      <point x="959.7694882445458" y="978.640440375852" type="line"/>
      <point x="1226.2471669960075" y="-11.099729806024923" type="line"/>
      <point x="1403.9087389603578" y="-11.099729806024923" type="line"/>
      <point x="1797.712223252813" y="1402.5911198935357" type="line"/>
      <point x="1919.3642779368472" y="1433.882082509981" type="line"/>
      <point x="1919.3642779368472" y="1486.0" type="line"/>
      <point x="1508.1304996572167" y="1486.0" type="line"/>
      <point x="1508.1304996572167" y="1433.882082509981" type="line"/>
      <point x="1686.8406258821633" y="1402.5911198935357" type="line"/>
      <point x="1408.5280880751707" y="315.40642013146754" type="line"/>
      <point x="1370.2855990644027" y="113.92926563697219" type="line"/>
      <point x="1332.2549098681293" y="311.69992337782793" type="line"/>
      <point x="1062.6641932491834" y="1408.9451143283463" type="line"/>
      <point x="1226.7378311892567" y="1433.882082509981" type="line"/>
      <point x="1226.7378311892567" y="1486.0" type="line"/>
      <point x="706.3337903778684" y="1486.0" type="line"/>
      <point x="706.3337903778684" y="1433.882082509981" type="line"/>
      <point x="839.2956002742268" y="1408.9451143283463" type="line"/>
      <point x="912.4493688752673" y="1147.0748880913015" type="line"/>
      <point x="681.2699923377829" y="315.40642013146754" type="line"/>
      <point x="640.5957172238577" y="119.71754647739647" type="line"/>
      <point x="606.1049723756906" y="312.2294229140621" type="line"/>
      <point x="319.66669355163924" y="1403.12061942977" type="line"/>
      <point x="477.02883413316124" y="1434.4115820462152" type="line"/>
      <point x="477.02883413316124" y="1486.0" type="line"/>
      <point x="-37.52474089607614" y="1486.5294995362342" type="line"/>
    </contour>
  </outline>
</glyph>
<glyph name="X" format="2">
  <advance width="1364.4159777392426"/>
  <unicode hex="0058"/>
  <anchor x="1345.966286244304" y="0.0" name="bottomright"/>
  <outline>
    <contour>
      <point x="186.26430616606848" y="78.53405653909748" type="line"/>
      <point x="24.762955196193083" y="52.960035488163896" type="line"/>
      <point x="25.821954268661536" y="0.0" type="line"/>
      <point x="499.0667419445901" y="0.0" type="line"/>
      <point x="498.0077428721216" y="52.960035488163896" type="line"/>
      <point x="315.7479130539985" y="80.12255514780013" type="line"/>
      <point x="631.3013267734001" y="643.9812880590395" type="line"/>
      <point x="948.1004153728273" y="78.81582449489859" type="line"/>
      <point x="781.1853853288704" y="52.960035488163896" type="line"/>
      <point x="782.244384401339" y="0.0" type="line"/>
      <point x="1343.8890188329233" y="0.0" type="line"/>
      <point x="1342.8300197604551" y="52.960035488163896" type="line"/>
      <point x="1200.213816187442" y="80.40432310360124" type="line"/>
      <point x="769.0119772553131" y="789.752308747026" type="line"/>
      <point x="1164.6299149090617" y="1404.5997499697546" type="line"/>
      <point x="1321.2690648062262" y="1432.9371294914708" type="line"/>
      <point x="1321.2690648062262" y="1486.0" type="line"/>
      <point x="863.3504052909626" y="1486.0" type="line"/>
      <point x="863.3504052909626" y="1432.9371294914708" type="line"/>
      <point x="1039.578174779207" y="1403.6704843327823" type="line"/>
      <point x="725.2979795943056" y="856.8156228576038" type="line"/>
      <point x="418.6980279872566" y="1404.3179820139535" type="line"/>
      <point x="586.1569544702988" y="1432.9371294914708" type="line"/>
      <point x="586.1569544702988" y="1486.0" type="line"/>
      <point x="30.70254466266081" y="1486.0" type="line"/>
      <point x="30.70254466266081" y="1432.9371294914708" type="line"/>
      <point x="170.59785457918295" y="1403.011251361052" type="line"/>
      <point x="585.9326934709844" y="716.2156309230954" type="line"/>
    </contour>
  </outline>
</glyph>
<glyph name="Y" format="2">
  <advance width="1214.0139936282617"/>
  <unicode hex="0059"/>
  <anchor x="616.6033794410613" y="0.0" name="bottom"/>
  <anchor x="616.4860105657942" y="547.0" name="center"/>
  <anchor x="630.4090010888415" y="1486.0" name="top"/>
  <anchor x="3.5497842480945323" y="1486.0" name="topleft"/>
  <outline>
    <contour>
      <point x="504.7701738113481" y="82.52232124853813" type="line"/>
      <point x="297.3308061459047" y="52.960035488163896" type="line"/>
      <point x="297.3308061459047" y="0.0" type="line"/>
      <point x="933.2776948824453" y="0.0" type="line"/>
      <point x="933.2776948824453" y="52.960035488163896" type="line"/>
      <point x="722.1307416219705" y="82.61801830866638" type="line"/>
      <point x="722.1307416219705" y="591.1772795096182" type="line"/>
      <point x="1114.7392426503204" y="1410.414324313425" type="line"/>
      <point x="1254.0390773077388" y="1433.466629027705" type="line"/>
      <point x="1254.0390773077388" y="1486.0" type="line"/>
      <point x="822.699923377828" y="1486.0" type="line"/>
      <point x="822.699923377828" y="1433.466629027705" type="line"/>
      <point x="995.585595031657" y="1408.2282534177523" type="line"/>
      <point x="724.5440174214623" y="801.0979150703714" type="line"/>
      <point x="664.7417429527765" y="656.0319393475017" type="line"/>
      <point x="606.8831310239142" y="806.1851836915756" type="line"/>
      <point x="324.8706295116345" y="1408.2282534177523" type="line"/>
      <point x="477.39867725934585" y="1433.466629027705" type="line"/>
      <point x="477.39867725934585" y="1486.0" type="line"/>
      <point x="-30.71536879461225" y="1485.4705004637658" type="line"/>
      <point x="-30.71536879461225" y="1432.9371294914708" type="line"/>
      <point x="86.44465056256804" y="1408.1325563576243" type="line"/>
      <point x="504.7701738113481" y="582.1145703109248" type="line"/>
    </contour>
  </outline>
</glyph>
<glyph name="Z" format="2">
  <advance width="1263.8558293341935"/>
  <unicode hex="005A"/>
  <anchor x="632.5855950316572" y="0.0" name="bottom"/>
  <anchor x="664.9226116062426" y="1486.0" name="top"/>
  <outline>
    <contour>
      <point x="821.9642698713554" y="1251.3918619187803" type="line"/>
      <point x="45.45840222607574" y="47.63838367544461" type="line"/>
      <point x="75.58398193329836" y="0.0" type="line"/>
      <point x="1151.2543856111627" y="0.0" type="line"/>
      <point x="1206.2171633665366" y="418.8100173408073" type="line"/>
      <point x="1098.0520224220672" y="442.79082147033915" type="line"/>
      <point x="974.9460821873613" y="114.10827922732588" type="line"/>
      <point x="289.5425656329395" y="70.53554865507925" type="line"/>
      <point x="422.2707988869621" y="246.78715167157316" type="line"/>
      <point x="1191.8788966407228" y="1440.490704520708" type="line"/>
      <point x="1163.5395814009762" y="1487.5026011211032" type="line"/>
      <point x="182.99754002500305" y="1487.5026011211032" type="line"/>
      <point x="145.2569665685365" y="1113.8616768157437" type="line"/>
      <point x="247.96205186111223" y="1099.6351574787273" type="line"/>
      <point x="351.74303343146346" y="1393.872081300157" type="line"/>
      <point x="950.9264023873856" y="1417.4669919748358" type="line"/>
    </contour>
  </outline>
</glyph>
<glyph name="bracketleft" format="2">
  <advance width="771.2711618340927"/>
  <unicode hex="005B"/>
  <outline>
    <contour>
      <point x="173.16022099447517" y="1447.2475702705972" type="curve"/>
      <point x="173.16022099447517" y="-113.24757027059724" type="line" smooth="yes"/>
      <point x="173.16022099447517" y="-247.0853329031738"/>
      <point x="226.9956446344316" y="-274.0"/>
      <point x="349.1404605395814" y="-274.0" type="curve" smooth="yes"/>
      <point x="436.07847723514936" y="-274.0"/>
      <point x="518.4229947171029" y="-257.1546961325967"/>
      <point x="597.2080090333508" y="-236.87292817679557" type="curve"/>
      <point x="597.2080090333508" y="-185.6741944590071" type="line"/>
      <point x="343.1876839940315" y="-185.6741944590071" type="line"/>
      <point x="343.1876839940315" y="1521.6741944590071" type="line"/>
      <point x="597.2080090333508" y="1521.6741944590071" type="line"/>
      <point x="597.2080090333508" y="1572.3093922651933" type="line"/>
      <point x="522.5987014558212" y="1589.1546961325967"/>
      <point x="440.66963745614385" y="1608.0"/>
      <point x="349.1404605395814" y="1608.0" type="curve" smooth="yes"/>
      <point x="226.9956446344316" y="1608.0"/>
      <point x="173.16022099447517" y="1581.0853329031738"/>
    </contour>
  </outline>
</glyph>
<glyph name="backslash" format="2">
  <advance width="759.1589708432472"/>
  <unicode hex="005C"/>
  <outline>
    <contour>
      <point x="696.9180546033793" y="-354.0" type="line"/>
      <point x="152.25281284026292" y="1562.0" type="line"/>
      <point x="42.23478646610477" y="1562.0" type="line"/>
      <point x="586.336492317619" y="-354.0" type="line"/>
    </contour>
  </outline>
</glyph>
<glyph name="bracketright" format="2">
  <advance width="765.6358027180706"/>
  <unicode hex="005D"/>
  <outline>
    <contour>
      <point x="592.4755817235956" y="1447.2475702705972" type="line"/>
      <point x="592.4755817235956" y="1581.0853329031738"/>
      <point x="544.2755171996612" y="1608.0"/>
      <point x="422.1307012945114" y="1608.0" type="curve" smooth="yes"/>
      <point x="330.6015243779489" y="1608.0"/>
      <point x="248.67246037827158" y="1589.1546961325967"/>
      <point x="174.06315280074202" y="1572.3093922651933" type="curve"/>
      <point x="174.06315280074202" y="1521.6741944590071" type="line"/>
      <point x="428.0834778400613" y="1521.6741944590071" type="line"/>
      <point x="428.0834778400613" y="-185.6741944590071" type="line"/>
      <point x="174.06315280074202" y="-185.6741944590071" type="line"/>
      <point x="174.06315280074202" y="-236.87292817679557" type="line"/>
      <point x="252.84816711699" y="-257.1546961325967"/>
      <point x="335.1926845989434" y="-274.0"/>
      <point x="422.1307012945114" y="-274.0" type="curve" smooth="yes"/>
      <point x="544.2755171996612" y="-274.0"/>
      <point x="592.4755817235956" y="-247.0853329031738"/>
      <point x="592.4755817235956" y="-113.24757027059724" type="curve" smooth="yes"/>
    </contour>
  </outline>
</glyph>
<glyph name="asciicircum" format="2">
  <advance width="1253.1045691011007"/>
  <unicode hex="005E"/>
  <outline>
    <contour>
      <point x="678.6068879299916" y="1496.0" type="line"/>
      <point x="569.2905996693148" y="1496.0" type="line"/>
      <point x="167.66080574263017" y="266.8112674920353" type="line"/>
      <point x="276.01693753276606" y="266.8112674920353" type="line"/>
      <point x="626.2344638464332" y="1330.323426220914" type="line"/>
      <point x="968.4946566116869" y="266.8112674920353" type="line"/>
      <point x="1084.0072992700727" y="266.8112674920353" type="line"/>
    </contour>
  </outline>
</glyph>
<glyph name="a" format="2">
  <advance width="955.6452393434689"/>
  <unicode hex="0061"/>
  <anchor x="450.91878049764085" y="0.0" name="bottom"/>
  <anchor x="775.2131709480985" y="20.0" name="ogonek"/>
  <anchor x="467.61612291809496" y="1110.074041214663" name="top"/>
  <outline>
    <contour>
      <point x="29.892607976771387" y="262.2176472960439" type="curve" smooth="yes"/>
      <point x="29.892607976771387" y="74.5172399887083"/>
      <point x="170.78077993305646" y="-17.971730451264268"/>
      <point x="320.78610315764" y="-17.971730451264268" type="curve" smooth="yes"/>
      <point x="482.53917812638633" y="-17.971730451264268"/>
      <point x="594.6080574263016" y="93.19776585877324"/>
      <point x="633.0005242569664" y="158.38891801427593" type="curve"/>
      <point x="633.0005242569664" y="68.17804573133846" type="line" smooth="yes"/>
      <point x="633.0005242569664" y="-0.3137879582207528"/>
      <point x="669.8693793604065" y="-17.59297495664798"/>
      <point x="739.5306690325442" y="-17.59297495664798" type="curve" smooth="yes"/>
      <point x="811.6547162963261" y="-17.59297495664798"/>
      <point x="884.487317014155" y="0.32701536476186654"/>
      <point x="927.4427148445375" y="12.614751784490059" type="curve"/>
      <point x="927.4427148445375" y="60.86179779812074" type="line"/>
      <point x="825.122635802718" y="65.01633262088156" type="line"/>
      <point x="825.122635802718" y="699.227325886196" type="line" smooth="yes"/>
      <point x="825.122635802718" y="944.908900270194"/>
      <point x="731.1304996572167" y="1060.4037988466348"/>
      <point x="496.6135419607211" y="1060.4037988466348" type="curve" smooth="yes"/>
      <point x="304.8209057547284" y="1060.4037988466348"/>
      <point x="149.4274307375892" y="973.6242690648062"/>
      <point x="84.48957535185707" y="919.1275557527119" type="curve"/>
      <point x="117.46634673549221" y="859.0641206597574" type="line"/>
      <point x="191.35984191636086" y="899.4864701375166"/>
      <point x="301.3080614590474" y="944.1614308182442"/>
      <point x="437.5026011211033" y="944.1614308182442" type="curve" smooth="yes"/>
      <point x="588.0591603823043" y="944.1614308182442"/>
      <point x="626.6801629229342" y="842.4549340646045"/>
      <point x="626.6801629229343" y="705.0658144130336" type="curve" smooth="yes"/>
      <point x="626.6801629229342" y="610.4259386216073" type="line"/>
      <point x="359.79307980804134" y="609.0714199298302"/>
      <point x="29.892607976771387" y="515.1089244666692"/>
    </contour>
    <contour>
      <point x="401.2122837440013" y="95.14703391539298" type="curve" smooth="yes"/>
      <point x="311.69310803726256" y="95.14703391539298"/>
      <point x="238.38601443723033" y="167.4379965318385"/>
      <point x="238.38601443723033" y="288.07121829253543" type="curve" smooth="yes"/>
      <point x="238.38601443723033" y="447.75222809210794"/>
      <point x="396.0621446142679" y="543.7889260797679"/>
      <point x="626.6801629229342" y="544.4481590514982" type="curve"/>
      <point x="626.6801629229342" y="204.17945719240234" type="line"/>
      <point x="564.8865991853852" y="138.61926845989433"/>
      <point x="488.0081058192523" y="95.14703391539298"/>
    </contour>
  </outline>
</glyph>
<glyph name="b" format="2">
  <advance width="1080.0731136831066"/>
  <unicode hex="0062"/>
  <anchor x="481.6891559462839" y="-0.8453038674033149" name="bottom"/>
  <anchor x="684.2858410291568" y="1110.2817679558011" name="top"/>
  <outline>
    <contour>
      <point x="-12.74396096301972" y="1541.6349558414322" type="line"/>
      <point x="125.30148808323591" y="1516.4150098802274" type="line"/>
      <point x="125.30148808323591" y="54.0" type="line"/>
      <point x="157.16001935718032" y="43.739363632697504"/>
      <point x="303.5819655603501" y="-22.0"/>
      <point x="521.9481388877688" y="-22.0" type="curve" smooth="yes"/>
      <point x="810.8002177682783" y="-22.0"/>
      <point x="1031.3510908577648" y="219.22163971448154"/>
      <point x="1031.351090857765" y="565.1883695608341" type="curve" smooth="yes"/>
      <point x="1031.351090857765" y="890.240512965278"/>
      <point x="876.1951849013992" y="1063.9312820099203"/>
      <point x="632.4869137395652" y="1063.9312820099203" type="curve" smooth="yes"/>
      <point x="472.32637012541835" y="1063.9312820099203"/>
      <point x="360.0904544904626" y="963.6850828729282"/>
      <point x="322.00137113360483" y="907.9269669718112" type="curve"/>
      <point x="322.00137113360483" y="1613.0475460741218" type="line"/>
      <point x="291.38661934911477" y="1637.2431342501109" type="line"/>
      <point x="260.20292777352097" y="1637.2431342501109" type="line"/>
      <point x="-12.74396096301972" y="1586.5137314997785" type="line"/>
    </contour>
    <contour>
      <point x="559.6631447352502" y="962.3447594467073" type="curve" smooth="yes"/>
      <point x="698.6146711295721" y="962.3447594467073"/>
      <point x="810.1918780497641" y="838.4044844134371"/>
      <point x="809.0260918659515" y="538.6421744565874" type="curve" smooth="yes"/>
      <point x="807.860305682139" y="216.05226438682095"/>
      <point x="704.284268258257" y="45.16268096947212"/>
      <point x="512.4232366818568" y="45.162680969472106" type="curve" smooth="yes"/>
      <point x="418.66560471024724" y="45.16268096947211"/>
      <point x="346.2682179295883" y="85.01887325079647"/>
      <point x="322.0013711336049" y="124.0149614872767" type="curve"/>
      <point x="322.00137113360483" y="845.6656450377062" type="line"/>
      <point x="359.7139976610073" y="887.774085574868"/>
      <point x="442.07585595031657" y="962.3447594467073"/>
    </contour>
  </outline>
</glyph>
<glyph name="c" format="2">
  <advance width="903.6952857200467"/>
  <unicode hex="0063"/>
  <anchor x="489.5356696374561" y="0.0" name="bottom"/>
  <anchor x="559.6435052627335" y="1110.074041214663" name="top"/>
  <outline>
    <contour>
      <point x="46.57873936363269" y="505.2815259910473" type="curve" smooth="yes"/>
      <point x="46.95620437956204" y="194.68592974956647"/>
      <point x="209.6267290398032" y="-22.0"/>
      <point x="509.4313021736501" y="-22.0" type="curve" smooth="yes"/>
      <point x="649.7279912892687" y="-22.0"/>
      <point x="791.7584385207887" y="44.86312860426664"/>
      <point x="855.6309230955356" y="110.97535992257129" type="curve"/>
      <point x="829.4286808888172" y="162.86324958664358" type="line"/>
      <point x="773.8376416501997" y="121.481187240392"/>
      <point x="669.0162519659636" y="80.09630197201275"/>
      <point x="567.7630358511109" y="80.09630197201275" type="curve" smooth="yes"/>
      <point x="382.5709561640521" y="80.09630197201275"/>
      <point x="266.93374198491756" y="244.2922934225914"/>
      <point x="267.38524821550993" y="546.3152397467436" type="curve" smooth="yes"/>
      <point x="267.9107956607654" y="844.7567044400532"/>
      <point x="393.2992297455337" y="999.8605879743517"/>
      <point x="540.4350122998749" y="999.8605879743517" type="curve" smooth="yes"/>
      <point x="639.1078759527361" y="999.8605879743517"/>
      <point x="681.8300600879138" y="951.1565511957091"/>
      <point x="689.1851433641167" y="917.52849134976" type="curve" smooth="yes"/>
      <point x="730.8665564382788" y="725.0399241843771" type="line"/>
      <point x="841.9134572730574" y="725.0399241843771" type="line"/>
      <point x="850.6591119893536" y="1003.8783320562973" type="line"/>
      <point x="803.0526676614106" y="1015.1241279187"/>
      <point x="698.70492398274" y="1066.1633262088153"/>
      <point x="568.3902084929629" y="1066.1633262088153" type="curve" smooth="yes"/>
      <point x="251.84844940920274" y="1066.1633262088153"/>
      <point x="46.201274347703354" y="821.3942009114005"/>
    </contour>
  </outline>
</glyph>
<glyph name="d" format="2">
  <advance width="1081.9217244021454"/>
  <unicode hex="0064"/>
  <anchor x="548.8941000927531" y="-4.440892098500626e-16" name="bottom"/>
  <anchor x="534.4265435334919" y="570.7445255474453" name="center"/>
  <anchor x="330.88200185506315" y="1158.0" name="top"/>
  <anchor x="1076.6606847602534" y="1110.2817679558011" name="topright"/>
  <outline>
    <contour>
      <point x="446.5134492075655" y="-22.20772674113804" type="curve" smooth="yes"/>
      <point x="611.4661854256564" y="-22.207726741138043"/>
      <point x="722.1475581723596" y="79.99532201475985"/>
      <point x="763.1592128080009" y="147.39658023147962" type="curve"/>
      <point x="763.1592128080009" y="68.66955680122595" type="line" smooth="yes"/>
      <point x="763.1592128080009" y="-0.3805702302697922"/>
      <point x="804.1129975400249" y="-17.59297495664798"/>
      <point x="875.6763318143323" y="-17.59297495664798" type="curve" smooth="yes"/>
      <point x="941.3291123926282" y="-17.59297495664798"/>
      <point x="1016.8893011251363" y="0.17893293543573813"/>
      <point x="1062.3170948098557" y="12.614751784490059" type="curve"/>
      <point x="1062.3170948098557" y="63.84207767068599" type="line"/>
      <point x="955.4019841109812" y="63.84207767068599" type="line"/>
      <point x="955.4019841109812" y="1616.194297697302" type="line"/>
      <point x="931.4488849457596" y="1637.2431342501109" type="line"/>
      <point x="895.3990402064766" y="1637.2431342501109" type="line"/>
      <point x="602.7016977860225" y="1591.2605960398434" type="line"/>
      <point x="602.7016977860225" y="1547.9480582328508" type="line"/>
      <point x="758.0048796225351" y="1526.357099649151" type="line"/>
      <point x="758.0048796225351" y="1022.1269911682863" type="line"/>
      <point x="718.7957010928741" y="1043.2627333951689"/>
      <point x="643.9480179053917" y="1065.6338266725813"/>
      <point x="555.9251522361577" y="1065.6338266725813" type="curve" smooth="yes"/>
      <point x="265.78953099165216" y="1065.6338266725813"/>
      <point x="46.31447352502318" y="832.4128321974432"/>
      <point x="46.31447352502318" y="481.877243214905" type="curve" smooth="yes"/>
      <point x="46.31447352502318" y="150.60382304311005"/>
      <point x="215.4784449731822" y="-22.207726741138043"/>
    </contour>
    <contour>
      <point x="520.7428721216277" y="79.43856111626405" type="curve" smooth="yes"/>
      <point x="381.7317014154938" y="79.43856111626405"/>
      <point x="270.15513973464533" y="204.68939791103764"/>
      <point x="271.0581521958301" y="508.4234383191516" type="curve" smooth="yes"/>
      <point x="272.035205871678" y="834.8895027624309"/>
      <point x="379.486066862927" y="996.9811267492034"/>
      <point x="571.5481711497359" y="996.9811267492034" type="curve" smooth="yes"/>
      <point x="665.6544743315724" y="996.9811267492034"/>
      <point x="732.9903617373069" y="956.6000322619673"/>
      <point x="758.0048796225351" y="918.6543936766544" type="curve"/>
      <point x="758.0048796225351" y="198.93095939024883" type="line"/>
      <point x="719.7791668346977" y="151.08408275194586"/>
      <point x="633.8970439972578" y="79.43856111626405"/>
    </contour>
  </outline>
</glyph>
<glyph name="e" format="2">
  <advance width="949.0408517159334"/>
  <unicode hex="0065"/>
  <anchor x="484.9816510061702" y="0.0" name="bottom"/>
  <anchor x="622.5991450578699" y="20.0" name="ogonek"/>
  <anchor x="531.6447957414204" y="1110.0" name="top"/>
  <outline>
    <contour>
      <point x="514.7645279670929" y="-22.41545348227608" type="curve" smooth="yes"/>
      <point x="660.4767915473645" y="-22.41545348227608"/>
      <point x="805.478807920313" y="44.985078840182275"/>
      <point x="873.8138887768681" y="114.32923337500503" type="curve"/>
      <point x="847.1077549703592" y="170.06710489172076" type="line"/>
      <point x="788.0906964552164" y="122.18425616001934"/>
      <point x="673.613622615639" y="78.54054925999114"/>
      <point x="568.608702665645" y="78.54054925999114" type="curve" smooth="yes"/>
      <point x="355.32286163648826" y="78.54054925999114"/>
      <point x="265.459249102714" y="275.385127233133"/>
      <point x="262.3454046860507" y="520.8129209178531" type="curve"/>
      <point x="896.0684760253257" y="520.8129209178531" type="line"/>
      <point x="904.0245190950516" y="556.1830866637093"/>
      <point x="908.7400895269589" y="604.5844658628059"/>
      <point x="908.2105899907245" y="688.6844779610437" type="curve"/>
      <point x="903.533653264508" y="932.2473283058434"/>
      <point x="759.1038835342986" y="1063.5158285276443"/>
      <point x="521.9374521111424" y="1063.5158285276443" type="curve" smooth="yes"/>
      <point x="268.8653466145098" y="1063.5158285276443"/>
      <point x="43.4856635883373" y="856.4832036133404"/>
      <point x="43.4856635883373" y="504.41186433842796" type="curve" smooth="yes"/>
      <point x="43.4856635883373" y="183.48405048997859"/>
      <point x="206.86203976287456" y="-22.41545348227608"/>
    </contour>
    <contour>
      <point x="262.6888333266121" y="581.4623946445134" type="line"/>
      <point x="264.86845182885025" y="831.3018913578256"/>
      <point x="350.97487599306373" y="995.8657095616406"/>
      <point x="510.659878211074" y="995.8657095616406" type="curve" smooth="yes"/>
      <point x="648.1548574424324" y="995.8657095616406"/>
      <point x="701.5453482276081" y="882.7500907367827"/>
      <point x="701.9228132435373" y="692.4064604589266" type="curve" smooth="yes"/>
      <point x="701.9228132435373" y="667.8036456022907"/>
      <point x="700.9818123160059" y="624.6223736742348"/>
      <point x="697.5053433883129" y="595.3556478606282" type="curve"/>
    </contour>
  </outline>
</glyph>
<glyph name="f" format="2">
  <advance width="643.8075170383515"/>
  <unicode hex="0066"/>
  <anchor x="333.159132153083" y="1616.7226277372263" name="top"/>
  <outline>
    <contour>
      <point x="195.6325765213534" y="80.86373351615114" type="line"/>
      <point x="50.91083598822439" y="52.9600354881639" type="line"/>
      <point x="50.91083598822439" y="0.0" type="line"/>
      <point x="568.7080291970804" y="0.0" type="line"/>
      <point x="568.7080291970804" y="52.9600354881639" type="line"/>
      <point x="392.4012582167197" y="79.3532282130903" type="line"/>
      <point x="392.4012582167197" y="944.4663064080331" type="line"/>
      <point x="606.7613017703754" y="944.4663064080331" type="line"/>
      <point x="606.7613017703754" y="1032.6652820905756" type="line"/>
      <point x="392.4012582167197" y="1032.6652820905756" type="line"/>
      <point x="392.4012582167197" y="1307.6080574263017" type="line" smooth="yes"/>
      <point x="392.4012582167197" y="1478.3424607815462"/>
      <point x="442.4198895027624" y="1523.0044360204863"/>
      <point x="569.9029721337258" y="1523.0044360204863" type="curve" smooth="yes"/>
      <point x="650.5939428156632" y="1523.0044360204863"/>
      <point x="716.1131588498608" y="1505.631729644715"/>
      <point x="745.3585917651329" y="1487.6189055127638" type="curve"/>
      <point x="745.4326329797959" y="1642.675444610235" type="line"/>
      <point x="728.2445457111747" y="1650.0175021171915"/>
      <point x="698.6051538492561" y="1659.0312537806992"/>
      <point x="644.9882647094406" y="1659.0312537806992" type="curve" smooth="yes"/>
      <point x="420.6501996209219" y="1659.0312537806992"/>
      <point x="195.6325765213534" y="1453.7141186433844"/>
      <point x="195.6325765213534" y="1145.336492317619" type="curve" smooth="yes"/>
      <point x="195.6325765213534" y="1030.7989676170505" type="line"/>
      <point x="51.96793967012138" y="996.1570754526757" type="line"/>
      <point x="51.96793967012138" y="944.4663064080331" type="line"/>
      <point x="195.6325765213534" y="944.4663064080331" type="line"/>
    </contour>
  </outline>
</glyph>
<glyph name="g" format="2">
  <advance width="1069.3533088680083"/>
  <unicode hex="0067"/>
  <anchor x="523.3530669032544" y="0.0" name="bottom"/>
  <anchor x="537.7178690970682" y="1110.074041214663" name="top"/>
  <outline>
    <contour>
      <point x="467.83344759446715" y="-489.41242892285356" type="curve"/>
      <point x="800.0143162479333" y="-489.41242892285356"/>
      <point x="1037.3295559946769" y="-339.6563697221439"/>
      <point x="1037.3295559946769" y="-98.17518248175182" type="curve" smooth="yes"/>
      <point x="1037.3295559946769" y="38.99612856393919"/>
      <point x="932.9521716336654" y="135.89381780054038"/>
      <point x="718.6607654151712" y="135.89381780054038" type="curve" smooth="yes"/>
      <point x="461.3885147396862" y="135.89381780054038" type="line" smooth="yes"/>
      <point x="328.3996854458201" y="135.89381780054038"/>
      <point x="274.6192684598944" y="164.64350526273338"/>
      <point x="274.6192684598944" y="244.99891115860788" type="curve" smooth="yes"/>
      <point x="274.6192684598944" y="306.45037706174134"/>
      <point x="312.3118522401903" y="340.1052949953623"/>
      <point x="342.014477557769" y="363.2095011493326" type="curve"/>
      <point x="385.8027987256523" y="355.1177561801831"/>
      <point x="444.01367100858977" y="349.2854780820261"/>
      <point x="496.75537363390737" y="349.2854780820261" type="curve" smooth="yes"/>
      <point x="726.984070653708" y="349.2854780820261"/>
      <point x="923.5391377989272" y="489.55276848005803"/>
      <point x="923.4650965842641" y="713.7112553937975" type="curve" smooth="yes"/>
      <point x="923.4650965842641" y="799.5509537444044"/>
      <point x="897.3540347622697" y="873.7378715167158"/>
      <point x="876.6488284873171" y="898.8879299915313" type="curve"/>
      <point x="1054.0971085211925" y="899.4174295277654" type="line"/>
      <point x="1054.6266080574267" y="1054.3013671008591" type="line"/>
      <point x="1008.2382949550349" y="1054.3013671008591" type="line" smooth="yes"/>
      <point x="935.7786022502722" y="1054.3013671008591"/>
      <point x="855.727829979433" y="1007.7916280195185"/>
      <point x="835.6959309593902" y="956.4876799612855" type="curve"/>
      <point x="771.251240069363" y="1021.549098681292"/>
      <point x="678.8140097592451" y="1063.255151832883"/>
      <point x="528.254062991491" y="1063.255151832883" type="curve" smooth="yes"/>
      <point x="305.597773924265" y="1063.255151832883"/>
      <point x="98.98604669919749" y="928.846876638303"/>
      <point x="98.98604669919749" y="701.430092349881" type="curve" smooth="yes"/>
      <point x="98.98604669919749" y="567.9991934508207"/>
      <point x="149.6345122393838" y="452.12582167197644"/>
      <point x="295.31253780699274" y="382.0069766504012" type="curve"/>
      <point x="209.03702060733156" y="344.5890631931282"/>
      <point x="129.89119651570755" y="271.8853893616163"/>
      <point x="129.89119651570758" y="171.80727507359762" type="curve" smooth="yes"/>
      <point x="129.89119651570755" y="88.0902931806267"/>
      <point x="170.46412872524903" y="35.71109408396177"/>
      <point x="235.59241037222245" y="3.4819937895713227" type="curve"/>
      <point x="118.1573577448885" y="-22.631366697584387"/>
      <point x="29.61995402669677" y="-106.22910029439045"/>
      <point x="29.61995402669677" y="-223.23381860708955" type="curve" smooth="yes"/>
      <point x="29.61995402669677" y="-411.2695487357342"/>
      <point x="244.96943178610314" y="-489.41242892285356"/>
    </contour>
    <contour>
      <point x="490.85022381739736" y="-420.36468121143685" type="curve"/>
      <point x="336.8928499415252" y="-420.1569544702988"/>
      <point x="213.3028995442997" y="-344.9728596201153"/>
      <point x="213.3028995442997" y="-188.95902730168973" type="curve" smooth="yes"/>
      <point x="213.3028995442997" y="-92.71327176674599"/>
      <point x="247.7940476670565" y="-46.66790337540832"/>
      <point x="286.89405976529423" y="-14.886034600959793" type="curve"/>
      <point x="334.2559987095213" y="-23.080654917933618"/>
      <point x="409.9511634471911" y="-28.42464814292051"/>
      <point x="477.75484937694074" y="-28.42464814292051" type="curve" smooth="yes"/>
      <point x="663.8930515788201" y="-28.42464814292051" type="line" smooth="yes"/>
      <point x="811.8094124289229" y="-28.42464814292051"/>
      <point x="849.5410331894989" y="-83.99177319837077"/>
      <point x="849.5410331894989" y="-169.37686010404485" type="curve" smooth="yes"/>
      <point x="849.5410331894989" y="-319.45033673428236"/>
      <point x="706.9351937734403" y="-420.5724079525749"/>
    </contour>
    <contour>
      <point x="505.14711457031086" y="415.46904867524296" type="curve" smooth="yes"/>
      <point x="370.66217687623504" y="415.46904867524296"/>
      <point x="304.63088276807684" y="538.0800096785902"/>
      <point x="304.63088276807684" y="709.5925716820583" type="curve" smooth="yes"/>
      <point x="304.63088276807684" y="905.3170544823971"/>
      <point x="386.1400169375328" y="997.5158285276444"/>
      <point x="520.919909666492" y="997.5158285276444" type="curve" smooth="yes"/>
      <point x="645.7507763035852" y="997.5158285276444"/>
      <point x="720.0010888413922" y="886.1860305682139"/>
      <point x="720.0010888413922" y="708.1719966124934" type="curve" smooth="yes"/>
      <point x="720.0010888413922" y="517.0689196273744"/>
      <point x="646.2449086583053" y="415.46904867524296"/>
    </contour>
  </outline>
</glyph>
<glyph name="h" format="2">
  <advance width="1141.4175908376014"/>
  <unicode hex="0068"/>
  <anchor x="579.2390208492963" y="0.0" name="bottom"/>
  <anchor x="283.3194338024761" y="1300.5469613259665" name="center"/>
  <anchor x="215.74513045932977" y="1600.3093922651933" name="top"/>
  <outline>
    <contour>
      <point x="147.9555188127596" y="80.41222728555876" type="line"/>
      <point x="27.026696777836023" y="52.9600354881639" type="line"/>
      <point x="27.026696777836023" y="0.0" type="line"/>
      <point x="470.01266282211566" y="0.0" type="line"/>
      <point x="470.01266282211566" y="52.9600354881639" type="line"/>
      <point x="346.9979836270516" y="80.86373351615114" type="line"/>
      <point x="346.9979836270516" y="825.2848328426827" type="line"/>
      <point x="426.7038754688067" y="888.5003831108602"/>
      <point x="512.5901520345203" y="933.2725329676978"/>
      <point x="625.3870629511634" y="933.2725329676978" type="curve" smooth="yes"/>
      <point x="775.8827680767835" y="933.2725329676978"/>
      <point x="800.2916078557892" y="824.4283582691455"/>
      <point x="800.2916078557892" y="641.292817679558" type="curve" smooth="yes"/>
      <point x="800.2916078557892" y="80.67500100818648" type="line"/>
      <point x="685.6142275275236" y="52.9600354881639" type="line"/>
      <point x="685.6142275275236" y="0.0" type="line"/>
      <point x="1120.5990240754927" y="0.0" type="line"/>
      <point x="1120.5990240754927" y="52.96003548816389" type="line"/>
      <point x="1000.7600919466066" y="80.67500100818648" type="line"/>
      <point x="1000.7600919466066" y="644.6958906319312" type="line" smooth="yes"/>
      <point x="1000.7600919466066" y="909.3860950921483"/>
      <point x="937.7571480421018" y="1058.0610154454168"/>
      <point x="707.0584748155018" y="1058.0610154454168" type="curve" smooth="yes"/>
      <point x="550.9630197201272" y="1058.0610154454168"/>
      <point x="414.0919062789854" y="957.2843085857162"/>
      <point x="341.53550832762033" y="872.7710610154454" type="curve"/>
      <point x="346.4056539097472" y="1038.588337298867" type="line"/>
      <point x="346.33161269508406" y="1613.2028874460623" type="line"/>
      <point x="314.12182925353875" y="1637.2431342501109" type="line"/>
      <point x="283.07182320441984" y="1637.2431342501109" type="line"/>
      <point x="8.703633504052906" y="1586.5137314997785" type="line"/>
      <point x="8.703633504052906" y="1541.1907085534542" type="line"/>
      <point x="147.9555188127596" y="1515.970762592249" type="line"/>
    </contour>
  </outline>
</glyph>
<glyph name="k" format="2">
  <advance width="1077.8422389805219"/>
  <unicode hex="006B"/>
  <anchor x="627.1818768399404" y="0.0" name="bottom"/>
  <anchor x="584.5978949066421" y="1601.0802919708028" name="top"/>
  <outline>
    <contour>
      <point x="144.6212848328427" y="80.6560067750131" type="line"/>
      <point x="24.02149453562932" y="52.75230874702586" type="line"/>
      <point x="24.02149453562932" y="0.0" type="line"/>
      <point x="469.1248134855022" y="0.0" type="line"/>
      <point x="469.1248134855022" y="52.54458200588781" type="line"/>
      <point x="342.6199136992378" y="80.6560067750131" type="line"/>
      <point x="342.6199136992378" y="251.16058394160584" type="line"/>
      <point x="334.5576077751341" y="360.14275920474256" type="line"/>
      <point x="510.3394765495827" y="546.806750816631" type="line"/>
      <point x="772.9233375005041" y="80.65600677501311" type="line"/>
      <point x="657.5507924345688" y="52.960035488163896" type="line"/>
      <point x="659.0048796225351" y="0.0" type="line"/>
      <point x="1119.9116022099447" y="0.0" type="line"/>
      <point x="1119.9116022099447" y="54.01903456063234" type="line"/>
      <point x="1006.2566842763235" y="80.2045005444207" type="line"/>
      <point x="645.4785256281001" y="678.8062265596644" type="line"/>
      <point x="899.1113037867483" y="949.3480259708836" type="line"/>
      <point x="1024.2011936927854" y="979.4116223736742" type="line"/>
      <point x="1024.2011936927854" y="1032.5912408759125" type="line"/>
      <point x="625.6405613582289" y="1032.5912408759125" type="line"/>
      <point x="625.6405613582289" y="979.4116223736742" type="line"/>
      <point x="770.5119167641247" y="948.9069645521636" type="line"/>
      <point x="335.76468927692866" y="460.27112150663385" type="line"/>
      <point x="342.6939549139008" y="618.3425414364641" type="line"/>
      <point x="342.6939549139008" y="1612.9951607049243" type="line"/>
      <point x="311.14340444408606" y="1637.2431342501109" type="line"/>
      <point x="280.47086341089647" y="1637.2431342501109" type="line"/>
      <point x="8.911360245190949" y="1586.5137314997785" type="line"/>
      <point x="8.911360245190949" y="1541.190708553454" type="line"/>
      <point x="144.6212848328427" y="1515.970762592249" type="line"/>
    </contour>
  </outline>
</glyph>
<glyph name="l" format="2">
  <advance width="512.7620276646369"/>
  <unicode hex="006C"/>
  <anchor x="269.2637012541839" y="0.0" name="bottom"/>
  <anchor x="266.76339879824167" y="1634.0" name="top"/>
  <anchor x="536.8131225551479" y="1110.2817679558011" name="topright"/>
  <outline>
    <contour>
      <point x="168.45590192361976" y="81.07146025728919" type="line"/>
      <point x="38.219139412025655" y="52.752308747025864" type="line"/>
      <point x="38.219139412025655" y="0.0" type="line"/>
      <point x="497.17627132314385" y="0.0" type="line"/>
      <point x="497.17627132314385" y="52.752308747025864" type="line"/>
      <point x="365.0004436020486" y="80.41222728555874" type="line"/>
      <point x="365.0004436020486" y="1613.2028874460623" type="line"/>
      <point x="334.62221236439893" y="1637.2431342501109" type="line"/>
      <point x="304.15739807234746" y="1637.2431342501109" type="line"/>
      <point x="31.391458644190834" y="1586.5137314997785" type="line"/>
      <point x="31.391458644190834" y="1541.1907085534542" type="line"/>
      <point x="168.45590192361976" y="1515.970762592249" type="line"/>
    </contour>
  </outline>
</glyph>
<glyph name="m" format="2">
  <advance width="1779.9257571480418"/>
  <unicode hex="006D"/>
  <anchor x="908.549098681292" y="0.0" name="bottom"/>
  <anchor x="903.8510303665767" y="1110.2817679558011" name="top"/>
  <outline>
    <contour>
      <point x="41.00899302334959" y="0.0" type="line"/>
      <point x="478.46078154615486" y="0.0" type="line"/>
      <point x="478.46078154615486" y="52.960035488163896" type="line"/>
      <point x="359.6001532443441" y="80.86373351615114" type="line"/>
      <point x="359.6001532443441" y="825.2848328426826" type="line"/>
      <point x="437.9652780578296" y="888.6557244828005"/>
      <point x="523.3443561721176" y="931.1545348227609"/>
      <point x="635.8194942936647" y="931.1545348227609" type="curve" smooth="yes"/>
      <point x="784.9082953583095" y="931.1545348227609"/>
      <point x="806.3445578094123" y="822.4511836109208"/>
      <point x="806.3445578094123" y="641.2928176795581" type="curve" smooth="yes"/>
      <point x="806.3445578094123" y="80.86373351615114" type="line"/>
      <point x="690.3721821188047" y="52.960035488163896" type="line"/>
      <point x="690.3721821188047" y="0.0" type="line"/>
      <point x="1126.8073154010565" y="0.0" type="line"/>
      <point x="1126.8073154010565" y="52.960035488163896" type="line"/>
      <point x="1006.8018308666369" y="80.86373351615114" type="line"/>
      <point x="1007.331330402871" y="651.9663265717627" type="line" smooth="yes"/>
      <point x="1007.331330402871" y="717.4561438883736"/>
      <point x="1005.0522240593621" y="791.8471186030566"/>
      <point x="995.0141549380975" y="832.9422107513005" type="curve"/>
      <point x="1066.5010283502038" y="892.0475864015809"/>
      <point x="1149.45082066379" y="931.5319998386902"/>
      <point x="1260.1271928055814" y="931.5319998386902" type="curve" smooth="yes"/>
      <point x="1412.2363592370045" y="931.5319998386902"/>
      <point x="1438.0481509860062" y="821.1707061338066"/>
      <point x="1438.0481509860062" y="640.0195991450579" type="curve" smooth="yes"/>
      <point x="1438.0481509860062" y="80.65600677501311" type="line"/>
      <point x="1324.1779650764204" y="52.960035488163896" type="line"/>
      <point x="1324.1779650764204" y="0.0" type="line"/>
      <point x="1759.1071903859336" y="0.0" type="line"/>
      <point x="1759.1071903859336" y="52.960035488163896" type="line"/>
      <point x="1638.5093761342096" y="80.65600677501311" type="line"/>
      <point x="1638.5093761342096" y="645.5248618784531" type="line" smooth="yes"/>
      <point x="1638.5093761342096" y="907.6310440779126"/>
      <point x="1574.5663185062708" y="1055.94301730048"/>
      <point x="1342.626930677098" y="1055.94301730048" type="curve" smooth="yes"/>
      <point x="1191.938218332863" y="1055.94301730048"/>
      <point x="1052.926281405009" y="961.1202968100979"/>
      <point x="982.0477073839579" y="877.0595233294349" type="curve"/>
      <point x="942.0391982901158" y="996.7725934588861"/>
      <point x="861.7069806831472" y="1055.94301730048"/>
      <point x="716.7287171835303" y="1055.94301730048" type="curve" smooth="yes"/>
      <point x="566.2873734725974" y="1055.94301730048"/>
      <point x="426.53796830261723" y="958.6910916643142"/>
      <point x="352.2098237690043" y="872.5463967415412" type="curve"/>
      <point x="352.6613299995967" y="1005.1187240391981" type="line"/>
      <point x="330.6448360688793" y="1042.0338347380732" type="line"/>
      <point x="283.5651086825019" y="1048.0732749929425" type="line"/>
      <point x="31.31886921805058" y="987.4275113925071" type="line"/>
      <point x="31.31886921805058" y="936.419284590878" type="line"/>
      <point x="158.89514860668632" y="898.96721377586" type="line"/>
      <point x="158.89514860668632" y="80.86373351615114" type="line"/>
      <point x="41.00899302334959" y="52.960035488163896" type="line"/>
    </contour>
  </outline>
</glyph>
<glyph name="n" format="2">
  <advance width="1153.863652861233"/>
  <unicode hex="006E"/>
  <anchor x="612.2240593620196" y="0.0" name="bottom"/>
  <anchor x="582.1964350526274" y="1110.2817679558011" name="top"/>
  <outline>
    <contour>
      <point x="158.89514860668632" y="80.86373351615116" type="line"/>
      <point x="39.50639190224623" y="52.9600354881639" type="line"/>
      <point x="39.50639190224623" y="0.0" type="line"/>
      <point x="479.1560672662016" y="0.0" type="line"/>
      <point x="479.1560672662016" y="52.9600354881639" type="line"/>
      <point x="359.6001532443441" y="80.86373351615114" type="line"/>
      <point x="359.6001532443441" y="824.8333266120902" type="line"/>
      <point x="437.8912368431665" y="887.9080533935556"/>
      <point x="519.3412106303183" y="933.2725329676978"/>
      <point x="637.1740129854418" y="933.2725329676978" type="curve" smooth="yes"/>
      <point x="786.2628140500867" y="933.2725329676978"/>
      <point x="812.9597935234101" y="824.5691817558577"/>
      <point x="812.9597935234101" y="643.4108158244951" type="curve" smooth="yes"/>
      <point x="812.9597935234101" y="80.41222728555876" type="line"/>
      <point x="698.9487841271123" y="52.9600354881639" type="line"/>
      <point x="698.9487841271123" y="0.0" type="line"/>
      <point x="1133.0450860991248" y="0.0" type="line"/>
      <point x="1133.0450860991248" y="53.03407670282696" type="line"/>
      <point x="1013.9465661168691" y="80.41222728555876" type="line"/>
      <point x="1013.9465661168691" y="647.4062184941727" type="line" smooth="yes"/>
      <point x="1013.9465661168691" y="909.5791829656813"/>
      <point x="949.3364923176191" y="1058.0610154454168"/>
      <point x="718.9122071218293" y="1058.0610154454168" type="curve" smooth="yes"/>
      <point x="563.7792878170748" y="1058.0610154454168"/>
      <point x="426.0937210146389" y="957.9506795176836"/>
      <point x="352.20982376900434" y="872.2790256885914" type="curve"/>
      <point x="353.566278178812" y="943.1554220268581" type="line"/>
      <point x="353.566278178812" y="1023.4301326773399" type="line"/>
      <point x="322.5732951566722" y="1048.0732749929425" type="line"/>
      <point x="283.56510868250194" y="1048.0732749929425" type="line"/>
      <point x="31.31886921805058" y="987.4275113925071" type="line"/>
      <point x="31.31886921805058" y="936.419284590878" type="line"/>
      <point x="158.89514860668632" y="898.96721377586" type="line"/>
    </contour>
  </outline>
</glyph>
<glyph name="o" format="2">
  <advance width="1051.1642940678312"/>
  <unicode hex="006F"/>
  <anchor x="527.424244868331" y="0.0" name="bottom"/>
  <anchor x="526.5172803161672" y="519.8719603177802" name="center"/>
  <anchor x="573.2324474734846" y="12.591442513207245" name="ogonek"/>
  <anchor x="528.0165745856355" y="1110.074041214663" name="top"/>
  <anchor x="747.6009194660644" y="1032.6652820905756" name="topright"/>
  <outline>
    <contour>
      <point x="46.57873936363269" y="509.204258579667" type="curve" smooth="yes"/>
      <point x="46.57873936363269" y="211.51800621042864"/>
      <point x="188.74396096301973" y="-22.41545348227608"/>
      <point x="510.59140218574834" y="-22.41545348227608" type="curve" smooth="yes"/>
      <point x="758.3401621163849" y="-22.41545348227608"/>
      <point x="1004.5855547041981" y="171.40150018147358"/>
      <point x="1004.5855547041981" y="534.5639795136508" type="curve" smooth="yes"/>
      <point x="1004.5855547041981" y="831.6270516594749"/>
      <point x="866.3678670806952" y="1065.5401459854015"/>
      <point x="542.0873492761222" y="1065.5401459854015" type="curve" smooth="yes"/>
      <point x="294.62035730128645" y="1065.5401459854015"/>
      <point x="46.57873936363269" y="871.4382384965924"/>
    </contour>
    <contour>
      <point x="526.9071258619994" y="45.61213049965722" type="curve" smooth="yes"/>
      <point x="340.23172157922335" y="45.61213049965722"/>
      <point x="271.21018671613496" y="274.2494253337097"/>
      <point x="271.21018671613496" y="531.9577368230027" type="curve" smooth="yes"/>
      <point x="271.21018671613496" y="844.5088518772432"/>
      <point x="363.7050852925758" y="997.5125620034682"/>
      <point x="528.18111061822" y="997.5125620034682" type="curve" smooth="yes"/>
      <point x="713.8539339436222" y="997.5125620034682"/>
      <point x="780.2214784046458" y="767.1950235915633"/>
      <point x="780.2214784046458" y="511.3950477880388" type="curve" smooth="yes"/>
      <point x="780.2214784046458" y="201.20498447392833"/>
      <point x="688.2848731701415" y="45.61213049965722"/>
    </contour>
  </outline>
</glyph>
<glyph name="p" format="2">
  <advance width="1097.6041859902405"/>
  <unicode hex="0070"/>
  <anchor x="575.263539944348" y="1110.5635359116022" name="top"/>
  <outline>
    <contour>
      <point x="1048.8821631648989" y="556.7571077146429" type="curve" smooth="yes"/>
      <point x="1048.882163164899" y="889.7110134290439"/>
      <point x="892.9785861192887" y="1064.4607815461545"/>
      <point x="649.1923216518127" y="1064.4607815461545" type="curve" smooth="yes"/>
      <point x="487.0967859015204" y="1064.4607815461545"/>
      <point x="371.5515989837481" y="960.2435375247005"/>
      <point x="332.92180505706335" y="901.098157035125" type="curve"/>
      <point x="333.96043876275354" y="1022.9006331411057" type="line"/>
      <point x="302.7413800056459" y="1048.0732749929425" type="line"/>
      <point x="268.49473726660483" y="1048.0732749929425" type="line"/>
      <point x="14.652740250836803" y="987.353470177844" type="line"/>
      <point x="14.652740250836803" y="936.419284590878" type="line"/>
      <point x="143.2840666209622" y="899.0412549905232" type="line"/>
      <point x="143.49179336210025" y="-376.0998507884018" type="line"/>
      <point x="18.85074807436383" y="-405.2767673508892" type="line"/>
      <point x="18.85074807436383" y="-458.021938137678" type="line"/>
      <point x="504.5112311973223" y="-458.021938137678" type="line"/>
      <point x="504.5112311973223" y="-405.2767673508892" type="line"/>
      <point x="339.6805258700649" y="-376.629350324636" type="line"/>
      <point x="339.6805258700649" y="-161.65657135943866" type="line"/>
      <point x="336.36335040529093" y="10.854780820260517" type="line"/>
      <point x="372.4133564544098" y="-5.268540549259991"/>
      <point x="455.2892688631689" y="-22.0"/>
      <point x="540.8337298866797" y="-22.0" type="curve" smooth="yes"/>
      <point x="829.2753558898255" y="-22.0"/>
      <point x="1048.8821631648989" y="220.01762309956854"/>
    </contour>
    <contour>
      <point x="577.3422994717104" y="963.7627535588982" type="curve" smooth="yes"/>
      <point x="717.2047425091745" y="963.7627535588982"/>
      <point x="827.0086704036778" y="839.5335726095899"/>
      <point x="827.0086704036778" y="536.035407508973" type="curve" smooth="yes"/>
      <point x="827.0086704036777" y="208.80203250393188"/>
      <point x="718.1292495059888" y="44.24515062305924"/>
      <point x="529.8802677743276" y="44.24515062305924" type="curve" smooth="yes"/>
      <point x="434.45743436706056" y="44.24515062305924"/>
      <point x="364.39161995402674" y="86.51421542928578"/>
      <point x="339.6805258700649" y="122.57188369560835" type="curve"/>
      <point x="339.68052587006497" y="849.0410533532281" type="line"/>
      <point x="377.17102875347825" y="891.14949389039"/>
      <point x="460.41819574948585" y="963.7627535588982"/>
    </contour>
  </outline>
</glyph>
<glyph name="q" format="2">
  <advance width="1062.310118159455"/>
  <unicode hex="0071"/>
  <outline>
    <contour>
      <point x="579.0501673589548" y="-458.021938137678" type="line"/>
      <point x="1082.7875549461628" y="-458.021938137678" type="line"/>
      <point x="1082.7875549461628" y="-405.745977335968" type="line"/>
      <point x="956.6674194459008" y="-377.38032826551597" type="line"/>
      <point x="956.6674194459008" y="1029.4216235834979" type="line"/>
      <point x="920.3511715126831" y="1054.438480461346" type="line"/>
      <point x="904.1790135903539" y="1054.438480461346" type="line"/>
      <point x="811.3191111828045" y="1005.7613824252934" type="line"/>
      <point x="747.86143485099" y="1036.1535669637458"/>
      <point x="672.2613622615638" y="1064.0453280638787"/>
      <point x="561.3071339274912" y="1064.0453280638787" type="curve" smooth="yes"/>
      <point x="267.7738436101141" y="1064.0453280638787"/>
      <point x="48.432471669960066" y="828.0765415171189"/>
      <point x="48.432471669960066" y="483.3058031213454" type="curve" smooth="yes"/>
      <point x="48.432471669960066" y="152.74073476630235"/>
      <point x="218.9509618098964" y="-22.207726741138043"/>
      <point x="450.59741097713436" y="-22.207726741138043" type="curve" smooth="yes"/>
      <point x="617.6872605557123" y="-22.207726741138043"/>
      <point x="720.6157599709642" y="78.12977376295518"/>
      <point x="762.1673589547123" y="137.97560188732507" type="curve"/>
      <point x="760.1752631366699" y="-46.0" type="line"/>
      <point x="760.1752631366699" y="-377.30628705085286" type="line"/>
      <point x="579.0501673589548" y="-405.745977335968" type="line"/>
    </contour>
    <contour>
      <point x="523.8162680969473" y="77.32911239262815" type="curve" smooth="yes"/>
      <point x="383.90208492962853" y="77.32911239262815"/>
      <point x="272.49526152357146" y="207.59176513287898"/>
      <point x="273.39827398475626" y="508.2498286082994" type="curve" smooth="yes"/>
      <point x="274.227245231278" y="830.741299350728"/>
      <point x="381.959874178328" y="997.8795418800663"/>
      <point x="573.2146630640804" y="997.8795418800663" type="curve" smooth="yes"/>
      <point x="667.7685203855305" y="997.8795418800663"/>
      <point x="735.2145017542445" y="958.1282413195146"/>
      <point x="759.9675363955317" y="921.0856151953865" type="curve"/>
      <point x="759.9675363955317" y="194.01282413195148" type="line"/>
      <point x="721.4600556518934" y="148.97463402830988"/>
      <point x="641.5427269427753" y="77.32911239262815"/>
    </contour>
  </outline>
</glyph>
<glyph name="r" format="2">
  <advance width="739.4923176190669"/>
  <unicode hex="0072"/>
  <anchor x="257.127515425253" y="0.0" name="bottom"/>
  <anchor x="402.4657821510667" y="1110.074041214663" name="top"/>
  <outline>
    <contour>
      <point x="31.36153566963745" y="0.0" type="line"/>
      <point x="527.038956325362" y="0.0" type="line"/>
      <point x="527.038956325362" y="52.131064241642136" type="line"/>
      <point x="356.7325482921321" y="80.24248901076743" type="line"/>
      <point x="356.5248215509941" y="745.3325402266403" type="line"/>
      <point x="413.1424365850707" y="831.8158648223576"/>
      <point x="502.8512320038715" y="871.9459208775256"/>
      <point x="617.5653506472557" y="871.9459208775256" type="curve" smooth="yes"/>
      <point x="656.2867685607129" y="871.9459208775256"/>
      <point x="683.3591160220996" y="861.1060208896237"/>
      <point x="696.5941444529581" y="852.2255111505424" type="curve"/>
      <point x="696.5941444529581" y="1042.5020768641366" type="line"/>
      <point x="684.4500141146107" y="1047.34738073154"/>
      <point x="667.5058273178207" y="1051.247731580433"/>
      <point x="638.8624027100053" y="1051.247731580433" type="curve" smooth="yes"/>
      <point x="478.58079606404" y="1051.247731580433"/>
      <point x="364.7912650723878" y="882.2863652861233"/>
      <point x="347.08416340686375" y="800.1432028067912" type="curve"/>
      <point x="342.76835907569466" y="789.5532120821068" type="line"/>
      <point x="347.7277089970561" y="960.8623220550874" type="line"/>
      <point x="348.25720853329034" y="1023.845586159616" type="line"/>
      <point x="317.08210670645644" y="1048.0732749929425" type="line"/>
      <point x="276.33338710327865" y="1048.0732749929425" type="line"/>
      <point x="29.103238294955037" y="987.4275113925071" type="line"/>
      <point x="29.103238294955037" y="936.21155784974" type="line"/>
      <point x="156.5458321571158" y="898.96721377586" type="line"/>
      <point x="156.5458321571158" y="79.58325603903698" type="line"/>
      <point x="31.36153566963745" y="52.50852925757148" type="line"/>
    </contour>
  </outline>
</glyph>
<glyph name="s" format="2">
  <advance width="847.5959591886115"/>
  <unicode hex="0073"/>
  <anchor x="417.7315804331169" y="-2.5359116022099446" name="bottom"/>
  <anchor x="445.10311731257815" y="1110.2817679558011" name="top"/>
  <outline>
    <contour>
      <point x="163.3583498003791" y="299.7270637577126" type="line"/>
      <point x="63.55159898374804" y="299.7270637577126" type="line"/>
      <point x="61.68205831350568" y="53.63507682380934" type="line"/>
      <point x="124.62624511029561" y="43.63374601766343"/>
      <point x="260.7813445174819" y="-21.56418115094568"/>
      <point x="411.3494374319474" y="-21.56418115094568" type="curve" smooth="yes"/>
      <point x="654.7300479896762" y="-21.56418115094568"/>
      <point x="789.506754849377" y="103.95305883776263"/>
      <point x="789.506754849377" y="293.8265515989837" type="curve" smooth="yes"/>
      <point x="789.506754849377" y="471.0964632818486"/>
      <point x="632.0998104609429" y="545.0168972053073"/>
      <point x="465.2543452837036" y="619.702383352825" type="curve" smooth="yes"/>
      <point x="339.77606162035727" y="676.70101221922"/>
      <point x="231.0168568778481" y="729.8624430374642"/>
      <point x="231.0168568778481" y="843.6868976085816" type="curve" smooth="yes"/>
      <point x="231.0168568778481" y="953.3808928499415"/>
      <point x="335.08117917490017" y="1002.6226559664477"/>
      <point x="430.5884179537847" y="1002.433923458483" type="curve" smooth="yes"/>
      <point x="531.9871758680487" y="1002.2451909505181"/>
      <point x="581.4175505101424" y="958.3053998467558"/>
      <point x="600.5171190063313" y="909.1092067588821" type="curve"/>
      <point x="644.8533693591967" y="768.138444166633" type="line"/>
      <point x="731.8456264870752" y="768.138444166633" type="line"/>
      <point x="734.1306206395935" y="1004.6194297697302" type="line"/>
      <point x="684.9179739484615" y="1014.9065209501149"/>
      <point x="605.1824817518249" y="1063.65612775739"/>
      <point x="439.5872887849337" y="1063.65612775739" type="curve" smooth="yes"/>
      <point x="232.57962656772997" y="1063.65612775739"/>
      <point x="76.7505343388313" y="956.2038553050771"/>
      <point x="76.7505343388313" y="773.9547525910392" type="curve" smooth="yes"/>
      <point x="76.7505343388313" y="616.6900834778401"/>
      <point x="179.7087550913417" y="517.8316731862725"/>
      <point x="358.8999475743033" y="442.31648989797156" type="curve" smooth="yes"/>
      <point x="541.4381578416744" y="363.7902972133726"/>
      <point x="636.7614630802113" y="305.753276606041"/>
      <point x="636.7614630802113" y="206.4621930072186" type="curve" smooth="yes"/>
      <point x="636.7614630802113" y="103.02238173972657"/>
      <point x="557.9692301488084" y="41.8657498890995"/>
      <point x="422.30640803322984" y="41.8657498890995" type="curve" smooth="yes"/>
      <point x="320.7707787232327" y="41.8657498890995"/>
      <point x="224.26971004557004" y="102.90474654192037"/>
      <point x="206.33411299754005" y="152.58527241198533" type="curve"/>
    </contour>
  </outline>
</glyph>
<glyph name="t" format="2">
  <advance width="641.1649796346331"/>
  <unicode hex="0074"/>
  <anchor x="352.43432673307257" y="0.0" name="bottom"/>
  <anchor x="254.63390732749932" y="561.2554744525547" name="center"/>
  <anchor x="293.5949106746784" y="1361.6772190184297" name="top"/>
  <anchor x="570.0496834294471" y="1110.2817679558011" name="topright"/>
  <outline>
    <contour>
      <point x="350.4927612211155" y="-18.29874581602613" type="curve" smooth="yes"/>
      <point x="464.7269427753358" y="-18.29874581602613"/>
      <point x="578.8525628100174" y="30.377989272895917"/>
      <point x="632.4800983989999" y="76.1707061338065" type="curve"/>
      <point x="608.9482598701456" y="133.29906843569788" type="line"/>
      <point x="572.2608783320563" y="112.2328104206154"/>
      <point x="493.9785861192886" y="90.81138847441223"/>
      <point x="446.0454490462555" y="90.81138847441223" type="curve" smooth="yes"/>
      <point x="386.7285558736944" y="90.81138847441223"/>
      <point x="363.12820099205544" y="109.98838569181756"/>
      <point x="363.12820099205544" y="241.22272855587372" type="curve" smooth="yes"/>
      <point x="363.12820099205544" y="946.5435738194137" type="line"/>
      <point x="600.7851756260837" y="946.5435738194137" type="line"/>
      <point x="600.7851756260837" y="1032.7393233052387" type="line"/>
      <point x="362.81239666088635" y="1032.7393233052387" type="line"/>
      <point x="362.1316288260677" y="1337.8616768157437" type="line"/>
      <point x="266.4063394765496" y="1337.8616768157437" type="line"/>
      <point x="248.63185062709195" y="1265.9276122111546"/>
      <point x="215.1828850264145" y="1158.3687946122516"/>
      <point x="196.96213251603015" y="1114.020163729483" type="curve" smooth="yes"/>
      <point x="180.9314836472154" y="1077.2470863410897"/>
      <point x="166.02532564423117" y="1048.8556276968989"/>
      <point x="136.6649997983627" y="1033.082550308505" type="curve" smooth="yes"/>
      <point x="114.2411985320805" y="1020.8796225349842"/>
      <point x="54.77581965560349" y="1007.5519619308789"/>
      <point x="26.459692704762666" y="998.5901520345202" type="curve"/>
      <point x="26.459692704762666" y="946.5435738194137" type="line"/>
      <point x="161.21288865588576" y="946.5435738194137" type="line"/>
      <point x="161.21288865588576" y="182.79279751582857" type="line" smooth="yes"/>
      <point x="161.21288865588576" y="29.945154655805133"/>
      <point x="232.04044844134373" y="-18.29874581602613"/>
    </contour>
  </outline>
</glyph>
<glyph name="u" format="2">
  <advance width="1100.1117070613382"/>
  <unicode hex="0075"/>
  <anchor x="573.0449651167479" y="0.0" name="bottom"/>
  <anchor x="910.7792071621565" y="20.0" name="ogonek"/>
  <anchor x="541.2975763197161" y="1110.5635359116022" name="top"/>
  <anchor x="877.1376779449126" y="1035.0093559704806" name="topright"/>
  <outline>
    <contour>
      <point x="876.4951002137357" y="-17.296810097995724" type="curve" smooth="yes"/>
      <point x="953.8259870145581" y="-17.296810097995724"/>
      <point x="1013.2572488607495" y="0.0"/>
      <point x="1057.8888575230876" y="12.495463160866233" type="curve"/>
      <point x="1058.266322539017" y="62.09896358430456" type="line"/>
      <point x="954.4573940396016" y="65.8380449247893" type="line"/>
      <point x="954.4573940396016" y="1026.0362140581522" type="line"/>
      <point x="921.4938500625075" y="1047.9251925636165" type="line"/>
      <point x="893.1870387546882" y="1047.9251925636165" type="line"/>
      <point x="631.218695809977" y="989.8782514013792" type="line"/>
      <point x="631.218695809977" y="943.9176513287897" type="line"/>
      <point x="757.2936242287374" y="906.9838690164133" type="line"/>
      <point x="757.2936242287374" y="205.9053111263459" type="line"/>
      <point x="700.4163406863734" y="153.352381336452"/>
      <point x="603.748356656047" y="98.07218615155061"/>
      <point x="491.39593499213623" y="98.07218615155061" type="curve" smooth="yes"/>
      <point x="364.20256482639024" y="98.07218615155061"/>
      <point x="332.42214784046456" y="187.07424285195788"/>
      <point x="332.42214784046456" y="356.9015606726621" type="curve" smooth="yes"/>
      <point x="332.42214784046456" y="1026.0362140581522" type="line"/>
      <point x="302.68072750735973" y="1047.9251925636165" type="line"/>
      <point x="274.2342622091382" y="1047.9251925636165" type="line"/>
      <point x="19.75077630358511" y="989.8782514013792" type="line"/>
      <point x="19.75077630358511" y="943.6214864701375" type="line"/>
      <point x="134.69484211799818" y="906.9838690164133" type="line"/>
      <point x="135.22434165423238" y="351.44912691051337" type="line" smooth="yes"/>
      <point x="135.22434165423238" y="104.33774246884705"/>
      <point x="209.436222123644" y="-20.525547445255473"/>
      <point x="427.49433399201524" y="-20.525547445255473" type="curve" smooth="yes"/>
      <point x="585.8217526313667" y="-20.525547445255473"/>
      <point x="701.411904665887" y="74.4380368592975"/>
      <point x="766.7343227003269" y="158.41605839416061" type="curve"/>
      <point x="766.7343227003269" y="69.7041174335605" type="line" smooth="yes"/>
      <point x="766.7343227003269" y="3.142799532201476"/>
      <point x="807.6601201758278" y="-17.296810097995724"/>
    </contour>
  </outline>
</glyph>
<glyph name="v" format="2">
  <advance width="987.2553534701779"/>
  <unicode hex="0076"/>
  <outline>
    <contour>
      <point x="-19.26983102794693" y="981.3598822438199" type="line"/>
      <point x="67.09783441545349" y="950.749889099488" type="line"/>
      <point x="403.73198370770655" y="-4.204379562043796" type="line"/>
      <point x="586.7054079122474" y="-4.204379562043796" type="line"/>
      <point x="928.1290478686938" y="950.749889099488" type="line"/>
      <point x="1021.6307214582408" y="981.3598822438199" type="line"/>
      <point x="1021.6307214582408" y="1032.6652820905756" type="line"/>
      <point x="688.8072347461386" y="1032.6652820905756" type="line"/>
      <point x="688.8072347461386" y="981.1521555026818" type="line"/>
      <point x="806.221196112433" y="950.749889099488" type="line"/>
      <point x="602.1703431866758" y="272.6492317619067" type="line"/>
      <point x="553.7254506593541" y="95.96281808283261" type="line"/>
      <point x="499.72024841714716" y="278.3837157720692" type="line"/>
      <point x="287.62346251562684" y="950.749889099488" type="line"/>
      <point x="407.5147800137113" y="981.3598822438199" type="line"/>
      <point x="407.5147800137113" y="1032.6652820905756" type="line"/>
      <point x="-19.26983102794693" y="1032.6652820905756" type="line"/>
    </contour>
  </outline>
</glyph>
<glyph name="w" format="2">
  <advance width="1553.70685970077"/>
  <unicode hex="0077"/>
  <anchor x="779.9922168004193" y="0.0" name="bottom"/>
  <anchor x="803.1229180949309" y="1110.2817679558011" name="top"/>
  <outline>
    <contour>
      <point x="-19.632495866435455" y="981.3598822438198" type="line"/>
      <point x="67.21873613743597" y="951.4235189740695" type="line"/>
      <point x="361.3119732225672" y="-4.204379562043796" type="line"/>
      <point x="536.7902568859137" y="-4.204379562043796" type="line"/>
      <point x="721.1609872161955" y="650.0677501310644" type="line"/>
      <point x="773.530749687462" y="891.3751260233093" type="line"/>
      <point x="828.2270032665243" y="650.2754768722024" type="line"/>
      <point x="1012.2438198169134" y="-4.204379562043796" type="line"/>
      <point x="1192.9612453119325" y="-4.204379562043796" type="line"/>
      <point x="1494.768076783482" y="950.9720127434771" type="line"/>
      <point x="1595.0994878412712" y="981.3598822438198" type="line"/>
      <point x="1595.0994878412712" y="1032.7393233052387" type="line"/>
      <point x="1264.080453280639" y="1032.7393233052387" type="line"/>
      <point x="1264.080453280639" y="981.5676089849579" type="line"/>
      <point x="1383.0644029519704" y="950.7498890994879" type="line"/>
      <point x="1205.4233173367745" y="292.3941605839416" type="line"/>
      <point x="1163.834939710449" y="95.63543977094001" type="line"/>
      <point x="1125.2636205992658" y="275.90168165503894" type="line"/>
      <point x="932.9725773279026" y="1032.7393233052387" type="line"/>
      <point x="731.053312900754" y="1032.7393233052387" type="line"/>
      <point x="541.939307174255" y="292.63794007339595" type="line"/>
      <point x="503.89087389603594" y="96.01290478686937" type="line"/>
      <point x="464.92503125378073" y="275.4501754244465" type="line"/>
      <point x="285.5596644755414" y="951.2754365447433" type="line"/>
      <point x="396.38125579707224" y="981.5676089849579" type="line"/>
      <point x="396.38125579707224" y="1032.7393233052387" type="line"/>
      <point x="-19.632495866435455" y="1032.7393233052387" type="line"/>
    </contour>
  </outline>
</glyph>
<glyph name="x" format="2">
  <advance width="1059.4494495301851"/>
  <unicode hex="0078"/>
  <outline>
    <contour>
      <point x="122.9596322135742" y="82.77400491994999" type="line"/>
      <point x="16.482760011291695" y="52.963987579142646" type="line"/>
      <point x="16.482760011291695" y="0.0" type="line"/>
      <point x="378.33705690204465" y="0.0" type="line"/>
      <point x="378.33705690204465" y="52.963987579142646" type="line"/>
      <point x="246.53466145098201" y="82.77400491994999" type="line"/>
      <point x="405.9752389401944" y="331.43759325724886" type="line"/>
      <point x="473.0719038593378" y="447.2193007218615" type="line"/>
      <point x="551.0565390974715" y="321.7442835826915" type="line"/>
      <point x="700.2632173246765" y="82.77400491994999" type="line"/>
      <point x="579.0965036093074" y="52.963987579142646" type="line"/>
      <point x="579.0965036093074" y="0.0" type="line"/>
      <point x="1048.2616848812356" y="0.0" type="line"/>
      <point x="1048.2616848812356" y="52.963987579142646" type="line"/>
      <point x="940.7175868048554" y="82.32249868935759" type="line"/>
      <point x="620.4889301125137" y="549.4956244707022" type="line"/>
      <point x="914.3139089405975" y="950.4771141670363" type="line"/>
      <point x="1016.78493366133" y="981.1521555026818" type="line"/>
      <point x="1016.78493366133" y="1032.6652820905756" type="line"/>
      <point x="674.1755051014235" y="1032.6652820905756" type="line"/>
      <point x="674.1755051014235" y="981.1521555026818" type="line"/>
      <point x="796.4714683227811" y="950.2693874258982" type="line"/>
      <point x="629.291446545953" y="694.6742751139251" type="line"/>
      <point x="575.9290236722184" y="594.8876476993184" type="line"/>
      <point x="511.280759769327" y="703.5963221357423" type="line"/>
      <point x="357.76009194660645" y="950.4771141670363" type="line"/>
      <point x="483.36581038028794" y="981.1521555026818" type="line"/>
      <point x="483.36581038028794" y="1032.6652820905756" type="line"/>
      <point x="17.783360890430302" y="1032.6652820905756" type="line"/>
      <point x="17.783360890430302" y="981.1521555026818" type="line"/>
      <point x="117.46295922893897" y="950.4771141670363" type="line"/>
      <point x="429.7244021454208" y="496.78638544985284" type="line"/>
    </contour>
  </outline>
</glyph>
<glyph name="y" format="2">
  <advance width="994.9940315360733"/>
  <unicode hex="0079"/>
  <anchor x="818.6444731217485" y="0.0" name="bottom"/>
  <anchor x="524.5721256603622" y="1110.2817679558011" name="top"/>
  <outline>
    <contour>
      <point x="213.1756260838005" y="-504.16578618381254" type="curve" smooth="yes"/>
      <point x="384.2349881033996" y="-504.16578618381254"/>
      <point x="480.2314796144695" y="-355.25337742468855"/>
      <point x="596.1188046941163" y="-32.675121990563376" type="curve"/>
      <point x="622.9289833447594" y="39.06738718393353"/>
      <point x="778.9245473242731" y="507.9005928136468"/>
      <point x="933.4415453482278" y="951.2754365447433" type="curve"/>
      <point x="1028.168770415776" y="981.3598822438199" type="line"/>
      <point x="1028.168770415776" y="1032.6652820905756" type="line"/>
      <point x="706.3722627737227" y="1032.6652820905756" type="line"/>
      <point x="706.3722627737227" y="981.1521555026819" type="line"/>
      <point x="816.8286889543091" y="951.2754365447433" type="line"/>
      <point x="616.3368149372907" y="271.29076097915066" type="line"/>
      <point x="564.5019962092188" y="82.70984393273378" type="line"/>
      <point x="509.2275275234908" y="276.0527886437876" type="line"/>
      <point x="290.2912852361173" y="951.2013953300803" type="line"/>
      <point x="403.1974029116426" y="980.8303827075856" type="line"/>
      <point x="403.1974029116426" y="1032.6652820905756" type="line"/>
      <point x="-20.8988990603702" y="1032.8730088317136" type="line"/>
      <point x="-20.8988990603702" y="981.5676089849579" type="line"/>
      <point x="68.32717667459774" y="950.957615840626" type="line"/>
      <point x="409.13517764245677" y="0.0" type="line"/>
      <point x="519.3211678832117" y="0.0" type="line"/>
      <point x="460.1587288784934" y="-173.55837399685444"/>
      <point x="347.03125378069933" y="-347.1407025043352"/>
      <point x="208.83413316126956" y="-347.1407025043352" type="curve" smooth="yes"/>
      <point x="174.70718232044197" y="-347.1407025043352"/>
      <point x="137.3855305077227" y="-341.85115134895347"/>
      <point x="119.08613945235311" y="-333.3328628463121" type="curve"/>
      <point x="119.08613945235311" y="-489.024317457757" type="line"/>
      <point x="136.18236076944794" y="-498.0917449691495"/>
      <point x="169.97911037625522" y="-504.16578618381254"/>
    </contour>
  </outline>
</glyph>
<glyph name="z" format="2">
  <advance width="970.0318586925836"/>
  <unicode hex="007A"/>
  <anchor x="488.93160462959236" y="0.0" name="bottom"/>
  <anchor x="499.2440617816671" y="1110.2817679558011" name="top"/>
  <outline>
    <contour>
      <point x="709.0907771101345" y="967.3592370044763" type="line"/>
      <point x="587.9942735008266" y="836.4828406662097" type="line"/>
      <point x="42.51736097108521" y="63.18691777231118" type="line"/>
      <point x="79.4279549945558" y="0.0" type="line"/>
      <point x="884.0053635520427" y="0.0" type="line"/>
      <point x="925.5485340968667" y="332.92313586320927" type="line"/>
      <point x="826.8543372182118" y="348.4832842682583" type="line"/>
      <point x="723.3764165019961" y="88.97447271847402" type="line"/>
      <point x="254.77085937815056" y="64.89454369480178" type="line"/>
      <point x="389.88587329112397" y="216.15961608259065" type="line"/>
      <point x="920.2088962374481" y="969.750937613421" type="line"/>
      <point x="885.4463846433036" y="1032.6652820905756" type="line"/>
      <point x="105.36189861676816" y="1032.0421018671616" type="line"/>
      <point x="101.83054401742147" y="713.3625438561116" type="line"/>
      <point x="204.154333185466" y="713.9857240795258" type="line"/>
      <point x="257.1965560350043" y="946.5361132395049" type="line"/>
    </contour>
  </outline>
</glyph>
<glyph name="braceleft" format="2">
  <advance width="959.1467919506392"/>
  <unicode hex="007B"/>
  <outline>
    <contour>
      <point x="589.9896358430457" y="-274.81767955801104" type="curve" smooth="yes"/>
      <point x="668.5788200185507" y="-274.81767955801104"/>
      <point x="742.4985280477478" y="-258.6231802234141"/>
      <point x="812.3278219139411" y="-238.0" type="curve"/>
      <point x="812.3278219139411" y="-181.02020405694236" type="line"/>
      <point x="790.7200871073113" y="-184.17490018953904"/>
      <point x="715.6435052627334" y="-187.32959632213573"/>
      <point x="691.5042545469211" y="-187.32959632213573" type="curve" smooth="yes"/>
      <point x="581.3702867282333" y="-187.32959632213573"/>
      <point x="465.674315441384" y="-153.12779771746582"/>
      <point x="465.674315441384" y="2.271202161551802" type="curve" smooth="yes"/>
      <point x="465.674315441384" y="126.91761100133081"/>
      <point x="527.636730249627" y="304.9505182078478"/>
      <point x="527.636730249627" y="445.8510706940356" type="curve" smooth="yes"/>
      <point x="527.636730249627" y="581.2986651611083"/>
      <point x="408.1264265838609" y="652.8729281767955"/>
      <point x="260.1898213493568" y="672.0" type="curve"/>
      <point x="408.1264265838609" y="692.8453038674033"/>
      <point x="527.636730249627" y="752.5833366939548"/>
      <point x="527.636730249627" y="890.1489293059644" type="curve" smooth="yes"/>
      <point x="527.636730249627" y="1031.6130177037544"/>
      <point x="465.674315441384" y="1212.4912287776747"/>
      <point x="465.674315441384" y="1336.8558696616526" type="curve" smooth="yes"/>
      <point x="465.674315441384" y="1488.8184054522726"/>
      <point x="581.3526636286649" y="1525.0202040569422"/>
      <point x="690.0501673589548" y="1525.0202040569422" type="curve" smooth="yes"/>
      <point x="711.6579021655847" y="1525.0202040569422"/>
      <point x="790.7200871073113" y="1523.3760132274065"/>
      <point x="812.3278219139411" y="1520.2213170948098" type="curve"/>
      <point x="812.3278219139411" y="1576.0" type="line"/>
      <point x="736.1852643464935" y="1597.2463604468282"/>
      <point x="676.8227204903819" y="1611.3812154696132"/>
      <point x="596.11553816994" y="1611.3812154696132" type="curve" smooth="yes"/>
      <point x="381.2578537726338" y="1611.3812154696132"/>
      <point x="275.43545590192366" y="1521.1546961325967"/>
      <point x="275.43545590192366" y="1357.46408839779" type="curve" smooth="yes"/>
      <point x="275.43545590192366" y="1172.3093922651933"/>
      <point x="377.25999112795904" y="1034.0623059241036"/>
      <point x="377.25999112795904" y="883.2963261684881" type="curve" smooth="yes"/>
      <point x="377.25999112795904" y="773.5665604710248"/>
      <point x="316.3465741823607" y="717.2061136427793"/>
      <point x="96.35693833931523" y="718.6425777311771" type="curve"/>
      <point x="96.35693833931523" y="636.2984231963544" type="line"/>
      <point x="316.3465741823607" y="637.7348872847522"/>
      <point x="377.25999112795904" y="566.1812316005969"/>
      <point x="377.25999112795904" y="453.8439730612574" type="curve" smooth="yes"/>
      <point x="377.25999112795904" y="303.28572004677983"/>
      <point x="275.43545590192366" y="165.12707182320443"/>
      <point x="275.43545590192366" y="-21.18232044198895" type="curve" smooth="yes"/>
      <point x="275.43545590192366" y="-183.15469613259668"/>
      <point x="382.5449449530185" y="-274.81767955801104"/>
    </contour>
  </outline>
</glyph>
<glyph name="bar" format="2">
  <advance width="775.1121103359278"/>
  <unicode hex="007C"/>
  <outline>
    <contour>
      <point x="443.60700891236854" y="1738.0" type="line"/>
      <point x="331.50510142355927" y="1738.0" type="line"/>
      <point x="331.50510142355927" y="-182.0" type="line"/>
      <point x="443.60700891236854" y="-182.0" type="line"/>
    </contour>
  </outline>
</glyph>
<glyph name="braceright" format="2">
  <advance width="959.1467919506392"/>
  <unicode hex="007D"/>
  <outline>
    <contour>
      <point x="368.3262491430414" y="-274.81767955801104" type="curve" smooth="yes"/>
      <point x="575.7709400330685" y="-274.81767955801104"/>
      <point x="683.7113360487156" y="-183.15469613259668"/>
      <point x="683.7113360487156" y="-20.974593700850907" type="curve" smooth="yes"/>
      <point x="683.7113360487156" y="165.54252530548052"/>
      <point x="581.8868008226802" y="303.4934467879179"/>
      <point x="581.8868008226802" y="454.25942654353344" type="curve" smooth="yes"/>
      <point x="581.8868008226802" y="566.1812316005969"/>
      <point x="642.8002177682783" y="633.9958059442674"/>
      <point x="862.7898536113238" y="632.5593418558697" type="curve"/>
      <point x="862.7898536113238" y="714.9034963906923" type="line"/>
      <point x="642.8002177682783" y="713.4670323022946"/>
      <point x="581.8868008226802" y="773.5665604710248"/>
      <point x="581.8868008226802" y="883.7117796507642" type="curve" smooth="yes"/>
      <point x="581.8868008226802" y="1034.2700326652416"/>
      <point x="683.7113360487156" y="1172.7248457474693"/>
      <point x="683.7113360487156" y="1357.671815138928" type="curve" smooth="yes"/>
      <point x="683.7113360487156" y="1521.1546961325967"/>
      <point x="578.7198451425576" y="1611.3812154696132"/>
      <point x="363.86216074525146" y="1611.3812154696132" type="curve" smooth="yes"/>
      <point x="283.1549784248095" y="1611.3812154696132"/>
      <point x="220.88426019276525" y="1596.6231802234142"/>
      <point x="146.81897003669798" y="1576.0" type="curve"/>
      <point x="146.81897003669798" y="1519.3904101302576" type="line"/>
      <point x="168.42670484332783" y="1522.5451062628542"/>
      <point x="246.45025607936446" y="1524.18929709239"/>
      <point x="267.64253740371817" y="1524.18929709239" type="curve" smooth="yes"/>
      <point x="376.3400411340082" y="1524.18929709239"/>
      <point x="493.4724765092552" y="1488.4029519699966"/>
      <point x="493.4724765092552" y="1336.0249626971004" type="curve" smooth="yes"/>
      <point x="493.4724765092552" y="1211.4525950719844"/>
      <point x="431.5100617010122" y="1031.6130177037544"/>
      <point x="431.5100617010122" y="890.5643827882404" type="curve" smooth="yes"/>
      <point x="431.5100617010122" y="752.998790176231"/>
      <point x="551.0203653667782" y="691.391216679437"/>
      <point x="698.9569706012825" y="670.7536395531718" type="curve"/>
      <point x="551.0203653667782" y="651.4188409888293"/>
      <point x="431.5100617010122" y="581.7141186433843"/>
      <point x="431.5100617010122" y="446.2665241763117" type="curve" smooth="yes"/>
      <point x="431.5100617010122" y="304.9505182078478"/>
      <point x="493.4724765092552" y="125.87897729564061"/>
      <point x="493.4724765092552" y="1.4402951969996383" type="curve" smooth="yes"/>
      <point x="493.4724765092552" y="-153.54325119974192"/>
      <point x="379.23059241037225" y="-188.16050328668788"/>
      <point x="269.0966245916845" y="-188.16050328668788" type="curve" smooth="yes"/>
      <point x="244.54192039359594" y="-188.16050328668788"/>
      <point x="168.42670484332783" y="-185.0058071540912"/>
      <point x="146.81897003669798" y="-181.85111102149452" type="curve"/>
      <point x="146.81897003669798" y="-238.0" type="line"/>
      <point x="218.7255313142719" y="-259.24636044682825"/>
      <point x="289.7370649675364" y="-274.81767955801104"/>
    </contour>
  </outline>
</glyph>
<glyph name="asciitilde" format="2">
  <advance width="1221.0514175101825"/>
  <unicode hex="007E"/>
  <outline>
    <contour>
      <point x="160.83211678832117" y="545.0490785175626" type="curve"/>
      <point x="207.31402992297456" y="480.3168528451022" type="line"/>
      <point x="255.73012864459412" y="547.2271645763601"/>
      <point x="329.2681776021293" y="599.7140783159253"/>
      <point x="413.55385732145015" y="599.7140783159253" type="curve" smooth="yes"/>
      <point x="567.2263983546396" y="599.7140783159253"/>
      <point x="599.941767149252" y="420.0810581925233"/>
      <point x="784.2556760898497" y="420.0810581925233" type="curve" smooth="yes"/>
      <point x="903.4507400088721" y="420.0810581925233"/>
      <point x="1008.1557043190711" y="494.5879743517361"/>
      <point x="1060.2193007218616" y="582.7319837077067" type="curve"/>
      <point x="1008.5027624309392" y="652.3213695205064" type="line"/>
      <point x="960.382828567972" y="585.0408517159333"/>
      <point x="883.5320401661492" y="527.9189014800178"/>
      <point x="797.5570431907086" y="527.9189014800178" type="curve" smooth="yes"/>
      <point x="649.5842642255112" y="527.9189014800178"/>
      <point x="608.883413316127" y="707.3297979594307"/>
      <point x="433.41303383473814" y="707.3297979594307" type="curve" smooth="yes"/>
      <point x="315.60067750131066" y="707.3297979594307"/>
      <point x="208.90297213372585" y="628.5267169415655"/>
    </contour>
  </outline>
</glyph>
<glyph name="exclamdown" format="2">
  <advance width="451.54978424809457"/>
  <unicode hex="00A1"/>
  <outline>
    <contour>
      <point x="116.72920111303789" y="-295.2760011291688" type="line"/>
      <point x="340.3867403314917" y="-295.2760011291688" type="line"/>
      <point x="264.8909545509537" y="1051.2685405492603" type="line"/>
      <point x="186.19736258418357" y="1051.2685405492603" type="line"/>
    </contour>
    <contour>
      <point x="235.99169254345284" y="1481.4138807113764" type="curve" smooth="yes"/>
      <point x="162.90801306609671" y="1481.4138807113764"/>
      <point x="102.61483243940799" y="1431.0255272815261"/>
      <point x="102.61483243940799" y="1352.6198733717788" type="curve" smooth="yes"/>
      <point x="102.61483243940799" y="1294.2907206516916"/>
      <point x="139.03637536798806" y="1239.8095334112998"/>
      <point x="215.70746461265477" y="1239.8095334112998" type="curve" smooth="yes"/>
      <point x="285.29652780578294" y="1239.8095334112998"/>
      <point x="348.20893656490694" y="1294.0582328507483"/>
      <point x="348.20893656490694" y="1368.6775819655602" type="curve" smooth="yes"/>
      <point x="348.20893656490694" y="1436.3775859983064"/>
      <point x="295.86933903294755" y="1481.4138807113764"/>
    </contour>
  </outline>
</glyph>
<glyph name="cent" format="2">
  <advance width="1077.941404202121"/>
  <unicode hex="00A2"/>
  <outline>
    <contour>
      <point x="144.40758962777755" y="505.2815259910472" type="curve" smooth="yes"/>
      <point x="144.933137073033" y="219.35879340242766"/>
      <point x="282.85675686574996" y="12.957172238577247"/>
      <point x="537.644110174618" y="-17.707787232326492" type="curve"/>
      <point x="516.6421744565876" y="-252.0" type="line"/>
      <point x="611.9612453119329" y="-252.0" type="line"/>
      <point x="632.6814130741623" y="-21.18873250796467" type="line"/>
      <point x="763.9415251844981" y="-13.351978061862322"/>
      <point x="894.3605678106222" y="49.18490139936282"/>
      <point x="953.5338145743438" y="110.97535992257129" type="curve"/>
      <point x="927.183489938299" y="162.86324958664355" type="line"/>
      <point x="872.0439569302738" y="121.48118724039199"/>
      <point x="766.7710610154454" y="80.09630197201275"/>
      <point x="665.5918861152559" y="80.09630197201275" type="curve" smooth="yes"/>
      <point x="480.7772714441263" y="80.09630197201275"/>
      <point x="365.14005726499175" y="244.29229342259148"/>
      <point x="365.6656047102472" y="546.3152397467436" type="curve" smooth="yes"/>
      <point x="366.1171109408396" y="844.7567044400532"/>
      <point x="491.653627454934" y="997.7833205629712"/>
      <point x="638.1898213493567" y="997.7833205629712" type="curve" smooth="yes"/>
      <point x="738.2433358874057" y="997.7833205629712"/>
      <point x="779.0927128281647" y="954.176271323144"/>
      <point x="787.0880348429247" y="917.5284913497601" type="curve" smooth="yes"/>
      <point x="828.7694479170868" y="725.0399241843772" type="line"/>
      <point x="939.7423075372021" y="725.0399241843772" type="line"/>
      <point x="949.0135096987538" y="1003.878332056297" type="line"/>
      <point x="906.9476549582611" y="1013.4098479654796"/>
      <point x="822.3982336572973" y="1054.3566560471024"/>
      <point x="712.461830060088" y="1064.2970117352904" type="curve"/>
      <point x="735.8301407428319" y="1320.2106706456427" type="line"/>
      <point x="643.2449893132234" y="1320.2106706456427" type="line"/>
      <point x="621.0313747630761" y="1064.6043876275355" type="line"/>
      <point x="330.3157640037101" y="1042.9701576803648"/>
      <point x="144.1041658265113" y="805.6879461225149"/>
    </contour>
  </outline>
</glyph>
<glyph name="sterling" format="2">
  <advance width="1434.677017381135"/>
  <unicode hex="00A3"/>
  <outline>
    <contour>
      <point x="920.7686010404484" y="-14.0" type="curve" smooth="yes"/>
      <point x="1157.2141388071138" y="-14.0"/>
      <point x="1329.523773037061" y="151.12860426664514"/>
      <point x="1329.523773037061" y="348.0075009073678" type="curve" smooth="yes"/>
      <point x="1329.523773037061" y="423.8672016776223"/>
      <point x="1306.380368592975" y="480.6639512844296"/>
      <point x="1285.17602935839" y="506.42541436464086" type="curve"/>
      <point x="1070.7229503568979" y="506.42541436464086" type="line"/>
      <point x="1100.6048715570432" y="470.41234826793567"/>
      <point x="1119.8897447271847" y="381.765374843731"/>
      <point x="1119.8897447271847" y="306.0864217445658" type="curve" smooth="yes"/>
      <point x="1119.8897447271847" y="148.39569302738232"/>
      <point x="1062.3117715852725" y="75.63447191192483"/>
      <point x="916.3047142799533" y="75.63447191192483" type="curve" smooth="yes"/>
      <point x="754.4649352744284" y="75.63447191192483"/>
      <point x="612.6178973262894" y="153.56337460176638"/>
      <point x="451.5675686574989" y="178.3691172319232" type="curve"/>
      <point x="509.7413396781868" y="244.2011533653264"/>
      <point x="568.3031415090536" y="364.66947614630806"/>
      <point x="568.3031415090536" y="562.061942976973" type="curve" smooth="yes"/>
      <point x="568.3031415090536" y="771.2381739726579" type="line"/>
      <point x="868.9634229947172" y="771.2381739726579" type="line"/>
      <point x="868.9634229947172" y="852.4492075654314" type="line"/>
      <point x="568.3031415090536" y="852.4492075654314" type="line"/>
      <point x="568.3031415090536" y="1064.5572851554623" type="line" smooth="yes"/>
      <point x="568.3031415090536" y="1362.3387103278621"/>
      <point x="683.3852482155099" y="1432.240553292737"/>
      <point x="793.1849417268218" y="1432.240553292737" type="curve" smooth="yes"/>
      <point x="914.6704843327822" y="1432.240553292737"/>
      <point x="1016.1181594547728" y="1341.2530144775576"/>
      <point x="1056.0906158002983" y="1265.5443400411339" type="curve"/>
      <point x="1173.9460015324435" y="1396.0540791224746" type="line"/>
      <point x="1104.7412993507278" y="1454.3061257410168"/>
      <point x="987.0564181150944" y="1502.8453038674033"/>
      <point x="845.6271323143928" y="1502.8453038674033" type="curve" smooth="yes"/>
      <point x="575.2850344799774" y="1502.8453038674033"/>
      <point x="352.68060652498286" y="1304.0"/>
      <point x="352.68060652498286" y="998.2817679558011" type="curve" smooth="yes"/>
      <point x="352.68060652498286" y="852.4492075654314" type="line"/>
      <point x="157.8972053070936" y="852.4492075654314" type="line"/>
      <point x="157.8972053070936" y="771.2381739726579" type="line"/>
      <point x="352.68060652498286" y="771.2381739726579" type="line"/>
      <point x="352.68060652498286" y="482.53691978868414" type="line" smooth="yes"/>
      <point x="352.68060652498286" y="374.74420292777353"/>
      <point x="335.963584304553" y="243.22688228414728"/>
      <point x="316.28592168407465" y="198.38044924789287" type="curve"/>
      <point x="195.42960842037346" y="199.09811670766626"/>
      <point x="87.21982497882809" y="142.35367181513894"/>
      <point x="87.21982497882809" y="74.47796104367464" type="curve" smooth="yes"/>
      <point x="87.21982497882809" y="27.27773520990442"/>
      <point x="133.0394805823285" y="0.0"/>
      <point x="188.52474089607617" y="0.0" type="curve" smooth="yes"/>
      <point x="264.9505585353067" y="0.0"/>
      <point x="326.4249707625923" y="44.83050368996249"/>
      <point x="383.94632415211515" y="109.9359599951607" type="curve"/>
      <point x="546.250433520184" y="108.20333104811066"/>
      <point x="697.7609791507039" y="-14.0"/>
    </contour>
  </outline>
</glyph>
